ISO-10303-21;
HEADER;
FILE_DESCRIPTION (( 'STEP AP214' ),
    '1' );
FILE_NAME ('disp_panel.STEP',
    '2026-07-22T21:55:26',
    ( '' ),
    ( '' ),
    'SwSTEP 2.0',
    'SolidWorks 2020',
    '' );
FILE_SCHEMA (( 'AUTOMOTIVE_DESIGN' ));
ENDSEC;

DATA;
#1 = SURFACE_STYLE_USAGE ( .BOTH. , #288 ) ;
#2 = ORIENTED_EDGE ( 'NONE', *, *, #77, .F. ) ;
#3 = ADVANCED_FACE ( 'NONE', ( #227 ), #168, .F. ) ;
#4 = ORIENTED_EDGE ( 'NONE', *, *, #243, .F. ) ;
#5 = VERTEX_POINT ( 'NONE', #191 ) ;
#6 = VERTEX_POINT ( 'NONE', #13 ) ;
#7 =( GEOMETRIC_REPRESENTATION_CONTEXT ( 3 ) GLOBAL_UNCERTAINTY_ASSIGNED_CONTEXT ( ( #262 ) ) GLOBAL_UNIT_ASSIGNED_CONTEXT ( ( #214, #82, #146 ) ) REPRESENTATION_CONTEXT ( 'NONE', 'WORKASPACE' ) );
#8 = EDGE_CURVE ( 'NONE', #189, #272, #65, .T. ) ;
#9 = ORIENTED_EDGE ( 'NONE', *, *, #198, .F. ) ;
#10 = ORIENTED_EDGE ( 'NONE', *, *, #291, .F. ) ;
#11 = CARTESIAN_POINT ( 'NONE',  ( 0.000000000000000000, 0.000000000000000000, 2.100000000000000089 ) ) ;
#12 = ORIENTED_EDGE ( 'NONE', *, *, #128, .F. ) ;
#13 = CARTESIAN_POINT ( 'NONE',  ( 0.000000000000000000, 24.37999999999999901, 0.000000000000000000 ) ) ;
#14 =( LENGTH_UNIT ( ) NAMED_UNIT ( * ) SI_UNIT ( .MILLI., .METRE. ) );
#15 = CARTESIAN_POINT ( 'NONE',  ( 0.000000000000000000, 24.37999999999999901, 2.100000000000000089 ) ) ;
#16 = VECTOR ( 'NONE', #165, 1000.000000000000000 ) ;
#17 = PLANE ( 'NONE',  #144 ) ;
#18 = VECTOR ( 'NONE', #329, 1000.000000000000000 ) ;
#19 = ADVANCED_FACE ( 'NONE', ( #37 ), #17, .F. ) ;
#20 = ORIENTED_EDGE ( 'NONE', *, *, #21, .T. ) ;
#21 = EDGE_CURVE ( 'NONE', #5, #101, #41, .T. ) ;
#22 = VECTOR ( 'NONE', #251, 1000.000000000000000 ) ;
#23 = ORIENTED_EDGE ( 'NONE', *, *, #150, .F. ) ;
#24 = ORIENTED_EDGE ( 'NONE', *, *, #164, .F. ) ;
#25 = DIRECTION ( 'NONE',  ( 1.000000000000000000, 0.000000000000000000, 0.000000000000000000 ) ) ;
#26 = ADVANCED_FACE ( 'NONE', ( #114 ), #143, .F. ) ;
#27 = EDGE_LOOP ( 'NONE', ( #330, #10, #31, #247 ) ) ;
#28 = CARTESIAN_POINT ( 'NONE',  ( 69.43000000000000682, 0.000000000000000000, 2.100000000000000089 ) ) ;
#29 = VECTOR ( 'NONE', #70, 1000.000000000000000 ) ;
#30 =( NAMED_UNIT ( * ) PLANE_ANGLE_UNIT ( ) SI_UNIT ( $, .RADIAN. ) );
#31 = ORIENTED_EDGE ( 'NONE', *, *, #86, .F. ) ;
#32 = LINE ( 'NONE', #11, #76 ) ;
#33 = ORIENTED_EDGE ( 'NONE', *, *, #217, .T. ) ;
#34 = CARTESIAN_POINT ( 'NONE',  ( 0.000000000000000000, 0.000000000000000000, 2.100000000000000089 ) ) ;
#35 = DIRECTION ( 'NONE',  ( 0.000000000000000000, 1.000000000000000000, 0.000000000000000000 ) ) ;
#36 = VERTEX_POINT ( 'NONE', #302 ) ;
#37 = FACE_OUTER_BOUND ( 'NONE', #55, .T. ) ;
#38 = CARTESIAN_POINT ( 'NONE',  ( 0.000000000000000000, 0.000000000000000000, 2.100000000000000089 ) ) ;
#39 = DIRECTION ( 'NONE',  ( -1.000000000000000000, -0.000000000000000000, -0.000000000000000000 ) ) ;
#40 = PLANE ( 'NONE',  #236 ) ;
#41 = LINE ( 'NONE', #141, #257 ) ;
#42 = AXIS2_PLACEMENT_3D ( 'NONE', #221, #35, #172 ) ;
#43 = FACE_OUTER_BOUND ( 'NONE', #163, .T. ) ;
#44 = VECTOR ( 'NONE', #25, 1000.000000000000000 ) ;
#45 = DIRECTION ( 'NONE',  ( 0.000000000000000000, -0.000000000000000000, 1.000000000000000000 ) ) ;
#46 = LINE ( 'NONE', #212, #206 ) ;
#47 = CARTESIAN_POINT ( 'NONE',  ( 1.400000000000000133, 22.82999999999999829, 2.100000000000000089 ) ) ;
#48 = ORIENTED_EDGE ( 'NONE', *, *, #187, .F. ) ;
#49 = EDGE_CURVE ( 'NONE', #127, #184, #117, .T. ) ;
#50 = DIRECTION ( 'NONE',  ( 0.000000000000000000, -1.000000000000000000, 0.000000000000000000 ) ) ;
#51 = CARTESIAN_POINT ( 'NONE',  ( 0.000000000000000000, 1.549999999999999378, 2.000000000000000444 ) ) ;
#52 = EDGE_LOOP ( 'NONE', ( #23, #159, #2, #4 ) ) ;
#53 = VECTOR ( 'NONE', #167, 1000.000000000000000 ) ;
#54 = VECTOR ( 'NONE', #322, 1000.000000000000000 ) ;
#55 = EDGE_LOOP ( 'NONE', ( #79, #215, #323, #254 ) ) ;
#56 = DIRECTION ( 'NONE',  ( 0.000000000000000000, 1.000000000000000000, 0.000000000000000000 ) ) ;
#57 = SURFACE_SIDE_STYLE ('',( #303 ) ) ;
#58 = ORIENTED_EDGE ( 'NONE', *, *, #128, .T. ) ;
#59 = DIRECTION ( 'NONE',  ( -1.000000000000000000, 0.000000000000000000, -0.000000000000000000 ) ) ;
#60 = PRODUCT ( 'disp_panel', 'disp_panel', '', ( #93 ) ) ;
#61 = DIRECTION ( 'NONE',  ( -1.000000000000000000, 0.000000000000000000, -0.000000000000000000 ) ) ;
#62 = FACE_OUTER_BOUND ( 'NONE', #270, .T. ) ;
#63 = CARTESIAN_POINT ( 'NONE',  ( 0.000000000000000000, 0.000000000000000000, 2.100000000000000089 ) ) ;
#64 = PRODUCT_DEFINITION_SHAPE ( 'NONE', 'NONE',  #339 ) ;
#65 = LINE ( 'NONE', #87, #95 ) ;
#66 = ADVANCED_FACE ( 'NONE', ( #334 ), #275, .F. ) ;
#67 = LINE ( 'NONE', #340, #29 ) ;
#68 = VECTOR ( 'NONE', #246, 1000.000000000000000 ) ;
#69 = CARTESIAN_POINT ( 'NONE',  ( 0.000000000000000000, 0.000000000000000000, 0.000000000000000000 ) ) ;
#70 = DIRECTION ( 'NONE',  ( -1.000000000000000000, -0.000000000000000000, -0.000000000000000000 ) ) ;
#71 = ORIENTED_EDGE ( 'NONE', *, *, #147, .F. ) ;
#72 = LINE ( 'NONE', #100, #44 ) ;
#73 = ORIENTED_EDGE ( 'NONE', *, *, #171, .T. ) ;
#74 = LINE ( 'NONE', #28, #241 ) ;
#75 = ORIENTED_EDGE ( 'NONE', *, *, #21, .F. ) ;
#76 = VECTOR ( 'NONE', #273, 1000.000000000000000 ) ;
#77 = EDGE_CURVE ( 'NONE', #134, #325, #89, .T. ) ;
#78 = CARTESIAN_POINT ( 'NONE',  ( 1.400000000000000133, 22.82999999999999829, 2.000000000000000444 ) ) ;
#79 = ORIENTED_EDGE ( 'NONE', *, *, #179, .T. ) ;
#80 = LINE ( 'NONE', #170, #162 ) ;
#81 = STYLED_ITEM ( 'NONE', ( #203 ), #136 ) ;
#82 =( NAMED_UNIT ( * ) PLANE_ANGLE_UNIT ( ) SI_UNIT ( $, .RADIAN. ) );
#83 = ORIENTED_EDGE ( 'NONE', *, *, #171, .F. ) ;
#84 = CARTESIAN_POINT ( 'NONE',  ( 1.400000000000000133, 1.549999999999999378, 2.000000000000000444 ) ) ;
#85 = CARTESIAN_POINT ( 'NONE',  ( 69.43000000000000682, 0.000000000000000000, 2.100000000000000089 ) ) ;
#86 = EDGE_CURVE ( 'NONE', #36, #328, #281, .T. ) ;
#87 = CARTESIAN_POINT ( 'NONE',  ( 65.54000000000000625, 22.82999999999999829, 2.000000000000000444 ) ) ;
#88 = FILL_AREA_STYLE ('',( #335 ) ) ;
#89 = LINE ( 'NONE', #220, #226 ) ;
#90 = APPLICATION_PROTOCOL_DEFINITION ( 'draft international standard', 'automotive_design', 1998, #97 ) ;
#91 = DIRECTION ( 'NONE',  ( -0.000000000000000000, 0.000000000000000000, 1.000000000000000000 ) ) ;
#92 = COLOUR_RGB ( '',0.7921568627450980005, 0.8196078431372548767, 0.9333333333333333481 ) ;
#93 = PRODUCT_CONTEXT ( 'NONE', #97, 'mechanical' ) ;
#94 = UNCERTAINTY_MEASURE_WITH_UNIT (LENGTH_MEASURE( 1.000000000000000082E-05 ), #14, 'distance_accuracy_value', 'NONE');
#95 = VECTOR ( 'NONE', #258, 1000.000000000000000 ) ;
#96 = ADVANCED_FACE ( 'NONE', ( #223 ), #331, .T. ) ;
#97 = APPLICATION_CONTEXT ( 'automotive_design' ) ;
#98 = CARTESIAN_POINT ( 'NONE',  ( 0.000000000000000000, 1.549999999999999378, 2.000000000000000444 ) ) ;
#99 = AXIS2_PLACEMENT_3D ( 'NONE', #148, #260, #91 ) ;
#100 = CARTESIAN_POINT ( 'NONE',  ( 0.000000000000000000, 22.82999999999999829, 2.000000000000000444 ) ) ;
#101 = VERTEX_POINT ( 'NONE', #15 ) ;
#102 = VECTOR ( 'NONE', #240, 1000.000000000000000 ) ;
#103 = LINE ( 'NONE', #269, #149 ) ;
#104 = EDGE_CURVE ( 'NONE', #36, #142, #121, .T. ) ;
#105 = ORIENTED_EDGE ( 'NONE', *, *, #125, .T. ) ;
#106 =( NAMED_UNIT ( * ) PLANE_ANGLE_UNIT ( ) SI_UNIT ( $, .RADIAN. ) );
#107 = ORIENTED_EDGE ( 'NONE', *, *, #266, .T. ) ;
#108 = CARTESIAN_POINT ( 'NONE',  ( 1.400000000000000133, 1.549999999999999378, 2.100000000000000089 ) ) ;
#109 = CARTESIAN_POINT ( 'NONE',  ( 1.400000000000000133, 22.82999999999999829, 2.000000000000000444 ) ) ;
#110 = ORIENTED_EDGE ( 'NONE', *, *, #86, .T. ) ;
#111 = APPLICATION_CONTEXT ( 'automotive_design' ) ;
#112 =( NAMED_UNIT ( * ) SI_UNIT ( $, .STERADIAN. ) SOLID_ANGLE_UNIT ( ) );
#113 = ORIENTED_EDGE ( 'NONE', *, *, #235, .F. ) ;
#114 = FACE_OUTER_BOUND ( 'NONE', #321, .T. ) ;
#115 = CARTESIAN_POINT ( 'NONE',  ( 65.54000000000000625, 1.549999999999999378, 2.000000000000000444 ) ) ;
#116 = ORIENTED_EDGE ( 'NONE', *, *, #104, .F. ) ;
#117 = LINE ( 'NONE', #84, #22 ) ;
#118 = ADVANCED_FACE ( 'NONE', ( #43 ), #196, .T. ) ;
#119 = ORIENTED_EDGE ( 'NONE', *, *, #147, .T. ) ;
#120 = CARTESIAN_POINT ( 'NONE',  ( 0.000000000000000000, 24.37999999999999901, 2.100000000000000089 ) ) ;
#121 = LINE ( 'NONE', #309, #53 ) ;
#122 = AXIS2_PLACEMENT_3D ( 'NONE', #120, #256, #284 ) ;
#123 = DIRECTION ( 'NONE',  ( 1.000000000000000000, 0.000000000000000000, 0.000000000000000000 ) ) ;
#124 = AXIS2_PLACEMENT_3D ( 'NONE', #98, #237, #45 ) ;
#125 = EDGE_CURVE ( 'NONE', #245, #272, #80, .T. ) ;
#126 = LINE ( 'NONE', #129, #190 ) ;
#127 = VERTEX_POINT ( 'NONE', #200 ) ;
#128 = EDGE_CURVE ( 'NONE', #272, #166, #311, .T. ) ;
#129 = CARTESIAN_POINT ( 'NONE',  ( 69.43000000000000682, 24.37999999999999901, 2.100000000000000089 ) ) ;
#130 = ORIENTED_EDGE ( 'NONE', *, *, #8, .F. ) ;
#131 = LINE ( 'NONE', #69, #102 ) ;
#132 = ORIENTED_EDGE ( 'NONE', *, *, #217, .F. ) ;
#133 = FACE_OUTER_BOUND ( 'NONE', #140, .T. ) ;
#134 = VERTEX_POINT ( 'NONE', #297 ) ;
#135 = LINE ( 'NONE', #109, #68 ) ;
#136 = MANIFOLD_SOLID_BREP ( 'Cut-Extrude1', #255 ) ;
#137 = VECTOR ( 'NONE', #155, 1000.000000000000000 ) ;
#138 = ORIENTED_EDGE ( 'NONE', *, *, #291, .T. ) ;
#139 = FACE_OUTER_BOUND ( 'NONE', #158, .T. ) ;
#140 = EDGE_LOOP ( 'NONE', ( #9, #83, #48, #298 ) ) ;
#141 = CARTESIAN_POINT ( 'NONE',  ( 0.000000000000000000, 24.37999999999999901, 2.100000000000000089 ) ) ;
#142 = VERTEX_POINT ( 'NONE', #152 ) ;
#143 = PLANE ( 'NONE',  #122 ) ;
#144 = AXIS2_PLACEMENT_3D ( 'NONE', #307, #61, #337 ) ;
#145 = DIRECTION ( 'NONE',  ( -1.000000000000000000, 0.000000000000000000, 0.000000000000000000 ) ) ;
#146 =( NAMED_UNIT ( * ) SI_UNIT ( $, .STERADIAN. ) SOLID_ANGLE_UNIT ( ) );
#147 = EDGE_CURVE ( 'NONE', #5, #325, #126, .T. ) ;
#148 = CARTESIAN_POINT ( 'NONE',  ( 65.54000000000000625, 0.000000000000000000, 2.000000000000000444 ) ) ;
#149 = VECTOR ( 'NONE', #176, 1000.000000000000000 ) ;
#150 = EDGE_CURVE ( 'NONE', #6, #142, #131, .T. ) ;
#151 = LINE ( 'NONE', #209, #137 ) ;
#152 = CARTESIAN_POINT ( 'NONE',  ( 0.000000000000000000, 0.000000000000000000, 0.000000000000000000 ) ) ;
#153 = LINE ( 'NONE', #51, #54 ) ;
#154 = ORIENTED_EDGE ( 'NONE', *, *, #187, .T. ) ;
#155 = DIRECTION ( 'NONE',  ( -0.000000000000000000, -0.000000000000000000, -1.000000000000000000 ) ) ;
#156 = SURFACE_STYLE_FILL_AREA ( #185 ) ;
#157 = ADVANCED_FACE ( 'NONE', ( #344 ), #264, .T. ) ;
#158 = EDGE_LOOP ( 'NONE', ( #228, #110, #33, #20 ) ) ;
#159 = ORIENTED_EDGE ( 'NONE', *, *, #175, .F. ) ;
#160 = VECTOR ( 'NONE', #161, 1000.000000000000000 ) ;
#161 = DIRECTION ( 'NONE',  ( -0.000000000000000000, -0.000000000000000000, 1.000000000000000000 ) ) ;
#162 = VECTOR ( 'NONE', #283, 1000.000000000000000 ) ;
#163 = EDGE_LOOP ( 'NONE', ( #12, #130, #73, #107 ) ) ;
#164 = EDGE_CURVE ( 'NONE', #101, #6, #151, .T. ) ;
#165 = DIRECTION ( 'NONE',  ( 1.000000000000000000, 0.000000000000000000, 0.000000000000000000 ) ) ;
#166 = VERTEX_POINT ( 'NONE', #324 ) ;
#167 = DIRECTION ( 'NONE',  ( -0.000000000000000000, -0.000000000000000000, -1.000000000000000000 ) ) ;
#168 = PLANE ( 'NONE',  #295 ) ;
#169 = DIRECTION ( 'NONE',  ( -1.000000000000000000, 0.000000000000000000, -0.000000000000000000 ) ) ;
#170 = CARTESIAN_POINT ( 'NONE',  ( -0.000000000000000000, 22.82999999999999829, 2.100000000000000089 ) ) ;
#171 = EDGE_CURVE ( 'NONE', #189, #248, #320, .T. ) ;
#172 = DIRECTION ( 'NONE',  ( 0.000000000000000000, -0.000000000000000000, 1.000000000000000000 ) ) ;
#173 = VECTOR ( 'NONE', #249, 1000.000000000000000 ) ;
#174 = DIRECTION ( 'NONE',  ( 0.000000000000000000, 0.000000000000000000, 1.000000000000000000 ) ) ;
#175 = EDGE_CURVE ( 'NONE', #325, #6, #67, .T. ) ;
#176 = DIRECTION ( 'NONE',  ( 0.000000000000000000, -1.000000000000000000, 0.000000000000000000 ) ) ;
#177 =( GEOMETRIC_REPRESENTATION_CONTEXT ( 3 ) GLOBAL_UNCERTAINTY_ASSIGNED_CONTEXT ( ( #230 ) ) GLOBAL_UNIT_ASSIGNED_CONTEXT ( ( #294, #106, #293 ) ) REPRESENTATION_CONTEXT ( 'NONE', 'WORKASPACE' ) );
#178 = DIRECTION ( 'NONE',  ( 1.000000000000000000, 0.000000000000000000, 0.000000000000000000 ) ) ;
#179 = EDGE_CURVE ( 'NONE', #245, #184, #103, .T. ) ;
#180 = EDGE_LOOP ( 'NONE', ( #219, #277, #304, #193 ) ) ;
#181 = STYLED_ITEM ( 'NONE', ( #252 ), #315 ) ;
#182 = ORIENTED_EDGE ( 'NONE', *, *, #150, .T. ) ;
#183 = CARTESIAN_POINT ( 'NONE',  ( 65.54000000000000625, 22.82999999999999829, 2.000000000000000444 ) ) ;
#184 = VERTEX_POINT ( 'NONE', #108 ) ;
#185 = FILL_AREA_STYLE ('',( #233 ) ) ;
#186 = AXIS2_PLACEMENT_3D ( 'NONE', #234, #338, #259 ) ;
#187 = EDGE_CURVE ( 'NONE', #278, #189, #72, .T. ) ;
#188 = CARTESIAN_POINT ( 'NONE',  ( 69.43000000000000682, 0.000000000000000000, 2.100000000000000089 ) ) ;
#189 = VERTEX_POINT ( 'NONE', #183 ) ;
#190 = VECTOR ( 'NONE', #208, 1000.000000000000000 ) ;
#191 = CARTESIAN_POINT ( 'NONE',  ( 69.43000000000000682, 24.37999999999999901, 2.100000000000000089 ) ) ;
#192 = FACE_OUTER_BOUND ( 'NONE', #27, .T. ) ;
#193 = ORIENTED_EDGE ( 'NONE', *, *, #49, .T. ) ;
#194 = CARTESIAN_POINT ( 'NONE',  ( 0.000000000000000000, 0.000000000000000000, 0.000000000000000000 ) ) ;
#195 = FACE_BOUND ( 'NONE', #253, .T. ) ;
#196 = PLANE ( 'NONE',  #99 ) ;
#197 = DIRECTION ( 'NONE',  ( 0.000000000000000000, 0.000000000000000000, -1.000000000000000000 ) ) ;
#198 = EDGE_CURVE ( 'NONE', #248, #127, #153, .T. ) ;
#199 = SURFACE_STYLE_USAGE ( .BOTH. , #57 ) ;
#200 = CARTESIAN_POINT ( 'NONE',  ( 1.400000000000000133, 1.549999999999999378, 2.000000000000000444 ) ) ;
#201 =( GEOMETRIC_REPRESENTATION_CONTEXT ( 3 ) GLOBAL_UNCERTAINTY_ASSIGNED_CONTEXT ( ( #94 ) ) GLOBAL_UNIT_ASSIGNED_CONTEXT ( ( #14, #30, #112 ) ) REPRESENTATION_CONTEXT ( 'NONE', 'WORKASPACE' ) );
#202 = EDGE_CURVE ( 'NONE', #278, #127, #244, .T. ) ;
#203 = PRESENTATION_STYLE_ASSIGNMENT (( #1 ) ) ;
#204 = AXIS2_PLACEMENT_3D ( 'NONE', #194, #197, #59 ) ;
#205 = DIRECTION ( 'NONE',  ( 0.000000000000000000, -1.000000000000000000, 0.000000000000000000 ) ) ;
#206 = VECTOR ( 'NONE', #326, 1000.000000000000000 ) ;
#207 = EDGE_LOOP ( 'NONE', ( #296, #71, #132, #138 ) ) ;
#208 = DIRECTION ( 'NONE',  ( -0.000000000000000000, -0.000000000000000000, -1.000000000000000000 ) ) ;
#209 = CARTESIAN_POINT ( 'NONE',  ( 0.000000000000000000, 24.37999999999999901, 2.100000000000000089 ) ) ;
#210 = ADVANCED_FACE ( 'NONE', ( #133 ), #242, .T. ) ;
#211 = CARTESIAN_POINT ( 'NONE',  ( 0.000000000000000000, 0.000000000000000000, 2.000000000000000444 ) ) ;
#212 = CARTESIAN_POINT ( 'NONE',  ( 0.000000000000000000, 1.549999999999999378, 2.100000000000000089 ) ) ;
#213 = MECHANICAL_DESIGN_GEOMETRIC_PRESENTATION_REPRESENTATION (  '', ( #181 ), #201 ) ;
#214 =( LENGTH_UNIT ( ) NAMED_UNIT ( * ) SI_UNIT ( .MILLI., .METRE. ) );
#215 = ORIENTED_EDGE ( 'NONE', *, *, #49, .F. ) ;
#216 = CARTESIAN_POINT ( 'NONE',  ( 65.54000000000000625, 0.000000000000000000, 2.100000000000000089 ) ) ;
#217 = EDGE_CURVE ( 'NONE', #328, #5, #74, .T. ) ;
#218 = PLANE ( 'NONE',  #261 ) ;
#219 = ORIENTED_EDGE ( 'NONE', *, *, #225, .F. ) ;
#220 = CARTESIAN_POINT ( 'NONE',  ( 69.43000000000000682, 0.000000000000000000, 0.000000000000000000 ) ) ;
#221 = CARTESIAN_POINT ( 'NONE',  ( 0.000000000000000000, 0.000000000000000000, 2.100000000000000089 ) ) ;
#222 = ORIENTED_EDGE ( 'NONE', *, *, #179, .F. ) ;
#223 = FACE_OUTER_BOUND ( 'NONE', #52, .T. ) ;
#224 = CARTESIAN_POINT ( 'NONE',  ( 69.43000000000000682, 24.37999999999999901, 0.000000000000000000 ) ) ;
#225 = EDGE_CURVE ( 'NONE', #166, #184, #46, .T. ) ;
#226 = VECTOR ( 'NONE', #56, 1000.000000000000000 ) ;
#227 = FACE_OUTER_BOUND ( 'NONE', #301, .T. ) ;
#228 = ORIENTED_EDGE ( 'NONE', *, *, #312, .T. ) ;
#229 = AXIS2_PLACEMENT_3D ( 'NONE', #211, #318, #178 ) ;
#230 = UNCERTAINTY_MEASURE_WITH_UNIT (LENGTH_MEASURE( 1.000000000000000082E-05 ), #294, 'distance_accuracy_value', 'NONE');
#231 = SHAPE_DEFINITION_REPRESENTATION ( #64, #315 ) ;
#232 = APPLICATION_PROTOCOL_DEFINITION ( 'draft international standard', 'automotive_design', 1998, #111 ) ;
#233 = FILL_AREA_STYLE_COLOUR ( '', #299 ) ;
#234 = CARTESIAN_POINT ( 'NONE',  ( 0.000000000000000000, 0.000000000000000000, 0.000000000000000000 ) ) ;
#235 = EDGE_CURVE ( 'NONE', #278, #245, #135, .T. ) ;
#236 = AXIS2_PLACEMENT_3D ( 'NONE', #38, #276, #169 ) ;
#237 = DIRECTION ( 'NONE',  ( 0.000000000000000000, 1.000000000000000000, 0.000000000000000000 ) ) ;
#238 = AXIS2_PLACEMENT_3D ( 'NONE', #305, #145, #174 ) ;
#239 = ORIENTED_EDGE ( 'NONE', *, *, #225, .T. ) ;
#240 = DIRECTION ( 'NONE',  ( -0.000000000000000000, -1.000000000000000000, -0.000000000000000000 ) ) ;
#241 = VECTOR ( 'NONE', #289, 1000.000000000000000 ) ;
#242 = PLANE ( 'NONE',  #229 ) ;
#243 = EDGE_CURVE ( 'NONE', #142, #134, #341, .T. ) ;
#244 = LINE ( 'NONE', #267, #342 ) ;
#245 = VERTEX_POINT ( 'NONE', #47 ) ;
#246 = DIRECTION ( 'NONE',  ( -0.000000000000000000, -0.000000000000000000, 1.000000000000000000 ) ) ;
#247 = ORIENTED_EDGE ( 'NONE', *, *, #104, .T. ) ;
#248 = VERTEX_POINT ( 'NONE', #280 ) ;
#249 = DIRECTION ( 'NONE',  ( -0.000000000000000000, -0.000000000000000000, -1.000000000000000000 ) ) ;
#250 = ORIENTED_EDGE ( 'NONE', *, *, #312, .F. ) ;
#251 = DIRECTION ( 'NONE',  ( -0.000000000000000000, -0.000000000000000000, 1.000000000000000000 ) ) ;
#252 = PRESENTATION_STYLE_ASSIGNMENT (( #199 ) ) ;
#253 = EDGE_LOOP ( 'NONE', ( #239, #222, #105, #58 ) ) ;
#254 = ORIENTED_EDGE ( 'NONE', *, *, #235, .T. ) ;
#255 = CLOSED_SHELL ( 'NONE', ( #343, #3, #287, #66, #26, #96, #157, #19, #279, #118, #210 ) ) ;
#256 = DIRECTION ( 'NONE',  ( 0.000000000000000000, -1.000000000000000000, 0.000000000000000000 ) ) ;
#257 = VECTOR ( 'NONE', #39, 1000.000000000000000 ) ;
#258 = DIRECTION ( 'NONE',  ( -0.000000000000000000, -0.000000000000000000, 1.000000000000000000 ) ) ;
#259 = DIRECTION ( 'NONE',  ( 1.000000000000000000, 0.000000000000000000, 0.000000000000000000 ) ) ;
#260 = DIRECTION ( 'NONE',  ( -1.000000000000000000, 0.000000000000000000, -0.000000000000000000 ) ) ;
#261 = AXIS2_PLACEMENT_3D ( 'NONE', #310, #308, #300 ) ;
#262 = UNCERTAINTY_MEASURE_WITH_UNIT (LENGTH_MEASURE( 1.000000000000000082E-05 ), #214, 'distance_accuracy_value', 'NONE');
#263 = ORIENTED_EDGE ( 'NONE', *, *, #8, .T. ) ;
#264 = PLANE ( 'NONE',  #124 ) ;
#265 = ORIENTED_EDGE ( 'NONE', *, *, #164, .T. ) ;
#266 = EDGE_CURVE ( 'NONE', #248, #166, #327, .T. ) ;
#267 = CARTESIAN_POINT ( 'NONE',  ( 1.400000000000000133, 0.000000000000000000, 2.000000000000000444 ) ) ;
#268 = CARTESIAN_POINT ( 'NONE',  ( 0.000000000000000000, 0.000000000000000000, 0.000000000000000000 ) ) ;
#269 = CARTESIAN_POINT ( 'NONE',  ( 1.400000000000000133, 0.000000000000000000, 2.100000000000000089 ) ) ;
#270 = EDGE_LOOP ( 'NONE', ( #274, #113, #154, #263 ) ) ;
#271 = VECTOR ( 'NONE', #290, 1000.000000000000000 ) ;
#272 = VERTEX_POINT ( 'NONE', #332 ) ;
#273 = DIRECTION ( 'NONE',  ( -0.000000000000000000, -1.000000000000000000, -0.000000000000000000 ) ) ;
#274 = ORIENTED_EDGE ( 'NONE', *, *, #125, .F. ) ;
#275 = PLANE ( 'NONE',  #238 ) ;
#276 = DIRECTION ( 'NONE',  ( 0.000000000000000000, 0.000000000000000000, -1.000000000000000000 ) ) ;
#277 = ORIENTED_EDGE ( 'NONE', *, *, #266, .F. ) ;
#278 = VERTEX_POINT ( 'NONE', #78 ) ;
#279 = ADVANCED_FACE ( 'NONE', ( #62 ), #218, .T. ) ;
#280 = CARTESIAN_POINT ( 'NONE',  ( 65.54000000000000625, 1.549999999999999378, 2.000000000000000444 ) ) ;
#281 = LINE ( 'NONE', #63, #16 ) ;
#282 = PLANE ( 'NONE',  #42 ) ;
#283 = DIRECTION ( 'NONE',  ( 1.000000000000000000, 0.000000000000000000, 0.000000000000000000 ) ) ;
#284 = DIRECTION ( 'NONE',  ( 0.000000000000000000, -0.000000000000000000, -1.000000000000000000 ) ) ;
#285 = PRODUCT_RELATED_PRODUCT_CATEGORY ( 'part', '', ( #60 ) ) ;
#286 = MECHANICAL_DESIGN_GEOMETRIC_PRESENTATION_REPRESENTATION (  '', ( #81 ), #177 ) ;
#287 = ADVANCED_FACE ( 'NONE', ( #192 ), #282, .F. ) ;
#288 = SURFACE_SIDE_STYLE ('',( #156 ) ) ;
#289 = DIRECTION ( 'NONE',  ( 0.000000000000000000, 1.000000000000000000, 0.000000000000000000 ) ) ;
#290 = DIRECTION ( 'NONE',  ( 1.000000000000000000, 0.000000000000000000, 0.000000000000000000 ) ) ;
#291 = EDGE_CURVE ( 'NONE', #328, #134, #306, .T. ) ;
#292 = PRESENTATION_LAYER_ASSIGNMENT (  '', '', ( #181 ) ) ;
#293 =( NAMED_UNIT ( * ) SI_UNIT ( $, .STERADIAN. ) SOLID_ANGLE_UNIT ( ) );
#294 =( LENGTH_UNIT ( ) NAMED_UNIT ( * ) SI_UNIT ( .MILLI., .METRE. ) );
#295 = AXIS2_PLACEMENT_3D ( 'NONE', #34, #123, #333 ) ;
#296 = ORIENTED_EDGE ( 'NONE', *, *, #77, .T. ) ;
#297 = CARTESIAN_POINT ( 'NONE',  ( 69.43000000000000682, 0.000000000000000000, 0.000000000000000000 ) ) ;
#298 = ORIENTED_EDGE ( 'NONE', *, *, #202, .T. ) ;
#299 = COLOUR_RGB ( '',0.7921568627450980005, 0.8196078431372548767, 0.9333333333333333481 ) ;
#300 = DIRECTION ( 'NONE',  ( 0.000000000000000000, -0.000000000000000000, -1.000000000000000000 ) ) ;
#301 = EDGE_LOOP ( 'NONE', ( #182, #116, #250, #265 ) ) ;
#302 = CARTESIAN_POINT ( 'NONE',  ( 0.000000000000000000, 0.000000000000000000, 2.100000000000000089 ) ) ;
#303 = SURFACE_STYLE_FILL_AREA ( #88 ) ;
#304 = ORIENTED_EDGE ( 'NONE', *, *, #198, .T. ) ;
#305 = CARTESIAN_POINT ( 'NONE',  ( 69.43000000000000682, 0.000000000000000000, 2.100000000000000089 ) ) ;
#306 = LINE ( 'NONE', #85, #173 ) ;
#307 = CARTESIAN_POINT ( 'NONE',  ( 1.400000000000000133, 0.000000000000000000, 2.000000000000000444 ) ) ;
#308 = DIRECTION ( 'NONE',  ( 0.000000000000000000, -1.000000000000000000, 0.000000000000000000 ) ) ;
#309 = CARTESIAN_POINT ( 'NONE',  ( 0.000000000000000000, 0.000000000000000000, 2.100000000000000089 ) ) ;
#310 = CARTESIAN_POINT ( 'NONE',  ( 0.000000000000000000, 22.82999999999999829, 2.000000000000000444 ) ) ;
#311 = LINE ( 'NONE', #216, #18 ) ;
#312 = EDGE_CURVE ( 'NONE', #101, #36, #32, .T. ) ;
#313 = PRODUCT_DEFINITION_FORMATION_WITH_SPECIFIED_SOURCE ( 'ANY', '', #60, .NOT_KNOWN. ) ;
#314 = PRODUCT_DEFINITION_CONTEXT ( 'detailed design', #111, 'design' ) ;
#315 = ADVANCED_BREP_SHAPE_REPRESENTATION ( 'disp_panel', ( #136, #186 ), #7 ) ;
#316 = CARTESIAN_POINT ( 'NONE',  ( 65.54000000000000625, 0.000000000000000000, 2.000000000000000444 ) ) ;
#317 = VECTOR ( 'NONE', #50, 1000.000000000000000 ) ;
#318 = DIRECTION ( 'NONE',  ( -0.000000000000000000, 0.000000000000000000, 1.000000000000000000 ) ) ;
#319 = ORIENTED_EDGE ( 'NONE', *, *, #175, .T. ) ;
#320 = LINE ( 'NONE', #316, #317 ) ;
#321 = EDGE_LOOP ( 'NONE', ( #319, #24, #75, #119 ) ) ;
#322 = DIRECTION ( 'NONE',  ( -1.000000000000000000, 0.000000000000000000, 0.000000000000000000 ) ) ;
#323 = ORIENTED_EDGE ( 'NONE', *, *, #202, .F. ) ;
#324 = CARTESIAN_POINT ( 'NONE',  ( 65.54000000000000625, 1.549999999999999378, 2.100000000000000089 ) ) ;
#325 = VERTEX_POINT ( 'NONE', #224 ) ;
#326 = DIRECTION ( 'NONE',  ( -1.000000000000000000, 0.000000000000000000, 0.000000000000000000 ) ) ;
#327 = LINE ( 'NONE', #115, #160 ) ;
#328 = VERTEX_POINT ( 'NONE', #188 ) ;
#329 = DIRECTION ( 'NONE',  ( 0.000000000000000000, -1.000000000000000000, 0.000000000000000000 ) ) ;
#330 = ORIENTED_EDGE ( 'NONE', *, *, #243, .T. ) ;
#331 = PLANE ( 'NONE',  #204 ) ;
#332 = CARTESIAN_POINT ( 'NONE',  ( 65.54000000000000625, 22.82999999999999829, 2.100000000000000089 ) ) ;
#333 = DIRECTION ( 'NONE',  ( 0.000000000000000000, 0.000000000000000000, -1.000000000000000000 ) ) ;
#334 = FACE_OUTER_BOUND ( 'NONE', #207, .T. ) ;
#335 = FILL_AREA_STYLE_COLOUR ( '', #92 ) ;
#336 = PRESENTATION_LAYER_ASSIGNMENT (  '', '', ( #81 ) ) ;
#337 = DIRECTION ( 'NONE',  ( -0.000000000000000000, 0.000000000000000000, 1.000000000000000000 ) ) ;
#338 = DIRECTION ( 'NONE',  ( 0.000000000000000000, 0.000000000000000000, 1.000000000000000000 ) ) ;
#339 = PRODUCT_DEFINITION ( 'UNKNOWN', '', #313, #314 ) ;
#340 = CARTESIAN_POINT ( 'NONE',  ( 0.000000000000000000, 24.37999999999999901, 0.000000000000000000 ) ) ;
#341 = LINE ( 'NONE', #268, #271 ) ;
#342 = VECTOR ( 'NONE', #205, 1000.000000000000000 ) ;
#343 = ADVANCED_FACE ( 'NONE', ( #139, #195 ), #40, .F. ) ;
#344 = FACE_OUTER_BOUND ( 'NONE', #180, .T. ) ;
ENDSEC;
END-ISO-10303-21;
