ISO-10303-21;
HEADER;
FILE_DESCRIPTION (( 'STEP AP214' ),
    '1' );
FILE_NAME ('Lid.STEP',
    '2026-07-27T19:16:11',
    ( '' ),
    ( '' ),
    'SwSTEP 2.0',
    'SolidWorks 2020',
    '' );
FILE_SCHEMA (( 'AUTOMOTIVE_DESIGN' ));
ENDSEC;

DATA;
#1 = ADVANCED_FACE ( 'NONE', ( #931 ), #894, .T. ) ;
#2 = CARTESIAN_POINT ( 'NONE',  ( 0.000000000000000000, 57.99000000000000199, 2.000000000000000000 ) ) ;
#3 = LINE ( 'NONE', #1028, #133 ) ;
#4 = CIRCLE ( 'NONE', #601, 1.500000000000001332 ) ;
#5 = VECTOR ( 'NONE', #1213, 1000.000000000000000 ) ;
#6 =( NAMED_UNIT ( * ) SI_UNIT ( $, .STERADIAN. ) SOLID_ANGLE_UNIT ( ) );
#7 = DIRECTION ( 'NONE',  ( 0.000000000000000000, 1.000000000000000000, 0.000000000000000000 ) ) ;
#8 = ORIENTED_EDGE ( 'NONE', *, *, #1088, .F. ) ;
#9 = ORIENTED_EDGE ( 'NONE', *, *, #480, .T. ) ;
#10 = FACE_OUTER_BOUND ( 'NONE', #846, .T. ) ;
#11 = CARTESIAN_POINT ( 'NONE',  ( 32.99999999999999289, 52.50000000000000000, 7.000000000000000000 ) ) ;
#12 = ORIENTED_EDGE ( 'NONE', *, *, #282, .T. ) ;
#13 = VECTOR ( 'NONE', #515, 1000.000000000000000 ) ;
#14 = VECTOR ( 'NONE', #714, 1000.000000000000000 ) ;
#15 = VERTEX_POINT ( 'NONE', #839 ) ;
#16 = DIRECTION ( 'NONE',  ( 1.000000000000000000, 0.000000000000000000, -0.000000000000000000 ) ) ;
#17 =( LENGTH_UNIT ( ) NAMED_UNIT ( * ) SI_UNIT ( .MILLI., .METRE. ) );
#18 = DIRECTION ( 'NONE',  ( 1.000000000000000000, 0.000000000000000000, 0.000000000000000000 ) ) ;
#19 = VERTEX_POINT ( 'NONE', #128 ) ;
#20 = ORIENTED_EDGE ( 'NONE', *, *, #1171, .F. ) ;
#21 = DIRECTION ( 'NONE',  ( -0.000000000000000000, 0.000000000000000000, 1.000000000000000000 ) ) ;
#22 = LINE ( 'NONE', #414, #1010 ) ;
#23 = CARTESIAN_POINT ( 'NONE',  ( 0.000000000000000000, 60.67999999999999972, 0.000000000000000000 ) ) ;
#24 = ADVANCED_FACE ( 'NONE', ( #1079, #227, #137 ), #429, .T. ) ;
#25 = ORIENTED_EDGE ( 'NONE', *, *, #338, .F. ) ;
#26 = ORIENTED_EDGE ( 'NONE', *, *, #1088, .T. ) ;
#27 = CARTESIAN_POINT ( 'NONE',  ( 83.49999999999998579, 57.99000000000000199, 2.000000000000000000 ) ) ;
#28 = DIRECTION ( 'NONE',  ( 0.000000000000000000, -0.000000000000000000, -1.000000000000000000 ) ) ;
#29 = EDGE_LOOP ( 'NONE', ( #43, #241, #876, #8 ) ) ;
#30 = EDGE_CURVE ( 'NONE', #588, #462, #234, .T. ) ;
#31 = DIRECTION ( 'NONE',  ( 0.000000000000000000, 1.000000000000000000, 0.000000000000000000 ) ) ;
#32 = ORIENTED_EDGE ( 'NONE', *, *, #1142, .F. ) ;
#33 = AXIS2_PLACEMENT_3D ( 'NONE', #1167, #298, #955 ) ;
#34 = VECTOR ( 'NONE', #605, 1000.000000000000000 ) ;
#35 = CARTESIAN_POINT ( 'NONE',  ( 10.50000000000000000, 10.00000000000000000, 0.000000000000000000 ) ) ;
#36 = SHAPE_DEFINITION_REPRESENTATION ( #379, #1129 ) ;
#37 = DIRECTION ( 'NONE',  ( 0.000000000000000000, 0.000000000000000000, -1.000000000000000000 ) ) ;
#38 = ORIENTED_EDGE ( 'NONE', *, *, #632, .F. ) ;
#39 = DIRECTION ( 'NONE',  ( -0.000000000000000000, -0.000000000000000000, -1.000000000000000000 ) ) ;
#40 = ADVANCED_FACE ( 'NONE', ( #186 ), #96, .T. ) ;
#41 = CARTESIAN_POINT ( 'NONE',  ( 2.000000000000000000, 0.000000000000000000, 2.000000000000000000 ) ) ;
#42 = CARTESIAN_POINT ( 'NONE',  ( 0.000000000000000000, 0.000000000000000000, 2.000000000000000000 ) ) ;
#43 = ORIENTED_EDGE ( 'NONE', *, *, #115, .F. ) ;
#44 = VERTEX_POINT ( 'NONE', #670 ) ;
#45 = AXIS2_PLACEMENT_3D ( 'NONE', #1098, #50, #996 ) ;
#46 = DIRECTION ( 'NONE',  ( -0.000000000000000000, -0.000000000000000000, -1.000000000000000000 ) ) ;
#47 = ADVANCED_FACE ( 'NONE', ( #934 ), #954, .T. ) ;
#48 = DIRECTION ( 'NONE',  ( 0.000000000000000000, 0.000000000000000000, -1.000000000000000000 ) ) ;
#49 = AXIS2_PLACEMENT_3D ( 'NONE', #912, #342, #143 ) ;
#50 = DIRECTION ( 'NONE',  ( 0.000000000000000000, 0.000000000000000000, -1.000000000000000000 ) ) ;
#51 = VERTEX_POINT ( 'NONE', #1141 ) ;
#52 = DIRECTION ( 'NONE',  ( 0.000000000000000000, 0.000000000000000000, -1.000000000000000000 ) ) ;
#53 = ORIENTED_EDGE ( 'NONE', *, *, #1026, .T. ) ;
#54 = PLANE ( 'NONE',  #471 ) ;
#55 = AXIS2_PLACEMENT_3D ( 'NONE', #945, #468, #1217 ) ;
#56 = FACE_BOUND ( 'NONE', #349, .T. ) ;
#57 = DIRECTION ( 'NONE',  ( 1.000000000000000000, 0.000000000000000000, 0.000000000000000000 ) ) ;
#58 = EDGE_CURVE ( 'NONE', #146, #1162, #86, .T. ) ;
#59 = ORIENTED_EDGE ( 'NONE', *, *, #139, .F. ) ;
#60 = ORIENTED_EDGE ( 'NONE', *, *, #58, .T. ) ;
#61 = FACE_OUTER_BOUND ( 'NONE', #210, .T. ) ;
#62 = DIRECTION ( 'NONE',  ( -0.000000000000000000, -0.000000000000000000, -1.000000000000000000 ) ) ;
#63 = EDGE_CURVE ( 'NONE', #494, #311, #394, .T. ) ;
#64 = ORIENTED_EDGE ( 'NONE', *, *, #70, .T. ) ;
#65 = FACE_BOUND ( 'NONE', #1191, .T. ) ;
#66 = AXIS2_PLACEMENT_3D ( 'NONE', #1072, #31, #417 ) ;
#67 = CARTESIAN_POINT ( 'NONE',  ( 53.00000000000000000, 52.50000000000000000, 7.000000000000000000 ) ) ;
#68 = DIRECTION ( 'NONE',  ( -0.000000000000000000, 0.000000000000000000, 1.000000000000000000 ) ) ;
#69 = ORIENTED_EDGE ( 'NONE', *, *, #274, .F. ) ;
#70 = EDGE_CURVE ( 'NONE', #51, #648, #290, .T. ) ;
#71 = DIRECTION ( 'NONE',  ( 0.000000000000000000, -1.000000000000000000, 0.000000000000000000 ) ) ;
#72 = EDGE_CURVE ( 'NONE', #811, #882, #885, .T. ) ;
#73 = DIRECTION ( 'NONE',  ( 0.000000000000000000, 0.000000000000000000, 1.000000000000000000 ) ) ;
#74 = VECTOR ( 'NONE', #1180, 1000.000000000000000 ) ;
#75 = FACE_OUTER_BOUND ( 'NONE', #593, .T. ) ;
#76 = CLOSED_SHELL ( 'NONE', ( #817, #518, #1007, #388, #1001, #900, #99, #765, #1179, #1078, #1188, #483, #1203, #129, #545, #638, #419, #24, #40, #1197, #458, #687, #403, #217, #646, #509, #975, #1013, #825, #353, #1216, #1031, #314, #616, #195, #47, #369, #1 ) ) ;
#77 = EDGE_LOOP ( 'NONE', ( #725, #985, #340, #325 ) ) ;
#78 = CARTESIAN_POINT ( 'NONE',  ( 12.00000000000000000, 45.00000000000000000, 10.00000000000000000 ) ) ;
#79 = ORIENTED_EDGE ( 'NONE', *, *, #853, .F. ) ;
#80 = DIRECTION ( 'NONE',  ( -0.000000000000000000, 0.000000000000000000, 1.000000000000000000 ) ) ;
#81 = EDGE_CURVE ( 'NONE', #830, #370, #3, .T. ) ;
#82 = CARTESIAN_POINT ( 'NONE',  ( 2.000000000000000000, 2.000000000000000000, 2.000000000000000000 ) ) ;
#83 = DIRECTION ( 'NONE',  ( -1.000000000000000000, 0.000000000000000000, 0.000000000000000000 ) ) ;
#84 = VERTEX_POINT ( 'NONE', #1135 ) ;
#85 = LINE ( 'NONE', #843, #1074 ) ;
#86 = LINE ( 'NONE', #569, #1125 ) ;
#87 = EDGE_CURVE ( 'NONE', #1212, #936, #1221, .T. ) ;
#88 = CARTESIAN_POINT ( 'NONE',  ( 75.00000000000000000, 30.93999999999999062, 34.48999999999999488 ) ) ;
#89 = EDGE_LOOP ( 'NONE', ( #553, #257 ) ) ;
#90 = CARTESIAN_POINT ( 'NONE',  ( 77.00000000000000000, 10.00000000000000178, 7.000000000000000000 ) ) ;
#91 = DIRECTION ( 'NONE',  ( -1.000000000000000000, -1.082510749439505329E-16, 0.000000000000000000 ) ) ;
#92 = CIRCLE ( 'NONE', #187, 1.499999999999999556 ) ;
#93 = LINE ( 'NONE', #577, #1222 ) ;
#94 = VERTEX_POINT ( 'NONE', #748 ) ;
#95 = CARTESIAN_POINT ( 'NONE',  ( 74.00000000000000000, 10.00000000000000178, 7.000000000000000000 ) ) ;
#96 = PLANE ( 'NONE',  #1206 ) ;
#97 = CARTESIAN_POINT ( 'NONE',  ( 75.00000000000000000, 0.000000000000000000, 3.550000000000000266 ) ) ;
#98 = ORIENTED_EDGE ( 'NONE', *, *, #671, .T. ) ;
#99 = ADVANCED_FACE ( 'NONE', ( #1044 ), #101, .F. ) ;
#100 = DIRECTION ( 'NONE',  ( -0.000000000000000000, -0.000000000000000000, -1.000000000000000000 ) ) ;
#101 = PLANE ( 'NONE',  #732 ) ;
#102 = VECTOR ( 'NONE', #755, 1000.000000000000000 ) ;
#103 = CYLINDRICAL_SURFACE ( 'NONE', #55, 1.500000000000001332 ) ;
#104 = VERTEX_POINT ( 'NONE', #581 ) ;
#105 = EDGE_LOOP ( 'NONE', ( #1041, #698, #607, #235 ) ) ;
#106 = CIRCLE ( 'NONE', #1016, 1.500000000000001332 ) ;
#107 = EDGE_CURVE ( 'NONE', #936, #870, #1033, .T. ) ;
#108 = CARTESIAN_POINT ( 'NONE',  ( 53.00000000000000000, 0.000000000000000000, 7.000000000000000000 ) ) ;
#109 = LINE ( 'NONE', #127, #1021 ) ;
#110 = ORIENTED_EDGE ( 'NONE', *, *, #1117, .T. ) ;
#111 = CIRCLE ( 'NONE', #270, 2.000000000000001776 ) ;
#112 = VECTOR ( 'NONE', #478, 1000.000000000000000 ) ;
#113 = ORIENTED_EDGE ( 'NONE', *, *, #939, .T. ) ;
#114 = DIRECTION ( 'NONE',  ( 1.000000000000000000, 0.000000000000000000, 0.000000000000000000 ) ) ;
#115 = EDGE_CURVE ( 'NONE', #265, #423, #397, .T. ) ;
#116 = CARTESIAN_POINT ( 'NONE',  ( 13.00000000000000178, 57.99000000000000199, 7.000000000000000000 ) ) ;
#117 = ORIENTED_EDGE ( 'NONE', *, *, #1107, .T. ) ;
#118 = EDGE_LOOP ( 'NONE', ( #617, #1009, #406, #1156 ) ) ;
#119 = DIRECTION ( 'NONE',  ( -1.000000000000000000, 0.000000000000000000, 0.000000000000000000 ) ) ;
#120 = CARTESIAN_POINT ( 'NONE',  ( 75.00000000000000000, 61.67999999999999972, 3.550000000000000266 ) ) ;
#121 = AXIS2_PLACEMENT_3D ( 'NONE', #942, #568, #484 ) ;
#122 = ORIENTED_EDGE ( 'NONE', *, *, #853, .T. ) ;
#123 = ORIENTED_EDGE ( 'NONE', *, *, #920, .T. ) ;
#124 = DIRECTION ( 'NONE',  ( -0.000000000000000000, 0.000000000000000000, 1.000000000000000000 ) ) ;
#125 = DIRECTION ( 'NONE',  ( -1.000000000000000000, 0.000000000000000000, 0.000000000000000000 ) ) ;
#126 = PRODUCT_CONTEXT ( 'NONE', #383, 'mechanical' ) ;
#127 = CARTESIAN_POINT ( 'NONE',  ( 0.000000000000000000, 2.499999999999999556, 7.000000000000000000 ) ) ;
#128 = CARTESIAN_POINT ( 'NONE',  ( 12.00000000000000000, 45.00000000000000000, 0.000000000000000000 ) ) ;
#129 = ADVANCED_FACE ( 'NONE', ( #10 ), #938, .T. ) ;
#130 = ORIENTED_EDGE ( 'NONE', *, *, #159, .T. ) ;
#131 = AXIS2_PLACEMENT_3D ( 'NONE', #690, #310, #28 ) ;
#132 = FACE_BOUND ( 'NONE', #858, .T. ) ;
#133 = VECTOR ( 'NONE', #845, 1000.000000000000000 ) ;
#134 = CARTESIAN_POINT ( 'NONE',  ( 32.99999999999999289, 0.000000000000000000, 7.000000000000000000 ) ) ;
#135 = DIRECTION ( 'NONE',  ( 0.000000000000000000, 0.000000000000000000, -1.000000000000000000 ) ) ;
#136 = DIRECTION ( 'NONE',  ( 1.000000000000000000, 0.000000000000000000, 0.000000000000000000 ) ) ;
#137 = FACE_OUTER_BOUND ( 'NONE', #1054, .T. ) ;
#138 = ORIENTED_EDGE ( 'NONE', *, *, #81, .F. ) ;
#139 = EDGE_CURVE ( 'NONE', #594, #686, #761, .T. ) ;
#140 = UNCERTAINTY_MEASURE_WITH_UNIT (LENGTH_MEASURE( 1.000000000000000082E-05 ), #17, 'distance_accuracy_value', 'NONE');
#141 = LINE ( 'NONE', #916, #550 ) ;
#142 = DIRECTION ( 'NONE',  ( 1.000000000000000000, 0.000000000000000000, 0.000000000000000000 ) ) ;
#143 = DIRECTION ( 'NONE',  ( -1.000000000000000000, 0.000000000000000000, 0.000000000000000000 ) ) ;
#144 = FACE_OUTER_BOUND ( 'NONE', #1218, .T. ) ;
#145 = ORIENTED_EDGE ( 'NONE', *, *, #1095, .T. ) ;
#146 = VERTEX_POINT ( 'NONE', #296 ) ;
#147 =( NAMED_UNIT ( * ) PLANE_ANGLE_UNIT ( ) SI_UNIT ( $, .RADIAN. ) );
#148 = CARTESIAN_POINT ( 'NONE',  ( 77.00000000000000000, 45.00000000000000000, 0.000000000000000000 ) ) ;
#149 = ORIENTED_EDGE ( 'NONE', *, *, #654, .F. ) ;
#150 = ORIENTED_EDGE ( 'NONE', *, *, #671, .F. ) ;
#151 = FACE_OUTER_BOUND ( 'NONE', #220, .T. ) ;
#152 = AXIS2_PLACEMENT_3D ( 'NONE', #674, #1022, #767 ) ;
#153 = PLANE ( 'NONE',  #367 ) ;
#154 = EDGE_CURVE ( 'NONE', #416, #345, #197, .T. ) ;
#155 = CARTESIAN_POINT ( 'NONE',  ( 77.00000000000000000, 45.00000000000000000, 7.000000000000000000 ) ) ;
#156 = ORIENTED_EDGE ( 'NONE', *, *, #321, .T. ) ;
#157 = DIRECTION ( 'NONE',  ( 1.000000000000000000, 0.000000000000000000, -0.000000000000000000 ) ) ;
#158 = DIRECTION ( 'NONE',  ( 0.000000000000000000, 0.000000000000000000, -1.000000000000000000 ) ) ;
#159 = EDGE_CURVE ( 'NONE', #648, #1073, #1121, .T. ) ;
#160 = ORIENTED_EDGE ( 'NONE', *, *, #953, .T. ) ;
#161 = LINE ( 'NONE', #1015, #428 ) ;
#162 = AXIS2_PLACEMENT_3D ( 'NONE', #1027, #80, #844 ) ;
#163 = CARTESIAN_POINT ( 'NONE',  ( 32.99999999999999289, 52.50000000000000000, 7.000000000000000000 ) ) ;
#164 = MECHANICAL_DESIGN_GEOMETRIC_PRESENTATION_REPRESENTATION (  '', ( #1159 ), #392 ) ;
#165 = ORIENTED_EDGE ( 'NONE', *, *, #944, .F. ) ;
#166 = EDGE_CURVE ( 'NONE', #51, #265, #849, .T. ) ;
#167 = DIRECTION ( 'NONE',  ( -0.000000000000000000, -0.000000000000000000, -1.000000000000000000 ) ) ;
#168 = CARTESIAN_POINT ( 'NONE',  ( 0.000000000000000000, 62.67999999999999972, 0.000000000000000000 ) ) ;
#169 = EDGE_LOOP ( 'NONE', ( #222, #757, #156, #1030 ) ) ;
#170 = AXIS2_PLACEMENT_3D ( 'NONE', #1154, #401, #775 ) ;
#171 = CARTESIAN_POINT ( 'NONE',  ( 13.00000000000000178, 57.99000000000000199, 2.000000000000000000 ) ) ;
#172 = AXIS2_PLACEMENT_3D ( 'NONE', #82, #37, #466 ) ;
#173 = ORIENTED_EDGE ( 'NONE', *, *, #434, .F. ) ;
#174 = DIRECTION ( 'NONE',  ( -0.000000000000000000, 0.000000000000000000, 1.000000000000000000 ) ) ;
#175 = EDGE_CURVE ( 'NONE', #449, #1105, #1024, .T. ) ;
#176 = CARTESIAN_POINT ( 'NONE',  ( 0.000000000000000000, 2.499999999999999556, 7.000000000000000000 ) ) ;
#177 = DIRECTION ( 'NONE',  ( 0.000000000000000000, 0.000000000000000000, -1.000000000000000000 ) ) ;
#178 = VERTEX_POINT ( 'NONE', #1075 ) ;
#179 = PLANE ( 'NONE',  #121 ) ;
#180 = AXIS2_PLACEMENT_3D ( 'NONE', #253, #807, #1183 ) ;
#181 = DIRECTION ( 'NONE',  ( 0.000000000000000000, 1.000000000000000000, -0.000000000000000000 ) ) ;
#182 = CARTESIAN_POINT ( 'NONE',  ( 75.00000000000000000, 0.000000000000000000, 2.000000000000000000 ) ) ;
#183 = EDGE_LOOP ( 'NONE', ( #399, #487, #393, #773 ) ) ;
#184 = DIRECTION ( 'NONE',  ( -1.000000000000000000, 0.000000000000000000, 0.000000000000000000 ) ) ;
#185 = SURFACE_SIDE_STYLE ('',( #465 ) ) ;
#186 = FACE_OUTER_BOUND ( 'NONE', #1195, .T. ) ;
#187 = AXIS2_PLACEMENT_3D ( 'NONE', #514, #124, #408 ) ;
#188 = EDGE_CURVE ( 'NONE', #228, #370, #1158, .T. ) ;
#189 = VECTOR ( 'NONE', #472, 1000.000000000000114 ) ;
#190 = CARTESIAN_POINT ( 'NONE',  ( 75.50000000000000000, 45.00000000000000000, 7.000000000000000000 ) ) ;
#191 = VERTEX_POINT ( 'NONE', #27 ) ;
#192 = LINE ( 'NONE', #738, #585 ) ;
#193 = DIRECTION ( 'NONE',  ( -1.000000000000000000, 0.000000000000000000, 0.000000000000000000 ) ) ;
#194 = VERTEX_POINT ( 'NONE', #413 ) ;
#195 = ADVANCED_FACE ( 'NONE', ( #590 ), #892, .T. ) ;
#196 = ORIENTED_EDGE ( 'NONE', *, *, #928, .F. ) ;
#197 = LINE ( 'NONE', #269, #982 ) ;
#198 = VECTOR ( 'NONE', #221, 1000.000000000000000 ) ;
#199 = AXIS2_PLACEMENT_3D ( 'NONE', #1209, #760, #848 ) ;
#200 = DIRECTION ( 'NONE',  ( 1.000000000000000000, 0.000000000000000000, 0.000000000000000000 ) ) ;
#201 = CARTESIAN_POINT ( 'NONE',  ( 10.50000000000000000, 45.00000000000000000, 0.000000000000000000 ) ) ;
#202 = EDGE_LOOP ( 'NONE', ( #239, #493, #69, #950 ) ) ;
#203 = ORIENTED_EDGE ( 'NONE', *, *, #30, .F. ) ;
#204 = EDGE_CURVE ( 'NONE', #311, #44, #883, .T. ) ;
#205 = VECTOR ( 'NONE', #703, 1000.000000000000000 ) ;
#206 = DIRECTION ( 'NONE',  ( -0.000000000000000000, 0.000000000000000000, 1.000000000000000000 ) ) ;
#207 = CARTESIAN_POINT ( 'NONE',  ( 10.50000000000000000, 45.00000000000000000, 10.00000000000000000 ) ) ;
#208 = ORIENTED_EDGE ( 'NONE', *, *, #360, .F. ) ;
#209 = CIRCLE ( 'NONE', #696, 1.499999999999999556 ) ;
#210 = EDGE_LOOP ( 'NONE', ( #294, #1048, #812, #444 ) ) ;
#211 = DIRECTION ( 'NONE',  ( -1.000000000000000000, 0.000000000000000000, 0.000000000000000000 ) ) ;
#212 = CARTESIAN_POINT ( 'NONE',  ( 83.49999999999998579, 0.000000000000000000, 2.000000000000000000 ) ) ;
#213 = DIRECTION ( 'NONE',  ( -0.000000000000000000, -0.000000000000000000, 1.000000000000000000 ) ) ;
#214 = EDGE_LOOP ( 'NONE', ( #130, #567, #946, #64 ) ) ;
#215 = VERTEX_POINT ( 'NONE', #327 ) ;
#216 = CARTESIAN_POINT ( 'NONE',  ( 0.000000000000000000, 57.99000000000000199, 7.000000000000000000 ) ) ;
#217 = ADVANCED_FACE ( 'NONE', ( #420 ), #701, .T. ) ;
#218 = CARTESIAN_POINT ( 'NONE',  ( 74.00000000000000000, 10.00000000000000178, 10.00000000000000000 ) ) ;
#219 = AXIS2_PLACEMENT_3D ( 'NONE', #357, #470, #737 ) ;
#220 = EDGE_LOOP ( 'NONE', ( #692, #300, #640, #410 ) ) ;
#221 = DIRECTION ( 'NONE',  ( -0.000000000000000000, -0.000000000000000000, 1.000000000000000000 ) ) ;
#222 = ORIENTED_EDGE ( 'NONE', *, *, #785, .F. ) ;
#223 = CARTESIAN_POINT ( 'NONE',  ( 10.50000000000000000, 45.00000000000000000, 7.000000000000000000 ) ) ;
#224 = PRESENTATION_LAYER_ASSIGNMENT (  '', '', ( #1159 ) ) ;
#225 = LINE ( 'NONE', #983, #941 ) ;
#226 = EDGE_CURVE ( 'NONE', #662, #705, #302, .T. ) ;
#227 = FACE_BOUND ( 'NONE', #89, .T. ) ;
#228 = VERTEX_POINT ( 'NONE', #898 ) ;
#229 = AXIS2_PLACEMENT_3D ( 'NONE', #907, #720, #136 ) ;
#230 = FACE_BOUND ( 'NONE', #500, .T. ) ;
#231 = AXIS2_PLACEMENT_3D ( 'NONE', #134, #959, #506 ) ;
#232 = DIRECTION ( 'NONE',  ( 1.000000000000000000, 0.000000000000000000, 0.000000000000000000 ) ) ;
#233 = LINE ( 'NONE', #809, #613 ) ;
#234 = LINE ( 'NONE', #1049, #866 ) ;
#235 = ORIENTED_EDGE ( 'NONE', *, *, #788, .F. ) ;
#236 = UNCERTAINTY_MEASURE_WITH_UNIT (LENGTH_MEASURE( 1.000000000000000082E-05 ), #948, 'distance_accuracy_value', 'NONE');
#237 = DIRECTION ( 'NONE',  ( 0.000000000000000000, 0.000000000000000000, -1.000000000000000000 ) ) ;
#238 = CARTESIAN_POINT ( 'NONE',  ( 83.49999999999998579, 2.499999999999999556, 7.000000000000000000 ) ) ;
#239 = ORIENTED_EDGE ( 'NONE', *, *, #928, .T. ) ;
#240 = VECTOR ( 'NONE', #625, 1000.000000000000000 ) ;
#241 = ORIENTED_EDGE ( 'NONE', *, *, #395, .F. ) ;
#242 = DIRECTION ( 'NONE',  ( 0.000000000000000000, 0.000000000000000000, -1.000000000000000000 ) ) ;
#243 = EDGE_CURVE ( 'NONE', #963, #84, #440, .T. ) ;
#244 = PRODUCT_DEFINITION_FORMATION_WITH_SPECIFIED_SOURCE ( 'ANY', '', #474, .NOT_KNOWN. ) ;
#245 = CARTESIAN_POINT ( 'NONE',  ( 2.000000000000000000, 0.000000000000000000, 2.000000000000000000 ) ) ;
#246 = ORIENTED_EDGE ( 'NONE', *, *, #377, .T. ) ;
#247 = PLANE ( 'NONE',  #385 ) ;
#248 = CIRCLE ( 'NONE', #575, 1.500000000000001332 ) ;
#249 = EDGE_CURVE ( 'NONE', #904, #879, #248, .T. ) ;
#250 = DIRECTION ( 'NONE',  ( -1.000000000000000000, 0.000000000000000000, 0.000000000000000000 ) ) ;
#251 = DIRECTION ( 'NONE',  ( 0.000000000000000000, 0.000000000000000000, -1.000000000000000000 ) ) ;
#252 = EDGE_LOOP ( 'NONE', ( #295, #758, #599, #122, #745 ) ) ;
#253 = CARTESIAN_POINT ( 'NONE',  ( 75.50000000000000000, 10.00000000000000178, 10.00000000000000000 ) ) ;
#254 = FILL_AREA_STYLE ('',( #1193 ) ) ;
#255 = CARTESIAN_POINT ( 'NONE',  ( 0.000000000000000000, 0.000000000000000000, 7.000000000000000000 ) ) ;
#256 = EDGE_CURVE ( 'NONE', #455, #191, #877, .T. ) ;
#257 = ORIENTED_EDGE ( 'NONE', *, *, #377, .F. ) ;
#258 = PLANE ( 'NONE',  #645 ) ;
#259 = VECTOR ( 'NONE', #854, 1000.000000000000000 ) ;
#260 = VECTOR ( 'NONE', #461, 1000.000000000000000 ) ;
#261 = FACE_OUTER_BOUND ( 'NONE', #712, .T. ) ;
#262 = FACE_BOUND ( 'NONE', #875, .T. ) ;
#263 = ORIENTED_EDGE ( 'NONE', *, *, #551, .T. ) ;
#264 = VECTOR ( 'NONE', #597, 1000.000000000000000 ) ;
#265 = VERTEX_POINT ( 'NONE', #315 ) ;
#266 = LINE ( 'NONE', #921, #387 ) ;
#267 = ORIENTED_EDGE ( 'NONE', *, *, #890, .T. ) ;
#268 = LINE ( 'NONE', #1225, #899 ) ;
#269 = CARTESIAN_POINT ( 'NONE',  ( -6.676926302542867969E-15, 61.67999999999999261, 2.000000000000000000 ) ) ;
#270 = AXIS2_PLACEMENT_3D ( 'NONE', #441, #251, #715 ) ;
#271 = AXIS2_PLACEMENT_3D ( 'NONE', #805, #1181, #1087 ) ;
#272 = DIRECTION ( 'NONE',  ( -0.000000000000000000, -0.000000000000000000, 1.000000000000000000 ) ) ;
#273 = VERTEX_POINT ( 'NONE', #602 ) ;
#274 = EDGE_CURVE ( 'NONE', #936, #146, #1172, .T. ) ;
#275 = LINE ( 'NONE', #168, #1053 ) ;
#276 = DIRECTION ( 'NONE',  ( -0.000000000000000000, -0.000000000000000000, -1.000000000000000000 ) ) ;
#277 = LINE ( 'NONE', #182, #1136 ) ;
#278 = CARTESIAN_POINT ( 'NONE',  ( 86.00000000000000000, 60.67999999999999972, 2.000000000000000000 ) ) ;
#279 = ORIENTED_EDGE ( 'NONE', *, *, #565, .F. ) ;
#280 =( GEOMETRIC_REPRESENTATION_CONTEXT ( 3 ) GLOBAL_UNCERTAINTY_ASSIGNED_CONTEXT ( ( #236 ) ) GLOBAL_UNIT_ASSIGNED_CONTEXT ( ( #948, #560, #909 ) ) REPRESENTATION_CONTEXT ( 'NONE', 'WORKASPACE' ) );
#281 = DIRECTION ( 'NONE',  ( -1.000000000000000000, 0.000000000000000000, 0.000000000000000000 ) ) ;
#282 = EDGE_CURVE ( 'NONE', #1105, #449, #209, .T. ) ;
#283 = VECTOR ( 'NONE', #355, 1000.000000000000000 ) ;
#284 = FILL_AREA_STYLE ('',( #678 ) ) ;
#285 = CARTESIAN_POINT ( 'NONE',  ( 83.99999999999998579, 60.67999999999999972, 2.000000000000000000 ) ) ;
#286 = ORIENTED_EDGE ( 'NONE', *, *, #953, .F. ) ;
#287 = VECTOR ( 'NONE', #1064, 1000.000000000000000 ) ;
#288 = CARTESIAN_POINT ( 'NONE',  ( 2.500000000000001332, 2.499999999999999556, 7.000000000000000000 ) ) ;
#289 = CARTESIAN_POINT ( 'NONE',  ( 73.00000000000000000, 57.99000000000000199, 2.000000000000000000 ) ) ;
#290 = LINE ( 'NONE', #491, #1186 ) ;
#291 = EDGE_CURVE ( 'NONE', #686, #1229, #958, .T. ) ;
#292 = AXIS2_PLACEMENT_3D ( 'NONE', #595, #964, #1029 ) ;
#293 = EDGE_CURVE ( 'NONE', #1118, #94, #92, .T. ) ;
#294 = ORIENTED_EDGE ( 'NONE', *, *, #450, .T. ) ;
#295 = ORIENTED_EDGE ( 'NONE', *, *, #384, .F. ) ;
#296 = CARTESIAN_POINT ( 'NONE',  ( 32.99999999999999289, 57.99000000000000199, 7.000000000000000000 ) ) ;
#297 = CARTESIAN_POINT ( 'NONE',  ( 0.000000000000000000, 0.000000000000000000, 0.000000000000000000 ) ) ;
#298 = DIRECTION ( 'NONE',  ( 0.000000000000000000, 1.000000000000000000, 0.000000000000000000 ) ) ;
#299 = EDGE_CURVE ( 'NONE', #15, #273, #1184, .T. ) ;
#300 = ORIENTED_EDGE ( 'NONE', *, *, #777, .T. ) ;
#301 = ORIENTED_EDGE ( 'NONE', *, *, #700, .T. ) ;
#302 = LINE ( 'NONE', #41, #14 ) ;
#303 = CIRCLE ( 'NONE', #1112, 2.000000000000000000 ) ;
#304 = CARTESIAN_POINT ( 'NONE',  ( 73.00000000000000000, 57.99000000000000199, 7.000000000000000000 ) ) ;
#305 = ORIENTED_EDGE ( 'NONE', *, *, #1069, .F. ) ;
#306 = ORIENTED_EDGE ( 'NONE', *, *, #759, .T. ) ;
#307 = AXIS2_PLACEMENT_3D ( 'NONE', #453, #814, #1005 ) ;
#308 = CARTESIAN_POINT ( 'NONE',  ( 9.000000000000001776, 45.00000000000000000, 10.00000000000000000 ) ) ;
#309 = CARTESIAN_POINT ( 'NONE',  ( 75.50000000000000000, 10.00000000000000178, 0.000000000000000000 ) ) ;
#310 = DIRECTION ( 'NONE',  ( 0.000000000000000000, -1.000000000000000000, 0.000000000000000000 ) ) ;
#311 = VERTEX_POINT ( 'NONE', #425 ) ;
#312 = AXIS2_PLACEMENT_3D ( 'NONE', #375, #756, #1131 ) ;
#313 = ORIENTED_EDGE ( 'NONE', *, *, #291, .F. ) ;
#314 = ADVANCED_FACE ( 'NONE', ( #802 ), #1178, .F. ) ;
#315 = CARTESIAN_POINT ( 'NONE',  ( 86.00000000000000000, 60.67999999999999972, 2.000000000000000000 ) ) ;
#316 = CARTESIAN_POINT ( 'NONE',  ( 13.00000000000000178, 2.499999999999999556, 2.000000000000000000 ) ) ;
#317 = DIRECTION ( 'NONE',  ( 0.000000000000000000, 0.000000000000000000, -1.000000000000000000 ) ) ;
#318 = ORIENTED_EDGE ( 'NONE', *, *, #63, .F. ) ;
#319 = ORIENTED_EDGE ( 'NONE', *, *, #154, .F. ) ;
#320 = DIRECTION ( 'NONE',  ( 0.000000000000000000, 1.000000000000000000, -0.000000000000000000 ) ) ;
#321 = EDGE_CURVE ( 'NONE', #1105, #778, #689, .T. ) ;
#322 = CARTESIAN_POINT ( 'NONE',  ( -6.676926302542867969E-15, 61.67999999999999261, 3.550000000000000266 ) ) ;
#323 = FACE_OUTER_BOUND ( 'NONE', #1052, .T. ) ;
#324 = AXIS2_PLACEMENT_3D ( 'NONE', #804, #158, #639 ) ;
#325 = ORIENTED_EDGE ( 'NONE', *, *, #226, .T. ) ;
#326 = ORIENTED_EDGE ( 'NONE', *, *, #115, .T. ) ;
#327 = CARTESIAN_POINT ( 'NONE',  ( 73.00000000000000000, 2.499999999999999556, 7.000000000000000000 ) ) ;
#328 = PLANE ( 'NONE',  #573 ) ;
#329 = EDGE_LOOP ( 'NONE', ( #1089, #976, #691, #926 ) ) ;
#330 = ORIENTED_EDGE ( 'NONE', *, *, #1126, .F. ) ;
#331 = AXIS2_PLACEMENT_3D ( 'NONE', #856, #7, #405 ) ;
#332 = LINE ( 'NONE', #719, #507 ) ;
#333 = AXIS2_PLACEMENT_3D ( 'NONE', #679, #495, #865 ) ;
#334 =( NAMED_UNIT ( * ) SI_UNIT ( $, .STERADIAN. ) SOLID_ANGLE_UNIT ( ) );
#335 = CARTESIAN_POINT ( 'NONE',  ( 53.00000000000000000, 52.50000000000000000, 2.000000000000000000 ) ) ;
#336 = LINE ( 'NONE', #989, #857 ) ;
#337 = ORIENTED_EDGE ( 'NONE', *, *, #914, .F. ) ;
#338 = EDGE_CURVE ( 'NONE', #476, #1081, #542, .T. ) ;
#339 = LINE ( 'NONE', #608, #1199 ) ;
#340 = ORIENTED_EDGE ( 'NONE', *, *, #596, .F. ) ;
#341 = CARTESIAN_POINT ( 'NONE',  ( 75.00000000000000000, 61.67999999999999972, 3.550000000000000266 ) ) ;
#342 = DIRECTION ( 'NONE',  ( -0.000000000000000000, -0.000000000000000000, 1.000000000000000000 ) ) ;
#343 = EDGE_LOOP ( 'NONE', ( #12, #818, #600, #910 ) ) ;
#344 = VECTOR ( 'NONE', #386, 1000.000000000000000 ) ;
#345 = VERTEX_POINT ( 'NONE', #368 ) ;
#346 = FACE_OUTER_BOUND ( 'NONE', #1196, .T. ) ;
#347 = COLOUR_RGB ( '',0.2980392156862745057, 0.2980392156862745057, 0.2980392156862745057 ) ;
#348 = CARTESIAN_POINT ( 'NONE',  ( 0.000000000000000000, 2.000000000000000000, 2.000000000000000000 ) ) ;
#349 = EDGE_LOOP ( 'NONE', ( #38, #376 ) ) ;
#350 = DIRECTION ( 'NONE',  ( -1.000000000000000000, 0.000000000000000000, 0.000000000000000000 ) ) ;
#351 = AXIS2_PLACEMENT_3D ( 'NONE', #781, #530, #119 ) ;
#352 = VECTOR ( 'NONE', #276, 1000.000000000000000 ) ;
#353 = ADVANCED_FACE ( 'NONE', ( #582 ), #381, .T. ) ;
#354 = FACE_OUTER_BOUND ( 'NONE', #214, .T. ) ;
#355 = DIRECTION ( 'NONE',  ( 1.000000000000000000, 0.000000000000000000, 0.000000000000000000 ) ) ;
#356 = ORIENTED_EDGE ( 'NONE', *, *, #654, .T. ) ;
#357 = CARTESIAN_POINT ( 'NONE',  ( 75.50000000000000000, 45.00000000000000000, 7.000000000000000000 ) ) ;
#358 = DIRECTION ( 'NONE',  ( 0.000000000000000000, 0.000000000000000000, -1.000000000000000000 ) ) ;
#359 = DIRECTION ( 'NONE',  ( 0.000000000000000000, 0.000000000000000000, -1.000000000000000000 ) ) ;
#360 = EDGE_CURVE ( 'NONE', #830, #722, #750, .T. ) ;
#361 = DIRECTION ( 'NONE',  ( -0.000000000000000000, -0.000000000000000000, -1.000000000000000000 ) ) ;
#362 = ORIENTED_EDGE ( 'NONE', *, *, #734, .F. ) ;
#363 = CARTESIAN_POINT ( 'NONE',  ( 0.000000000000000000, 2.000000000000000000, 2.000000000000000000 ) ) ;
#364 = VECTOR ( 'NONE', #746, 1000.000000000000000 ) ;
#365 = LINE ( 'NONE', #1139, #490 ) ;
#366 = ORIENTED_EDGE ( 'NONE', *, *, #1046, .F. ) ;
#367 = AXIS2_PLACEMENT_3D ( 'NONE', #433, #250, #73 ) ;
#368 = CARTESIAN_POINT ( 'NONE',  ( 10.90000000000000036, 61.67999999999999261, 2.000000000000000000 ) ) ;
#369 = ADVANCED_FACE ( 'NONE', ( #1123 ), #562, .T. ) ;
#370 = VERTEX_POINT ( 'NONE', #1223 ) ;
#371 = LINE ( 'NONE', #288, #1115 ) ;
#372 = CARTESIAN_POINT ( 'NONE',  ( 13.00000000000000178, 0.000000000000000000, 2.000000000000000000 ) ) ;
#373 = VECTOR ( 'NONE', #694, 1000.000000000000000 ) ;
#374 = CARTESIAN_POINT ( 'NONE',  ( -0.000000000000000000, 2.499999999999999556, 2.000000000000000000 ) ) ;
#375 = CARTESIAN_POINT ( 'NONE',  ( 0.000000000000000000, 57.99000000000000199, 7.000000000000000000 ) ) ;
#376 = ORIENTED_EDGE ( 'NONE', *, *, #473, .F. ) ;
#377 = EDGE_CURVE ( 'NONE', #594, #583, #591, .T. ) ;
#378 = CARTESIAN_POINT ( 'NONE',  ( 73.00000000000000000, 0.000000000000000000, 2.000000000000000000 ) ) ;
#379 = PRODUCT_DEFINITION_SHAPE ( 'NONE', 'NONE',  #873 ) ;
#380 = CARTESIAN_POINT ( 'NONE',  ( 83.49999999999998579, 0.000000000000000000, 7.000000000000000000 ) ) ;
#381 = PLANE ( 'NONE',  #152 ) ;
#382 = ORIENTED_EDGE ( 'NONE', *, *, #411, .T. ) ;
#383 = APPLICATION_CONTEXT ( 'automotive_design' ) ;
#384 = EDGE_CURVE ( 'NONE', #494, #657, #93, .T. ) ;
#385 = AXIS2_PLACEMENT_3D ( 'NONE', #636, #157, #547 ) ;
#386 = DIRECTION ( 'NONE',  ( -1.000000000000000000, 0.000000000000000000, 0.000000000000000000 ) ) ;
#387 = VECTOR ( 'NONE', #463, 1000.000000000000000 ) ;
#388 = ADVANCED_FACE ( 'NONE', ( #1045 ), #103, .F. ) ;
#389 = CARTESIAN_POINT ( 'NONE',  ( 10.90000000000000036, 61.87999999999998835, 3.550000000000000266 ) ) ;
#390 = LINE ( 'NONE', #171, #260 ) ;
#391 = EDGE_LOOP ( 'NONE', ( #842, #263, #412, #98 ) ) ;
#392 =( GEOMETRIC_REPRESENTATION_CONTEXT ( 3 ) GLOBAL_UNCERTAINTY_ASSIGNED_CONTEXT ( ( #140 ) ) GLOBAL_UNIT_ASSIGNED_CONTEXT ( ( #17, #404, #6 ) ) REPRESENTATION_CONTEXT ( 'NONE', 'WORKASPACE' ) );
#393 = ORIENTED_EDGE ( 'NONE', *, *, #384, .T. ) ;
#394 = LINE ( 'NONE', #389, #189 ) ;
#395 = EDGE_CURVE ( 'NONE', #1073, #265, #475, .T. ) ;
#396 = VECTOR ( 'NONE', #724, 1000.000000000000000 ) ;
#397 = CIRCLE ( 'NONE', #333, 2.000000000000001776 ) ;
#398 = CARTESIAN_POINT ( 'NONE',  ( 83.99999999999998579, 0.000000000000000000, 2.000000000000000000 ) ) ;
#399 = ORIENTED_EDGE ( 'NONE', *, *, #411, .F. ) ;
#400 = ORIENTED_EDGE ( 'NONE', *, *, #72, .F. ) ;
#401 = DIRECTION ( 'NONE',  ( -0.000000000000000000, -0.000000000000000000, -1.000000000000000000 ) ) ;
#402 = CARTESIAN_POINT ( 'NONE',  ( 10.90000000000000036, 62.67999999999999972, 3.550000000000000266 ) ) ;
#403 = ADVANCED_FACE ( 'NONE', ( #660 ), #935, .F. ) ;
#404 =( NAMED_UNIT ( * ) PLANE_ANGLE_UNIT ( ) SI_UNIT ( $, .RADIAN. ) );
#405 = DIRECTION ( 'NONE',  ( 0.000000000000000000, -0.000000000000000000, 1.000000000000000000 ) ) ;
#406 = ORIENTED_EDGE ( 'NONE', *, *, #529, .T. ) ;
#407 = ORIENTED_EDGE ( 'NONE', *, *, #702, .F. ) ;
#408 = DIRECTION ( 'NONE',  ( 1.000000000000000000, 0.000000000000000000, 0.000000000000000000 ) ) ;
#409 = LINE ( 'NONE', #685, #1164 ) ;
#410 = ORIENTED_EDGE ( 'NONE', *, *, #529, .F. ) ;
#411 = EDGE_CURVE ( 'NONE', #1132, #998, #1035, .T. ) ;
#412 = ORIENTED_EDGE ( 'NONE', *, *, #834, .T. ) ;
#413 = CARTESIAN_POINT ( 'NONE',  ( 83.49999999999998579, 2.499999999999999556, 7.000000000000000000 ) ) ;
#414 = CARTESIAN_POINT ( 'NONE',  ( 10.90000000000000036, 61.87999999999998835, 3.550000000000000266 ) ) ;
#415 = FACE_OUTER_BOUND ( 'NONE', #252, .T. ) ;
#416 = VERTEX_POINT ( 'NONE', #851 ) ;
#417 = DIRECTION ( 'NONE',  ( 0.000000000000000000, -0.000000000000000000, 1.000000000000000000 ) ) ;
#418 = EDGE_LOOP ( 'NONE', ( #499, #991, #571, #740, #751, #541, #675, #908 ) ) ;
#419 = ADVANCED_FACE ( 'NONE', ( #1228 ), #762, .F. ) ;
#420 = FACE_OUTER_BOUND ( 'NONE', #1202, .T. ) ;
#421 = CARTESIAN_POINT ( 'NONE',  ( 75.00000000000000000, 61.87999999999998835, 3.550000000000000266 ) ) ;
#422 = DIRECTION ( 'NONE',  ( -0.000000000000000000, -0.000000000000000000, 1.000000000000000000 ) ) ;
#423 = VERTEX_POINT ( 'NONE', #974 ) ;
#424 = ORIENTED_EDGE ( 'NONE', *, *, #488, .F. ) ;
#425 = CARTESIAN_POINT ( 'NONE',  ( 10.90000000000000036, 62.67999999999999972, 2.749999999999991118 ) ) ;
#426 = EDGE_CURVE ( 'NONE', #623, #1162, #1151, .T. ) ;
#427 = CARTESIAN_POINT ( 'NONE',  ( -0.000000000000000000, 2.499999999999999556, 2.000000000000000000 ) ) ;
#428 = VECTOR ( 'NONE', #167, 1000.000000000000000 ) ;
#429 = PLANE ( 'NONE',  #271 ) ;
#430 = VERTEX_POINT ( 'NONE', #11 ) ;
#431 = FACE_OUTER_BOUND ( 'NONE', #118, .T. ) ;
#432 =( GEOMETRIC_REPRESENTATION_CONTEXT ( 3 ) GLOBAL_UNCERTAINTY_ASSIGNED_CONTEXT ( ( #978 ) ) GLOBAL_UNIT_ASSIGNED_CONTEXT ( ( #554, #147, #334 ) ) REPRESENTATION_CONTEXT ( 'NONE', 'WORKASPACE' ) );
#433 = CARTESIAN_POINT ( 'NONE',  ( 86.00000000000000000, 0.000000000000000000, 2.000000000000000000 ) ) ;
#434 = EDGE_CURVE ( 'NONE', #438, #104, #508, .T. ) ;
#435 = DIRECTION ( 'NONE',  ( 1.000000000000000000, 0.000000000000000000, -0.000000000000000000 ) ) ;
#436 = ORIENTED_EDGE ( 'NONE', *, *, #749, .F. ) ;
#437 = CARTESIAN_POINT ( 'NONE',  ( 73.00000000000000000, 2.499999999999999556, 2.000000000000000000 ) ) ;
#438 = VERTEX_POINT ( 'NONE', #612 ) ;
#439 = DIRECTION ( 'NONE',  ( 1.000000000000000000, 1.082510749439505453E-16, 0.000000000000000000 ) ) ;
#440 = CIRCLE ( 'NONE', #677, 1.499999999999999556 ) ;
#441 = CARTESIAN_POINT ( 'NONE',  ( 83.99999999999998579, 60.67999999999999972, 0.000000000000000000 ) ) ;
#442 = ORIENTED_EDGE ( 'NONE', *, *, #291, .T. ) ;
#443 = CARTESIAN_POINT ( 'NONE',  ( 86.00000000000000000, 60.67999999999999972, 0.000000000000000000 ) ) ;
#444 = ORIENTED_EDGE ( 'NONE', *, *, #1062, .T. ) ;
#445 = CARTESIAN_POINT ( 'NONE',  ( -6.676926302542867969E-15, 61.67999999999999261, 3.550000000000000266 ) ) ;
#446 = CARTESIAN_POINT ( 'NONE',  ( 0.000000000000000000, 2.000000000000000000, 0.000000000000000000 ) ) ;
#447 = CARTESIAN_POINT ( 'NONE',  ( 0.000000000000000000, 57.99000000000000199, 7.000000000000000000 ) ) ;
#448 = VECTOR ( 'NONE', #361, 1000.000000000000000 ) ;
#449 = VERTEX_POINT ( 'NONE', #598 ) ;
#450 = EDGE_CURVE ( 'NONE', #215, #517, #798, .T. ) ;
#451 = DIRECTION ( 'NONE',  ( -1.000000000000000000, 0.000000000000000000, 0.000000000000000000 ) ) ;
#452 = APPLICATION_CONTEXT ( 'automotive_design' ) ;
#453 = CARTESIAN_POINT ( 'NONE',  ( 75.50000000000000000, 45.00000000000000000, 10.00000000000000000 ) ) ;
#454 = PLANE ( 'NONE',  #969 ) ;
#455 = VERTEX_POINT ( 'NONE', #1051 ) ;
#456 = CARTESIAN_POINT ( 'NONE',  ( 74.00000000000000000, 45.00000000000000000, 10.00000000000000000 ) ) ;
#457 = AXIS2_PLACEMENT_3D ( 'NONE', #1201, #68, #1194 ) ;
#458 = ADVANCED_FACE ( 'NONE', ( #323 ), #711, .F. ) ;
#459 = AXIS2_PLACEMENT_3D ( 'NONE', #619, #1165, #610 ) ;
#460 = CARTESIAN_POINT ( 'NONE',  ( 74.00000000000000000, 45.00000000000000000, 0.000000000000000000 ) ) ;
#461 = DIRECTION ( 'NONE',  ( -0.000000000000000000, -0.000000000000000000, 1.000000000000000000 ) ) ;
#462 = VERTEX_POINT ( 'NONE', #116 ) ;
#463 = DIRECTION ( 'NONE',  ( -0.000000000000000000, -0.000000000000000000, -1.000000000000000000 ) ) ;
#464 = DIRECTION ( 'NONE',  ( -0.000000000000000000, -0.000000000000000000, -1.000000000000000000 ) ) ;
#465 = SURFACE_STYLE_FILL_AREA ( #284 ) ;
#466 = DIRECTION ( 'NONE',  ( -1.000000000000000000, 0.000000000000000000, 0.000000000000000000 ) ) ;
#467 = EDGE_CURVE ( 'NONE', #1081, #811, #409, .T. ) ;
#468 = DIRECTION ( 'NONE',  ( -0.000000000000000000, -0.000000000000000000, -1.000000000000000000 ) ) ;
#469 = ORIENTED_EDGE ( 'NONE', *, *, #796, .F. ) ;
#470 = DIRECTION ( 'NONE',  ( -0.000000000000000000, 0.000000000000000000, 1.000000000000000000 ) ) ;
#471 = AXIS2_PLACEMENT_3D ( 'NONE', #445, #733, #439 ) ;
#472 = DIRECTION ( 'NONE',  ( 0.000000000000000000, 0.7071067811865474617, -0.7071067811865474617 ) ) ;
#473 = EDGE_CURVE ( 'NONE', #19, #778, #635, .T. ) ;
#474 = PRODUCT ( 'Lid', 'Lid', '', ( #126 ) ) ;
#475 = LINE ( 'NONE', #278, #847 ) ;
#476 = VERTEX_POINT ( 'NONE', #23 ) ;
#477 = LINE ( 'NONE', #1220, #1012 ) ;
#478 = DIRECTION ( 'NONE',  ( 0.000000000000000000, 1.000000000000000000, -0.000000000000000000 ) ) ;
#479 = PLANE ( 'NONE',  #533 ) ;
#480 = EDGE_CURVE ( 'NONE', #215, #194, #109, .T. ) ;
#481 = DIRECTION ( 'NONE',  ( 0.000000000000000000, -1.000000000000000000, 0.000000000000000000 ) ) ;
#482 = ORIENTED_EDGE ( 'NONE', *, *, #880, .F. ) ;
#483 = ADVANCED_FACE ( 'NONE', ( #1077 ), #498, .F. ) ;
#484 = DIRECTION ( 'NONE',  ( 0.000000000000000000, -0.000000000000000000, 1.000000000000000000 ) ) ;
#485 = DIRECTION ( 'NONE',  ( 0.000000000000000000, 1.000000000000000000, 0.000000000000000000 ) ) ;
#486 = LINE ( 'NONE', #163, #448 ) ;
#487 = ORIENTED_EDGE ( 'NONE', *, *, #1102, .T. ) ;
#488 = EDGE_CURVE ( 'NONE', #1067, #191, #225, .T. ) ;
#489 = PRESENTATION_LAYER_ASSIGNMENT (  '', '', ( #780 ) ) ;
#490 = VECTOR ( 'NONE', #838, 1000.000000000000000 ) ;
#491 = CARTESIAN_POINT ( 'NONE',  ( 86.00000000000000000, 2.000000000000000000, 2.000000000000000000 ) ) ;
#492 = CARTESIAN_POINT ( 'NONE',  ( 10.90000000000000036, 61.87999999999998835, 3.550000000000000266 ) ) ;
#493 = ORIENTED_EDGE ( 'NONE', *, *, #58, .F. ) ;
#494 = VERTEX_POINT ( 'NONE', #492 ) ;
#495 = DIRECTION ( 'NONE',  ( -0.000000000000000000, -0.000000000000000000, 1.000000000000000000 ) ) ;
#496 = AXIS2_PLACEMENT_3D ( 'NONE', #988, #707, #523 ) ;
#497 = AXIS2_PLACEMENT_3D ( 'NONE', #855, #684, #766 ) ;
#498 = PLANE ( 'NONE',  #131 ) ;
#499 = ORIENTED_EDGE ( 'NONE', *, *, #606, .F. ) ;
#500 = EDGE_LOOP ( 'NONE', ( #1215, #527, #852, #208 ) ) ;
#501 = CARTESIAN_POINT ( 'NONE',  ( 13.00000000000000178, 0.000000000000000000, 2.000000000000000000 ) ) ;
#502 = DIRECTION ( 'NONE',  ( 0.000000000000000000, -1.000000000000000000, 0.000000000000000000 ) ) ;
#503 = LINE ( 'NONE', #874, #1104 ) ;
#504 = ORIENTED_EDGE ( 'NONE', *, *, #154, .T. ) ;
#505 = EDGE_LOOP ( 'NONE', ( #1124, #661 ) ) ;
#506 = DIRECTION ( 'NONE',  ( 0.000000000000000000, 0.000000000000000000, 1.000000000000000000 ) ) ;
#507 = VECTOR ( 'NONE', #1090, 1000.000000000000000 ) ;
#508 = LINE ( 'NONE', #398, #516 ) ;
#509 = ADVANCED_FACE ( 'NONE', ( #415 ), #782, .F. ) ;
#510 = ORIENTED_EDGE ( 'NONE', *, *, #1142, .T. ) ;
#511 = AXIS2_PLACEMENT_3D ( 'NONE', #808, #1210, #48 ) ;
#512 = FACE_OUTER_BOUND ( 'NONE', #77, .T. ) ;
#513 = ORIENTED_EDGE ( 'NONE', *, *, #1039, .F. ) ;
#514 = CARTESIAN_POINT ( 'NONE',  ( 10.50000000000000000, 10.00000000000000000, 7.000000000000000000 ) ) ;
#515 = DIRECTION ( 'NONE',  ( 0.000000000000000000, 1.000000000000000000, -0.000000000000000000 ) ) ;
#516 = VECTOR ( 'NONE', #422, 1000.000000000000000 ) ;
#517 = VERTEX_POINT ( 'NONE', #304 ) ;
#518 = ADVANCED_FACE ( 'NONE', ( #1057 ), #1065, .F. ) ;
#519 = ORIENTED_EDGE ( 'NONE', *, *, #693, .F. ) ;
#520 = PRODUCT_DEFINITION_CONTEXT ( 'detailed design', #452, 'design' ) ;
#521 = EDGE_CURVE ( 'NONE', #1067, #517, #503, .T. ) ;
#522 = CYLINDRICAL_SURFACE ( 'NONE', #1034, 1.500000000000001332 ) ;
#523 = DIRECTION ( 'NONE',  ( -1.000000000000000000, 0.000000000000000000, 0.000000000000000000 ) ) ;
#524 = CARTESIAN_POINT ( 'NONE',  ( 32.99999999999999289, 57.99000000000000199, 2.000000000000000000 ) ) ;
#525 = CARTESIAN_POINT ( 'NONE',  ( 0.000000000000000000, 0.000000000000000000, 0.000000000000000000 ) ) ;
#526 = ORIENTED_EDGE ( 'NONE', *, *, #702, .T. ) ;
#527 = ORIENTED_EDGE ( 'NONE', *, *, #188, .F. ) ;
#528 = DIRECTION ( 'NONE',  ( 1.000000000000000000, 0.000000000000000000, 0.000000000000000000 ) ) ;
#529 = EDGE_CURVE ( 'NONE', #879, #15, #792, .T. ) ;
#530 = DIRECTION ( 'NONE',  ( 0.000000000000000000, 0.000000000000000000, -1.000000000000000000 ) ) ;
#531 = CYLINDRICAL_SURFACE ( 'NONE', #307, 1.500000000000001332 ) ;
#532 = CARTESIAN_POINT ( 'NONE',  ( 10.90000000000000036, 61.67999999999999261, 3.550000000000000266 ) ) ;
#533 = AXIS2_PLACEMENT_3D ( 'NONE', #850, #1227, #672 ) ;
#534 = ORIENTED_EDGE ( 'NONE', *, *, #87, .F. ) ;
#535 = ORIENTED_EDGE ( 'NONE', *, *, #360, .T. ) ;
#536 = DIRECTION ( 'NONE',  ( -0.000000000000000000, -0.000000000000000000, 1.000000000000000000 ) ) ;
#537 = EDGE_CURVE ( 'NONE', #998, #416, #1070, .T. ) ;
#538 = PLANE ( 'NONE',  #673 ) ;
#539 = CARTESIAN_POINT ( 'NONE',  ( 2.500000000000001332, 0.000000000000000000, 7.000000000000000000 ) ) ;
#540 = ORIENTED_EDGE ( 'NONE', *, *, #293, .F. ) ;
#541 = ORIENTED_EDGE ( 'NONE', *, *, #796, .T. ) ;
#542 = CIRCLE ( 'NONE', #292, 2.000000000000000000 ) ;
#543 = PLANE ( 'NONE',  #973 ) ;
#544 = LINE ( 'NONE', #238, #396 ) ;
#545 = ADVANCED_FACE ( 'NONE', ( #144 ), #328, .T. ) ;
#546 = ORIENTED_EDGE ( 'NONE', *, *, #1026, .F. ) ;
#547 = DIRECTION ( 'NONE',  ( -0.000000000000000000, 0.000000000000000000, -1.000000000000000000 ) ) ;
#548 = FACE_OUTER_BOUND ( 'NONE', #418, .T. ) ;
#549 = FACE_OUTER_BOUND ( 'NONE', #105, .T. ) ;
#550 = VECTOR ( 'NONE', #528, 1000.000000000000000 ) ;
#551 = EDGE_CURVE ( 'NONE', #94, #1118, #730, .T. ) ;
#552 = CIRCLE ( 'NONE', #45, 1.499999999999999556 ) ;
#553 = ORIENTED_EDGE ( 'NONE', *, *, #759, .F. ) ;
#554 =( LENGTH_UNIT ( ) NAMED_UNIT ( * ) SI_UNIT ( .MILLI., .METRE. ) );
#555 = CARTESIAN_POINT ( 'NONE',  ( 2.000000000000000000, 0.000000000000000000, 0.000000000000000000 ) ) ;
#556 = VERTEX_POINT ( 'NONE', #335 ) ;
#557 = FACE_BOUND ( 'NONE', #629, .T. ) ;
#558 = FACE_OUTER_BOUND ( 'NONE', #1174, .T. ) ;
#559 = VECTOR ( 'NONE', #142, 1000.000000000000000 ) ;
#560 =( NAMED_UNIT ( * ) PLANE_ANGLE_UNIT ( ) SI_UNIT ( $, .RADIAN. ) );
#561 = ORIENTED_EDGE ( 'NONE', *, *, #70, .F. ) ;
#562 = CYLINDRICAL_SURFACE ( 'NONE', #1122, 2.000000000000001776 ) ;
#563 = ORIENTED_EDGE ( 'NONE', *, *, #693, .T. ) ;
#564 = CARTESIAN_POINT ( 'NONE',  ( 2.500000000000001332, 57.99000000000000199, 7.000000000000000000 ) ) ;
#565 = EDGE_CURVE ( 'NONE', #763, #462, #233, .T. ) ;
#566 = DIRECTION ( 'NONE',  ( -0.000000000000000000, -0.000000000000000000, -1.000000000000000000 ) ) ;
#567 = ORIENTED_EDGE ( 'NONE', *, *, #395, .T. ) ;
#568 = DIRECTION ( 'NONE',  ( 0.000000000000000000, 1.000000000000000000, 0.000000000000000000 ) ) ;
#569 = CARTESIAN_POINT ( 'NONE',  ( 32.99999999999999289, 57.99000000000000199, 7.000000000000000000 ) ) ;
#570 = EDGE_CURVE ( 'NONE', #1182, #783, #633, .T. ) ;
#571 = ORIENTED_EDGE ( 'NONE', *, *, #890, .F. ) ;
#572 = CARTESIAN_POINT ( 'NONE',  ( 12.00000000000000000, 10.00000000000000000, 10.00000000000000000 ) ) ;
#573 = AXIS2_PLACEMENT_3D ( 'NONE', #447, #823, #1086 ) ;
#574 = DIRECTION ( 'NONE',  ( -0.000000000000000000, 0.000000000000000000, -1.000000000000000000 ) ) ;
#575 = AXIS2_PLACEMENT_3D ( 'NONE', #797, #206, #114 ) ;
#576 = LINE ( 'NONE', #88, #708 ) ;
#577 = CARTESIAN_POINT ( 'NONE',  ( 10.90000000000000036, 0.000000000000000000, 3.550000000000000266 ) ) ;
#578 = EDGE_CURVE ( 'NONE', #879, #904, #770, .T. ) ;
#579 = ORIENTED_EDGE ( 'NONE', *, *, #727, .F. ) ;
#580 = PLANE ( 'NONE',  #162 ) ;
#581 = CARTESIAN_POINT ( 'NONE',  ( 83.99999999999998579, 0.000000000000000000, 2.000000000000000000 ) ) ;
#582 = FACE_OUTER_BOUND ( 'NONE', #787, .T. ) ;
#583 = VERTEX_POINT ( 'NONE', #735 ) ;
#584 = ORIENTED_EDGE ( 'NONE', *, *, #30, .T. ) ;
#585 = VECTOR ( 'NONE', #1127, 1000.000000000000000 ) ;
#586 = DIRECTION ( 'NONE',  ( -0.000000000000000000, -0.000000000000000000, -1.000000000000000000 ) ) ;
#587 = CARTESIAN_POINT ( 'NONE',  ( 73.00000000000000000, 0.000000000000000000, 7.000000000000000000 ) ) ;
#588 = VERTEX_POINT ( 'NONE', #621 ) ;
#589 = EDGE_LOOP ( 'NONE', ( #793, #997, #1152, #630, #614, #1023, #799, #326, #653, #1175, #504, #79 ) ) ;
#590 = FACE_OUTER_BOUND ( 'NONE', #896, .T. ) ;
#591 = CIRCLE ( 'NONE', #884, 1.500000000000001332 ) ;
#592 = DIRECTION ( 'NONE',  ( -1.000000000000000000, 0.000000000000000000, 0.000000000000000000 ) ) ;
#593 = EDGE_LOOP ( 'NONE', ( #110, #795, #534, #113 ) ) ;
#594 = VERTEX_POINT ( 'NONE', #155 ) ;
#595 = CARTESIAN_POINT ( 'NONE',  ( 2.000000000000000000, 60.67999999999999972, 0.000000000000000000 ) ) ;
#596 = EDGE_CURVE ( 'NONE', #662, #104, #815, .T. ) ;
#597 = DIRECTION ( 'NONE',  ( 0.000000000000000000, -1.000000000000000000, 0.000000000000000000 ) ) ;
#598 = CARTESIAN_POINT ( 'NONE',  ( 12.00000000000000000, 45.00000000000000000, 7.000000000000000000 ) ) ;
#599 = ORIENTED_EDGE ( 'NONE', *, *, #1133, .T. ) ;
#600 = ORIENTED_EDGE ( 'NONE', *, *, #473, .T. ) ;
#601 = AXIS2_PLACEMENT_3D ( 'NONE', #1080, #52, #895 ) ;
#602 = CARTESIAN_POINT ( 'NONE',  ( 77.00000000000000000, 10.00000000000000178, 0.000000000000000000 ) ) ;
#603 = AXIS2_PLACEMENT_3D ( 'NONE', #1017, #1134, #281 ) ;
#604 = EDGE_CURVE ( 'NONE', #194, #1189, #544, .T. ) ;
#605 = DIRECTION ( 'NONE',  ( -0.000000000000000000, -0.000000000000000000, -1.000000000000000000 ) ) ;
#606 = EDGE_CURVE ( 'NONE', #476, #1182, #1103, .T. ) ;
#607 = ORIENTED_EDGE ( 'NONE', *, *, #274, .T. ) ;
#608 = CARTESIAN_POINT ( 'NONE',  ( 0.000000000000000000, 52.50000000000000000, 7.000000000000000000 ) ) ;
#609 = ORIENTED_EDGE ( 'NONE', *, *, #467, .F. ) ;
#610 = DIRECTION ( 'NONE',  ( 1.000000000000000000, 0.000000000000000000, 0.000000000000000000 ) ) ;
#611 = DIRECTION ( 'NONE',  ( -1.000000000000000000, -1.082510749439505329E-16, 0.000000000000000000 ) ) ;
#612 = CARTESIAN_POINT ( 'NONE',  ( 83.99999999999998579, 0.000000000000000000, 0.000000000000000000 ) ) ;
#613 = VECTOR ( 'NONE', #57, 1000.000000000000000 ) ;
#614 = ORIENTED_EDGE ( 'NONE', *, *, #596, .T. ) ;
#615 = VECTOR ( 'NONE', #566, 1000.000000000000000 ) ;
#616 = ADVANCED_FACE ( 'NONE', ( #1091 ), #902, .F. ) ;
#617 = ORIENTED_EDGE ( 'NONE', *, *, #777, .F. ) ;
#618 = CARTESIAN_POINT ( 'NONE',  ( 12.00000000000000000, 10.00000000000000000, 0.000000000000000000 ) ) ;
#619 = CARTESIAN_POINT ( 'NONE',  ( 10.50000000000000000, 45.00000000000000000, 7.000000000000000000 ) ) ;
#620 = CARTESIAN_POINT ( 'NONE',  ( 9.000000000000001776, 10.00000000000000000, 7.000000000000000000 ) ) ;
#621 = CARTESIAN_POINT ( 'NONE',  ( 13.00000000000000178, 2.499999999999999556, 7.000000000000000000 ) ) ;
#622 = ORIENTED_EDGE ( 'NONE', *, *, #834, .F. ) ;
#623 = VERTEX_POINT ( 'NONE', #628 ) ;
#624 = EDGE_CURVE ( 'NONE', #929, #1073, #111, .T. ) ;
#625 = DIRECTION ( 'NONE',  ( -0.000000000000000000, -0.000000000000000000, -1.000000000000000000 ) ) ;
#626 = DIRECTION ( 'NONE',  ( 1.000000000000000000, 0.000000000000000000, 0.000000000000000000 ) ) ;
#627 = VECTOR ( 'NONE', #39, 1000.000000000000000 ) ;
#628 = CARTESIAN_POINT ( 'NONE',  ( 32.99999999999999289, 52.50000000000000000, 2.000000000000000000 ) ) ;
#629 = EDGE_LOOP ( 'NONE', ( #540, #704 ) ) ;
#630 = ORIENTED_EDGE ( 'NONE', *, *, #944, .T. ) ;
#631 = CARTESIAN_POINT ( 'NONE',  ( 53.00000000000000000, 52.50000000000000000, 7.000000000000000000 ) ) ;
#632 = EDGE_CURVE ( 'NONE', #778, #19, #917, .T. ) ;
#633 = LINE ( 'NONE', #348, #74 ) ;
#634 = ORIENTED_EDGE ( 'NONE', *, *, #256, .F. ) ;
#635 = CIRCLE ( 'NONE', #1204, 1.499999999999999556 ) ;
#636 = CARTESIAN_POINT ( 'NONE',  ( 75.00000000000000000, 0.000000000000000000, 3.550000000000000266 ) ) ;
#637 = CARTESIAN_POINT ( 'NONE',  ( 0.000000000000000000, 0.000000000000000000, 0.000000000000000000 ) ) ;
#638 = ADVANCED_FACE ( 'NONE', ( #913 ), #454, .F. ) ;
#639 = DIRECTION ( 'NONE',  ( -1.000000000000000000, 0.000000000000000000, 0.000000000000000000 ) ) ;
#640 = ORIENTED_EDGE ( 'NONE', *, *, #1126, .T. ) ;
#641 = CARTESIAN_POINT ( 'NONE',  ( 2.500000000000001332, 57.99000000000000199, 7.000000000000000000 ) ) ;
#642 = CARTESIAN_POINT ( 'NONE',  ( 0.000000000000000000, 0.000000000000000000, 0.000000000000000000 ) ) ;
#643 = DIRECTION ( 'NONE',  ( -0.000000000000000000, 0.000000000000000000, 1.000000000000000000 ) ) ;
#644 = VECTOR ( 'NONE', #611, 1000.000000000000000 ) ;
#645 = AXIS2_PLACEMENT_3D ( 'NONE', #1025, #174, #649 ) ;
#646 = ADVANCED_FACE ( 'NONE', ( #549 ), #918, .T. ) ;
#647 = DIRECTION ( 'NONE',  ( 0.000000000000000000, 0.000000000000000000, -1.000000000000000000 ) ) ;
#648 = VERTEX_POINT ( 'NONE', #893 ) ;
#649 = DIRECTION ( 'NONE',  ( 1.000000000000000000, 0.000000000000000000, 0.000000000000000000 ) ) ;
#650 = DIRECTION ( 'NONE',  ( -0.000000000000000000, -0.000000000000000000, -1.000000000000000000 ) ) ;
#651 = LINE ( 'NONE', #1011, #922 ) ;
#652 = EDGE_LOOP ( 'NONE', ( #305, #313 ) ) ;
#653 = ORIENTED_EDGE ( 'NONE', *, *, #1211, .T. ) ;
#654 = EDGE_CURVE ( 'NONE', #1071, #1189, #1205, .T. ) ;
#655 = DIRECTION ( 'NONE',  ( 0.000000000000000000, -1.000000000000000000, 0.000000000000000000 ) ) ;
#656 = AXIS2_PLACEMENT_3D ( 'NONE', #207, #961, #592 ) ;
#657 = VERTEX_POINT ( 'NONE', #532 ) ;
#658 = CARTESIAN_POINT ( 'NONE',  ( 2.500000000000001332, 57.99000000000000199, 2.000000000000000000 ) ) ;
#659 = DIRECTION ( 'NONE',  ( 0.000000000000000000, 1.000000000000000000, 0.000000000000000000 ) ) ;
#660 = FACE_OUTER_BOUND ( 'NONE', #202, .T. ) ;
#661 = ORIENTED_EDGE ( 'NONE', *, *, #249, .F. ) ;
#662 = VERTEX_POINT ( 'NONE', #245 ) ;
#663 = DIRECTION ( 'NONE',  ( 0.000000000000000000, 1.000000000000000000, 0.000000000000000000 ) ) ;
#664 = PRESENTATION_STYLE_ASSIGNMENT (( #835 ) ) ;
#665 = DIRECTION ( 'NONE',  ( 1.000000000000000000, 0.000000000000000000, 0.000000000000000000 ) ) ;
#666 = VECTOR ( 'NONE', #1198, 1000.000000000000000 ) ;
#667 = EDGE_LOOP ( 'NONE', ( #977, #366, #1207, #1138 ) ) ;
#668 = COLOUR_RGB ( '',0.2980392156862745057, 0.2980392156862745057, 0.2980392156862745057 ) ;
#669 = CARTESIAN_POINT ( 'NONE',  ( 10.50000000000000000, 10.00000000000000000, 10.00000000000000000 ) ) ;
#670 = CARTESIAN_POINT ( 'NONE',  ( 75.00000000000000000, 62.67999999999999972, 2.749999999999991118 ) ) ;
#671 = EDGE_CURVE ( 'NONE', #84, #963, #552, .T. ) ;
#672 = DIRECTION ( 'NONE',  ( 0.000000000000000000, 0.000000000000000000, 1.000000000000000000 ) ) ;
#673 = AXIS2_PLACEMENT_3D ( 'NONE', #637, #359, #995 ) ;
#674 = CARTESIAN_POINT ( 'NONE',  ( 0.000000000000000000, 61.87999999999998835, 3.550000000000000266 ) ) ;
#675 = ORIENTED_EDGE ( 'NONE', *, *, #1163, .F. ) ;
#676 = CYLINDRICAL_SURFACE ( 'NONE', #764, 1.499999999999999556 ) ;
#677 = AXIS2_PLACEMENT_3D ( 'NONE', #35, #1083, #1063 ) ;
#678 = FILL_AREA_STYLE_COLOUR ( '', #668 ) ;
#679 = CARTESIAN_POINT ( 'NONE',  ( 83.99999999999998579, 60.67999999999999972, 2.000000000000000000 ) ) ;
#680 = PRODUCT_RELATED_PRODUCT_CATEGORY ( 'part', '', ( #474 ) ) ;
#681 = DIRECTION ( 'NONE',  ( -0.000000000000000000, 0.000000000000000000, 1.000000000000000000 ) ) ;
#682 = ORIENTED_EDGE ( 'NONE', *, *, #243, .F. ) ;
#683 = ORIENTED_EDGE ( 'NONE', *, *, #450, .F. ) ;
#684 = DIRECTION ( 'NONE',  ( -0.000000000000000000, -0.000000000000000000, 1.000000000000000000 ) ) ;
#685 = CARTESIAN_POINT ( 'NONE',  ( 2.000000000000000000, 62.67999999999999972, 2.000000000000000000 ) ) ;
#686 = VERTEX_POINT ( 'NONE', #148 ) ;
#687 = ADVANCED_FACE ( 'NONE', ( #75 ), #479, .F. ) ;
#688 = VERTEX_POINT ( 'NONE', #1020 ) ;
#689 = LINE ( 'NONE', #308, #373 ) ;
#690 = CARTESIAN_POINT ( 'NONE',  ( 0.000000000000000000, 62.67999999999999972, 2.000000000000000000 ) ) ;
#691 = ORIENTED_EDGE ( 'NONE', *, *, #606, .T. ) ;
#692 = ORIENTED_EDGE ( 'NONE', *, *, #578, .T. ) ;
#693 = EDGE_CURVE ( 'NONE', #44, #1132, #576, .T. ) ;
#694 = DIRECTION ( 'NONE',  ( -0.000000000000000000, -0.000000000000000000, -1.000000000000000000 ) ) ;
#695 = DIRECTION ( 'NONE',  ( 0.000000000000000000, 1.000000000000000000, -0.000000000000000000 ) ) ;
#696 = AXIS2_PLACEMENT_3D ( 'NONE', #223, #21, #232 ) ;
#697 = DIRECTION ( 'NONE',  ( -0.000000000000000000, 0.000000000000000000, -1.000000000000000000 ) ) ;
#698 = ORIENTED_EDGE ( 'NONE', *, *, #87, .T. ) ;
#699 = ORIENTED_EDGE ( 'NONE', *, *, #293, .T. ) ;
#700 = EDGE_CURVE ( 'NONE', #370, #462, #390, .T. ) ;
#701 = PLANE ( 'NONE',  #231 ) ;
#702 = EDGE_CURVE ( 'NONE', #430, #623, #486, .T. ) ;
#703 = DIRECTION ( 'NONE',  ( -0.000000000000000000, -0.000000000000000000, 1.000000000000000000 ) ) ;
#704 = ORIENTED_EDGE ( 'NONE', *, *, #551, .F. ) ;
#705 = VERTEX_POINT ( 'NONE', #555 ) ;
#706 = VECTOR ( 'NONE', #647, 1000.000000000000000 ) ;
#707 = DIRECTION ( 'NONE',  ( 0.000000000000000000, 0.000000000000000000, -1.000000000000000000 ) ) ;
#708 = VECTOR ( 'NONE', #1143, 1000.000000000000114 ) ;
#709 = CARTESIAN_POINT ( 'NONE',  ( 53.00000000000000000, 0.000000000000000000, 2.000000000000000000 ) ) ;
#710 = EDGE_CURVE ( 'NONE', #722, #228, #1116, .T. ) ;
#711 = PLANE ( 'NONE',  #33 ) ;
#712 = EDGE_LOOP ( 'NONE', ( #699, #816, #1003, #622 ) ) ;
#713 = ORIENTED_EDGE ( 'NONE', *, *, #788, .T. ) ;
#714 = DIRECTION ( 'NONE',  ( 0.000000000000000000, 0.000000000000000000, -1.000000000000000000 ) ) ;
#715 = DIRECTION ( 'NONE',  ( -1.000000000000000000, 0.000000000000000000, 0.000000000000000000 ) ) ;
#716 = ORIENTED_EDGE ( 'NONE', *, *, #906, .F. ) ;
#717 = VECTOR ( 'NONE', #659, 1000.000000000000000 ) ;
#718 = ORIENTED_EDGE ( 'NONE', *, *, #700, .F. ) ;
#719 = CARTESIAN_POINT ( 'NONE',  ( 0.000000000000000000, 57.99000000000000199, 7.000000000000000000 ) ) ;
#720 = DIRECTION ( 'NONE',  ( -0.000000000000000000, 0.000000000000000000, 1.000000000000000000 ) ) ;
#721 = ORIENTED_EDGE ( 'NONE', *, *, #994, .T. ) ;
#722 = VERTEX_POINT ( 'NONE', #1130 ) ;
#723 = VECTOR ( 'NONE', #1177, 1000.000000000000000 ) ;
#724 = DIRECTION ( 'NONE',  ( -0.000000000000000000, -0.000000000000000000, -1.000000000000000000 ) ) ;
#725 = ORIENTED_EDGE ( 'NONE', *, *, #1163, .T. ) ;
#726 = FACE_OUTER_BOUND ( 'NONE', #774, .T. ) ;
#727 = EDGE_CURVE ( 'NONE', #903, #416, #277, .T. ) ;
#728 = CARTESIAN_POINT ( 'NONE',  ( 73.00000000000000000, 0.000000000000000000, 2.000000000000000000 ) ) ;
#729 = DIRECTION ( 'NONE',  ( 1.000000000000000000, 0.000000000000000000, 0.000000000000000000 ) ) ;
#730 = CIRCLE ( 'NONE', #457, 1.499999999999999556 ) ;
#731 = ORIENTED_EDGE ( 'NONE', *, *, #1133, .F. ) ;
#732 = AXIS2_PLACEMENT_3D ( 'NONE', #861, #663, #771 ) ;
#733 = DIRECTION ( 'NONE',  ( 1.082510749439505453E-16, -1.000000000000000000, 0.000000000000000000 ) ) ;
#734 = EDGE_CURVE ( 'NONE', #583, #1229, #1219, .T. ) ;
#735 = CARTESIAN_POINT ( 'NONE',  ( 74.00000000000000000, 45.00000000000000000, 7.000000000000000000 ) ) ;
#736 = EDGE_LOOP ( 'NONE', ( #1114, #752, #356, #1019 ) ) ;
#737 = DIRECTION ( 'NONE',  ( 1.000000000000000000, 0.000000000000000000, 0.000000000000000000 ) ) ;
#738 = CARTESIAN_POINT ( 'NONE',  ( 0.000000000000000000, 62.67999999999999972, 2.000000000000000000 ) ) ;
#739 = FACE_OUTER_BOUND ( 'NONE', #329, .T. ) ;
#740 = ORIENTED_EDGE ( 'NONE', *, *, #624, .T. ) ;
#741 = EDGE_CURVE ( 'NONE', #44, #903, #266, .T. ) ;
#742 = AXIS2_PLACEMENT_3D ( 'NONE', #1096, #242, #999 ) ;
#743 = DIRECTION ( 'NONE',  ( 0.000000000000000000, -1.000000000000000000, 0.000000000000000000 ) ) ;
#744 = CIRCLE ( 'NONE', #199, 2.000000000000000000 ) ;
#745 = ORIENTED_EDGE ( 'NONE', *, *, #994, .F. ) ;
#746 = DIRECTION ( 'NONE',  ( -0.000000000000000000, -0.000000000000000000, -1.000000000000000000 ) ) ;
#747 = CARTESIAN_POINT ( 'NONE',  ( 53.00000000000000000, 57.99000000000000199, 2.000000000000000000 ) ) ;
#748 = CARTESIAN_POINT ( 'NONE',  ( 12.00000000000000000, 10.00000000000000000, 7.000000000000000000 ) ) ;
#749 = EDGE_CURVE ( 'NONE', #763, #688, #927, .T. ) ;
#750 = LINE ( 'NONE', #1144, #1146 ) ;
#751 = ORIENTED_EDGE ( 'NONE', *, *, #159, .F. ) ;
#752 = ORIENTED_EDGE ( 'NONE', *, *, #1062, .F. ) ;
#753 = DIRECTION ( 'NONE',  ( -0.000000000000000000, -0.000000000000000000, -1.000000000000000000 ) ) ;
#754 = DIRECTION ( 'NONE',  ( 1.000000000000000000, 0.000000000000000000, 0.000000000000000000 ) ) ;
#755 = DIRECTION ( 'NONE',  ( 1.000000000000000000, 0.000000000000000000, 0.000000000000000000 ) ) ;
#756 = DIRECTION ( 'NONE',  ( 0.000000000000000000, -1.000000000000000000, 0.000000000000000000 ) ) ;
#757 = ORIENTED_EDGE ( 'NONE', *, *, #175, .T. ) ;
#758 = ORIENTED_EDGE ( 'NONE', *, *, #63, .T. ) ;
#759 = EDGE_CURVE ( 'NONE', #583, #594, #822, .T. ) ;
#760 = DIRECTION ( 'NONE',  ( 0.000000000000000000, 0.000000000000000000, -1.000000000000000000 ) ) ;
#761 = LINE ( 'NONE', #1149, #615 ) ;
#762 = PLANE ( 'NONE',  #331 ) ;
#763 = VERTEX_POINT ( 'NONE', #564 ) ;
#764 = AXIS2_PLACEMENT_3D ( 'NONE', #669, #100, #184 ) ;
#765 = ADVANCED_FACE ( 'NONE', ( #557, #1110, #1208 ), #258, .T. ) ;
#766 = DIRECTION ( 'NONE',  ( -1.000000000000000000, 0.000000000000000000, 0.000000000000000000 ) ) ;
#767 = DIRECTION ( 'NONE',  ( 1.000000000000000000, 0.000000000000000000, 0.000000000000000000 ) ) ;
#768 = EDGE_LOOP ( 'NONE', ( #952, #1047 ) ) ;
#769 = ORIENTED_EDGE ( 'NONE', *, *, #565, .T. ) ;
#770 = CIRCLE ( 'NONE', #229, 1.500000000000001332 ) ;
#771 = DIRECTION ( 'NONE',  ( 0.000000000000000000, -0.000000000000000000, 1.000000000000000000 ) ) ;
#772 = DIRECTION ( 'NONE',  ( 1.000000000000000000, 0.000000000000000000, 0.000000000000000000 ) ) ;
#773 = ORIENTED_EDGE ( 'NONE', *, *, #1107, .F. ) ;
#774 = EDGE_LOOP ( 'NONE', ( #1224, #563, #382, #863, #579 ) ) ;
#775 = DIRECTION ( 'NONE',  ( -1.000000000000000000, 0.000000000000000000, 0.000000000000000000 ) ) ;
#776 = DIRECTION ( 'NONE',  ( 1.000000000000000000, 0.000000000000000000, -0.000000000000000000 ) ) ;
#777 = EDGE_CURVE ( 'NONE', #904, #273, #161, .T. ) ;
#778 = VERTEX_POINT ( 'NONE', #837 ) ;
#779 = ORIENTED_EDGE ( 'NONE', *, *, #188, .T. ) ;
#780 = STYLED_ITEM ( 'NONE', ( #1018 ), #1061 ) ;
#781 = CARTESIAN_POINT ( 'NONE',  ( 75.50000000000000000, 10.00000000000000178, 0.000000000000000000 ) ) ;
#782 = PLANE ( 'NONE',  #980 ) ;
#783 = VERTEX_POINT ( 'NONE', #363 ) ;
#784 = AXIS2_PLACEMENT_3D ( 'NONE', #297, #1050, #200 ) ;
#785 = EDGE_CURVE ( 'NONE', #449, #19, #1119, .T. ) ;
#786 = SURFACE_STYLE_USAGE ( .BOTH. , #185 ) ;
#787 = EDGE_LOOP ( 'NONE', ( #519, #915, #318, #800 ) ) ;
#788 = EDGE_CURVE ( 'NONE', #430, #146, #85, .T. ) ;
#789 = CARTESIAN_POINT ( 'NONE',  ( 2.000000000000000000, 60.67999999999999972, 2.000000000000000000 ) ) ;
#790 = CARTESIAN_POINT ( 'NONE',  ( 9.000000000000001776, 45.00000000000000000, 7.000000000000000000 ) ) ;
#791 = VECTOR ( 'NONE', #966, 1000.000000000000000 ) ;
#792 = LINE ( 'NONE', #218, #791 ) ;
#793 = ORIENTED_EDGE ( 'NONE', *, *, #880, .T. ) ;
#794 = CARTESIAN_POINT ( 'NONE',  ( 2.000000000000000000, 62.67999999999999972, 0.000000000000000000 ) ) ;
#795 = ORIENTED_EDGE ( 'NONE', *, *, #107, .F. ) ;
#796 = EDGE_CURVE ( 'NONE', #648, #438, #859, .T. ) ;
#797 = CARTESIAN_POINT ( 'NONE',  ( 75.50000000000000000, 10.00000000000000178, 7.000000000000000000 ) ) ;
#798 = LINE ( 'NONE', #587, #13 ) ;
#799 = ORIENTED_EDGE ( 'NONE', *, *, #166, .T. ) ;
#800 = ORIENTED_EDGE ( 'NONE', *, *, #1102, .F. ) ;
#801 = CARTESIAN_POINT ( 'NONE',  ( 53.00000000000000000, 57.99000000000000199, 7.000000000000000000 ) ) ;
#802 = FACE_OUTER_BOUND ( 'NONE', #169, .T. ) ;
#803 = VECTOR ( 'NONE', #464, 1000.000000000000000 ) ;
#804 = CARTESIAN_POINT ( 'NONE',  ( 10.50000000000000000, 45.00000000000000000, 0.000000000000000000 ) ) ;
#805 = CARTESIAN_POINT ( 'NONE',  ( 0.000000000000000000, 0.000000000000000000, 7.000000000000000000 ) ) ;
#806 = ORIENTED_EDGE ( 'NONE', *, *, #537, .F. ) ;
#807 = DIRECTION ( 'NONE',  ( -0.000000000000000000, -0.000000000000000000, -1.000000000000000000 ) ) ;
#808 = CARTESIAN_POINT ( 'NONE',  ( 0.000000000000000000, 0.000000000000000000, 2.000000000000000000 ) ) ;
#809 = CARTESIAN_POINT ( 'NONE',  ( 0.000000000000000000, 57.99000000000000199, 7.000000000000000000 ) ) ;
#810 = AXIS2_PLACEMENT_3D ( 'NONE', #1108, #62, #1187 ) ;
#811 = VERTEX_POINT ( 'NONE', #1037 ) ;
#812 = ORIENTED_EDGE ( 'NONE', *, *, #920, .F. ) ;
#813 = CARTESIAN_POINT ( 'NONE',  ( 10.90000000000000036, 61.67999999999999261, 3.550000000000000266 ) ) ;
#814 = DIRECTION ( 'NONE',  ( -0.000000000000000000, -0.000000000000000000, -1.000000000000000000 ) ) ;
#815 = LINE ( 'NONE', #42, #924 ) ;
#816 = ORIENTED_EDGE ( 'NONE', *, *, #860, .T. ) ;
#817 = ADVANCED_FACE ( 'NONE', ( #261 ), #676, .F. ) ;
#818 = ORIENTED_EDGE ( 'NONE', *, *, #785, .T. ) ;
#819 = CARTESIAN_POINT ( 'NONE',  ( 83.99999999999998579, 62.67999999999999972, 0.000000000000000000 ) ) ;
#820 = VECTOR ( 'NONE', #1032, 1000.000000000000000 ) ;
#821 = DIRECTION ( 'NONE',  ( 1.000000000000000000, 0.000000000000000000, 0.000000000000000000 ) ) ;
#822 = CIRCLE ( 'NONE', #219, 1.500000000000001332 ) ;
#823 = DIRECTION ( 'NONE',  ( 0.000000000000000000, 1.000000000000000000, 0.000000000000000000 ) ) ;
#824 = ORIENTED_EDGE ( 'NONE', *, *, #1069, .T. ) ;
#825 = ADVANCED_FACE ( 'NONE', ( #833 ), #580, .T. ) ;
#826 = CYLINDRICAL_SURFACE ( 'NONE', #180, 1.500000000000001332 ) ;
#827 = VECTOR ( 'NONE', #695, 1000.000000000000000 ) ;
#828 = DIRECTION ( 'NONE',  ( 1.000000000000000000, 0.000000000000000000, 0.000000000000000000 ) ) ;
#829 = VECTOR ( 'NONE', #1055, 1000.000000000000000 ) ;
#830 = VERTEX_POINT ( 'NONE', #658 ) ;
#831 = AXIS2_PLACEMENT_3D ( 'NONE', #380, #16, #574 ) ;
#832 = CARTESIAN_POINT ( 'NONE',  ( 2.500000000000001332, 0.000000000000000000, 7.000000000000000000 ) ) ;
#833 = FACE_OUTER_BOUND ( 'NONE', #183, .T. ) ;
#834 = EDGE_CURVE ( 'NONE', #1118, #84, #477, .T. ) ;
#835 = SURFACE_STYLE_USAGE ( .BOTH. , #923 ) ;
#836 = ORIENTED_EDGE ( 'NONE', *, *, #204, .T. ) ;
#837 = CARTESIAN_POINT ( 'NONE',  ( 9.000000000000001776, 45.00000000000000000, 0.000000000000000000 ) ) ;
#838 = DIRECTION ( 'NONE',  ( 0.000000000000000000, -1.000000000000000000, 0.000000000000000000 ) ) ;
#839 = CARTESIAN_POINT ( 'NONE',  ( 74.00000000000000000, 10.00000000000000178, 0.000000000000000000 ) ) ;
#840 = MECHANICAL_DESIGN_GEOMETRIC_PRESENTATION_REPRESENTATION (  '', ( #780 ), #280 ) ;
#841 = DIRECTION ( 'NONE',  ( 0.000000000000000000, -1.000000000000000000, 0.000000000000000000 ) ) ;
#842 = ORIENTED_EDGE ( 'NONE', *, *, #860, .F. ) ;
#843 = CARTESIAN_POINT ( 'NONE',  ( 32.99999999999999289, 0.000000000000000000, 7.000000000000000000 ) ) ;
#844 = DIRECTION ( 'NONE',  ( 1.000000000000000000, 0.000000000000000000, 0.000000000000000000 ) ) ;
#845 = DIRECTION ( 'NONE',  ( 1.000000000000000000, 0.000000000000000000, 0.000000000000000000 ) ) ;
#846 = EDGE_LOOP ( 'NONE', ( #32, #634, #145, #992 ) ) ;
#847 = VECTOR ( 'NONE', #272, 1000.000000000000000 ) ;
#848 = DIRECTION ( 'NONE',  ( -1.000000000000000000, 0.000000000000000000, 0.000000000000000000 ) ) ;
#849 = LINE ( 'NONE', #943, #1085 ) ;
#850 = CARTESIAN_POINT ( 'NONE',  ( 53.00000000000000000, 0.000000000000000000, 7.000000000000000000 ) ) ;
#851 = CARTESIAN_POINT ( 'NONE',  ( 75.00000000000000000, 61.67999999999999972, 2.000000000000000000 ) ) ;
#852 = ORIENTED_EDGE ( 'NONE', *, *, #710, .F. ) ;
#853 = EDGE_CURVE ( 'NONE', #178, #345, #365, .T. ) ;
#854 = DIRECTION ( 'NONE',  ( 0.000000000000000000, 1.000000000000000000, -0.000000000000000000 ) ) ;
#855 = CARTESIAN_POINT ( 'NONE',  ( 2.000000000000000000, 60.67999999999999972, 2.000000000000000000 ) ) ;
#856 = CARTESIAN_POINT ( 'NONE',  ( 0.000000000000000000, 2.499999999999999556, 7.000000000000000000 ) ) ;
#857 = VECTOR ( 'NONE', #502, 1000.000000000000000 ) ;
#858 = EDGE_LOOP ( 'NONE', ( #546, #1168, #196, #1100 ) ) ;
#859 = CIRCLE ( 'NONE', #603, 2.000000000000001776 ) ;
#860 = EDGE_CURVE ( 'NONE', #94, #963, #1214, .T. ) ;
#861 = CARTESIAN_POINT ( 'NONE',  ( 0.000000000000000000, 2.499999999999999556, 7.000000000000000000 ) ) ;
#862 = ORIENTED_EDGE ( 'NONE', *, *, #256, .T. ) ;
#863 = ORIENTED_EDGE ( 'NONE', *, *, #537, .T. ) ;
#864 = VECTOR ( 'NONE', #1155, 1000.000000000000000 ) ;
#865 = DIRECTION ( 'NONE',  ( -1.000000000000000000, 0.000000000000000000, 0.000000000000000000 ) ) ;
#866 = VECTOR ( 'NONE', #181, 1000.000000000000000 ) ;
#867 = EDGE_CURVE ( 'NONE', #688, #722, #371, .T. ) ;
#868 = LINE ( 'NONE', #402, #287 ) ;
#869 = CARTESIAN_POINT ( 'NONE',  ( 10.90000000000000036, 0.000000000000000000, 3.550000000000000266 ) ) ;
#870 = VERTEX_POINT ( 'NONE', #747 ) ;
#871 = EDGE_LOOP ( 'NONE', ( #267, #1145, #482, #731, #836, #940, #1092, #26 ) ) ;
#872 = DIRECTION ( 'NONE',  ( -0.000000000000000000, -0.000000000000000000, -1.000000000000000000 ) ) ;
#873 = PRODUCT_DEFINITION ( 'UNKNOWN', '', #244, #520 ) ;
#874 = CARTESIAN_POINT ( 'NONE',  ( 73.00000000000000000, 57.99000000000000199, 2.000000000000000000 ) ) ;
#875 = EDGE_LOOP ( 'NONE', ( #1043, #330 ) ) ;
#876 = ORIENTED_EDGE ( 'NONE', *, *, #624, .F. ) ;
#877 = LINE ( 'NONE', #1068, #1060 ) ;
#878 = DIRECTION ( 'NONE',  ( -1.000000000000000000, 0.000000000000000000, 0.000000000000000000 ) ) ;
#879 = VERTEX_POINT ( 'NONE', #95 ) ;
#880 = EDGE_CURVE ( 'NONE', #178, #811, #192, .T. ) ;
#881 = PLANE ( 'NONE',  #66 ) ;
#882 = VERTEX_POINT ( 'NONE', #1120 ) ;
#883 = LINE ( 'NONE', #979, #559 ) ;
#884 = AXIS2_PLACEMENT_3D ( 'NONE', #190, #681, #665 ) ;
#885 = CIRCLE ( 'NONE', #497, 2.000000000000000000 ) ;
#886 = APPLICATION_PROTOCOL_DEFINITION ( 'draft international standard', 'automotive_design', 1998, #452 ) ;
#887 = CARTESIAN_POINT ( 'NONE',  ( 32.99999999999999289, 0.000000000000000000, 2.000000000000000000 ) ) ;
#888 = ORIENTED_EDGE ( 'NONE', *, *, #226, .F. ) ;
#889 = ORIENTED_EDGE ( 'NONE', *, *, #488, .T. ) ;
#890 = EDGE_CURVE ( 'NONE', #929, #1081, #275, .T. ) ;
#891 = CARTESIAN_POINT ( 'NONE',  ( 75.50000000000000000, 10.00000000000000178, 10.00000000000000000 ) ) ;
#892 = CYLINDRICAL_SURFACE ( 'NONE', #960, 2.000000000000000000 ) ;
#893 = CARTESIAN_POINT ( 'NONE',  ( 86.00000000000000000, 2.000000000000000000, 0.000000000000000000 ) ) ;
#894 = CYLINDRICAL_SURFACE ( 'NONE', #172, 2.000000000000000000 ) ;
#895 = DIRECTION ( 'NONE',  ( -1.000000000000000000, 0.000000000000000000, 0.000000000000000000 ) ) ;
#896 = EDGE_LOOP ( 'NONE', ( #400, #609, #25, #337 ) ) ;
#897 = FACE_OUTER_BOUND ( 'NONE', #962, .T. ) ;
#898 = CARTESIAN_POINT ( 'NONE',  ( 13.00000000000000178, 2.499999999999999556, 2.000000000000000000 ) ) ;
#899 = VECTOR ( 'NONE', #358, 1000.000000000000000 ) ;
#900 = ADVANCED_FACE ( 'NONE', ( #558 ), #179, .T. ) ;
#901 = DIRECTION ( 'NONE',  ( -1.000000000000000000, -0.000000000000000000, -0.000000000000000000 ) ) ;
#902 = CYLINDRICAL_SURFACE ( 'NONE', #810, 1.499999999999999556 ) ;
#903 = VERTEX_POINT ( 'NONE', #937 ) ;
#904 = VERTEX_POINT ( 'NONE', #90 ) ;
#905 = CARTESIAN_POINT ( 'NONE',  ( 83.49999999999998579, 2.499999999999999556, 2.000000000000000000 ) ) ;
#906 = EDGE_CURVE ( 'NONE', #705, #1182, #744, .T. ) ;
#907 = CARTESIAN_POINT ( 'NONE',  ( 75.50000000000000000, 10.00000000000000178, 7.000000000000000000 ) ) ;
#908 = ORIENTED_EDGE ( 'NONE', *, *, #906, .T. ) ;
#909 =( NAMED_UNIT ( * ) SI_UNIT ( $, .STERADIAN. ) SOLID_ANGLE_UNIT ( ) );
#910 = ORIENTED_EDGE ( 'NONE', *, *, #321, .F. ) ;
#911 = LINE ( 'NONE', #1101, #723 ) ;
#912 = CARTESIAN_POINT ( 'NONE',  ( 83.99999999999998579, 2.000000000000000000, 2.000000000000000000 ) ) ;
#913 = FACE_OUTER_BOUND ( 'NONE', #967, .T. ) ;
#914 = EDGE_CURVE ( 'NONE', #882, #476, #268, .T. ) ;
#915 = ORIENTED_EDGE ( 'NONE', *, *, #204, .F. ) ;
#916 = CARTESIAN_POINT ( 'NONE',  ( -0.000000000000000000, 52.50000000000000000, 2.000000000000000000 ) ) ;
#917 = CIRCLE ( 'NONE', #324, 1.499999999999999556 ) ;
#918 = PLANE ( 'NONE',  #951 ) ;
#919 = ORIENTED_EDGE ( 'NONE', *, *, #867, .F. ) ;
#920 = EDGE_CURVE ( 'NONE', #1071, #1067, #930, .T. ) ;
#921 = CARTESIAN_POINT ( 'NONE',  ( 75.00000000000000000, 62.67999999999999972, 3.550000000000000266 ) ) ;
#922 = VECTOR ( 'NONE', #901, 1000.000000000000000 ) ;
#923 = SURFACE_SIDE_STYLE ('',( #1000 ) ) ;
#924 = VECTOR ( 'NONE', #729, 1000.000000000000000 ) ;
#925 = CARTESIAN_POINT ( 'NONE',  ( 83.99999999999998579, 62.67999999999999972, 2.000000000000000000 ) ) ;
#926 = ORIENTED_EDGE ( 'NONE', *, *, #570, .T. ) ;
#927 = LINE ( 'NONE', #832, #1176 ) ;
#928 = EDGE_CURVE ( 'NONE', #870, #1162, #1111, .T. ) ;
#929 = VERTEX_POINT ( 'NONE', #819 ) ;
#930 = LINE ( 'NONE', #378, #259 ) ;
#931 = FACE_OUTER_BOUND ( 'NONE', #1170, .T. ) ;
#932 = EDGE_LOOP ( 'NONE', ( #150, #682 ) ) ;
#933 = DIRECTION ( 'NONE',  ( 0.000000000000000000, 1.000000000000000000, -0.000000000000000000 ) ) ;
#934 = FACE_OUTER_BOUND ( 'NONE', #29, .T. ) ;
#935 = PLANE ( 'NONE',  #312 ) ;
#936 = VERTEX_POINT ( 'NONE', #801 ) ;
#937 = CARTESIAN_POINT ( 'NONE',  ( 75.00000000000000000, 62.67999999999999972, 2.000000000000000000 ) ) ;
#938 = PLANE ( 'NONE',  #831 ) ;
#939 = EDGE_CURVE ( 'NONE', #1212, #556, #987, .T. ) ;
#940 = ORIENTED_EDGE ( 'NONE', *, *, #741, .T. ) ;
#941 = VECTOR ( 'NONE', #772, 1000.000000000000000 ) ;
#942 = CARTESIAN_POINT ( 'NONE',  ( 0.000000000000000000, 57.99000000000000199, 7.000000000000000000 ) ) ;
#943 = CARTESIAN_POINT ( 'NONE',  ( 86.00000000000000000, 0.000000000000000000, 2.000000000000000000 ) ) ;
#944 = EDGE_CURVE ( 'NONE', #783, #662, #303, .T. ) ;
#945 = CARTESIAN_POINT ( 'NONE',  ( 75.50000000000000000, 45.00000000000000000, 10.00000000000000000 ) ) ;
#946 = ORIENTED_EDGE ( 'NONE', *, *, #166, .F. ) ;
#947 = DIRECTION ( 'NONE',  ( -1.000000000000000000, -0.000000000000000000, -0.000000000000000000 ) ) ;
#948 =( LENGTH_UNIT ( ) NAMED_UNIT ( * ) SI_UNIT ( .MILLI., .METRE. ) );
#949 = DIRECTION ( 'NONE',  ( 0.000000000000000000, 0.000000000000000000, -1.000000000000000000 ) ) ;
#950 = ORIENTED_EDGE ( 'NONE', *, *, #107, .T. ) ;
#951 = AXIS2_PLACEMENT_3D ( 'NONE', #255, #643, #828 ) ;
#952 = ORIENTED_EDGE ( 'NONE', *, *, #282, .F. ) ;
#953 = EDGE_CURVE ( 'NONE', #763, #830, #993, .T. ) ;
#954 = CYLINDRICAL_SURFACE ( 'NONE', #1042, 2.000000000000001776 ) ;
#955 = DIRECTION ( 'NONE',  ( 0.000000000000000000, -0.000000000000000000, 1.000000000000000000 ) ) ;
#956 = ORIENTED_EDGE ( 'NONE', *, *, #1150, .F. ) ;
#957 = EDGE_LOOP ( 'NONE', ( #1157, #584, #279, #1059 ) ) ;
#958 = CIRCLE ( 'NONE', #496, 1.500000000000001332 ) ;
#959 = DIRECTION ( 'NONE',  ( -1.000000000000000000, 0.000000000000000000, 0.000000000000000000 ) ) ;
#960 = AXIS2_PLACEMENT_3D ( 'NONE', #789, #970, #211 ) ;
#961 = DIRECTION ( 'NONE',  ( -0.000000000000000000, -0.000000000000000000, -1.000000000000000000 ) ) ;
#962 = EDGE_LOOP ( 'NONE', ( #319, #806, #117, #721 ) ) ;
#963 = VERTEX_POINT ( 'NONE', #618 ) ;
#964 = DIRECTION ( 'NONE',  ( 0.000000000000000000, 0.000000000000000000, -1.000000000000000000 ) ) ;
#965 = LINE ( 'NONE', #316, #205 ) ;
#966 = DIRECTION ( 'NONE',  ( -0.000000000000000000, -0.000000000000000000, -1.000000000000000000 ) ) ;
#967 = EDGE_LOOP ( 'NONE', ( #535, #919, #436, #160 ) ) ;
#968 = ORIENTED_EDGE ( 'NONE', *, *, #1076, .F. ) ;
#969 = AXIS2_PLACEMENT_3D ( 'NONE', #539, #435, #1006 ) ;
#970 = DIRECTION ( 'NONE',  ( 0.000000000000000000, 0.000000000000000000, -1.000000000000000000 ) ) ;
#971 = DIRECTION ( 'NONE',  ( -1.000000000000000000, 0.000000000000000000, -0.000000000000000000 ) ) ;
#972 = APPLICATION_PROTOCOL_DEFINITION ( 'draft international standard', 'automotive_design', 1998, #383 ) ;
#973 = AXIS2_PLACEMENT_3D ( 'NONE', #728, #821, #237 ) ;
#974 = CARTESIAN_POINT ( 'NONE',  ( 83.99999999999998579, 62.67999999999999972, 2.000000000000000000 ) ) ;
#975 = ADVANCED_FACE ( 'NONE', ( #897 ), #54, .T. ) ;
#976 = ORIENTED_EDGE ( 'NONE', *, *, #914, .T. ) ;
#977 = ORIENTED_EDGE ( 'NONE', *, *, #1150, .T. ) ;
#978 = UNCERTAINTY_MEASURE_WITH_UNIT (LENGTH_MEASURE( 1.000000000000000082E-05 ), #554, 'distance_accuracy_value', 'NONE');
#979 = CARTESIAN_POINT ( 'NONE',  ( 75.00000000000000000, 62.67999999999999972, 2.749999999999991118 ) ) ;
#980 = AXIS2_PLACEMENT_3D ( 'NONE', #869, #776, #697 ) ;
#981 = LINE ( 'NONE', #709, #827 ) ;
#982 = VECTOR ( 'NONE', #91, 1000.000000000000000 ) ;
#983 = CARTESIAN_POINT ( 'NONE',  ( -0.000000000000000000, 57.99000000000000199, 2.000000000000000000 ) ) ;
#984 = ORIENTED_EDGE ( 'NONE', *, *, #1095, .F. ) ;
#985 = ORIENTED_EDGE ( 'NONE', *, *, #434, .T. ) ;
#986 = EDGE_CURVE ( 'NONE', #882, #783, #911, .T. ) ;
#987 = LINE ( 'NONE', #631, #240 ) ;
#988 = CARTESIAN_POINT ( 'NONE',  ( 75.50000000000000000, 45.00000000000000000, 0.000000000000000000 ) ) ;
#989 = CARTESIAN_POINT ( 'NONE',  ( 83.49999999999998579, 0.000000000000000000, 7.000000000000000000 ) ) ;
#990 = DIRECTION ( 'NONE',  ( -0.000000000000000000, -1.000000000000000000, -0.000000000000000000 ) ) ;
#991 = ORIENTED_EDGE ( 'NONE', *, *, #338, .T. ) ;
#992 = ORIENTED_EDGE ( 'NONE', *, *, #604, .T. ) ;
#993 = LINE ( 'NONE', #641, #666 ) ;
#994 = EDGE_CURVE ( 'NONE', #657, #345, #1004, .T. ) ;
#995 = DIRECTION ( 'NONE',  ( -1.000000000000000000, 0.000000000000000000, -0.000000000000000000 ) ) ;
#996 = DIRECTION ( 'NONE',  ( -1.000000000000000000, 0.000000000000000000, 0.000000000000000000 ) ) ;
#997 = ORIENTED_EDGE ( 'NONE', *, *, #72, .T. ) ;
#998 = VERTEX_POINT ( 'NONE', #341 ) ;
#999 = DIRECTION ( 'NONE',  ( -1.000000000000000000, 0.000000000000000000, -0.000000000000000000 ) ) ;
#1000 = SURFACE_STYLE_FILL_AREA ( #254 ) ;
#1001 = ADVANCED_FACE ( 'NONE', ( #132, #230, #65, #1106 ), #1082, .F. ) ;
#1002 = VECTOR ( 'NONE', #481, 1000.000000000000000 ) ;
#1003 = ORIENTED_EDGE ( 'NONE', *, *, #243, .T. ) ;
#1004 = LINE ( 'NONE', #813, #627 ) ;
#1005 = DIRECTION ( 'NONE',  ( -1.000000000000000000, 0.000000000000000000, 0.000000000000000000 ) ) ;
#1006 = DIRECTION ( 'NONE',  ( -0.000000000000000000, 0.000000000000000000, -1.000000000000000000 ) ) ;
#1007 = ADVANCED_FACE ( 'NONE', ( #151 ), #522, .F. ) ;
#1008 = LINE ( 'NONE', #925, #706 ) ;
#1009 = ORIENTED_EDGE ( 'NONE', *, *, #249, .T. ) ;
#1010 = VECTOR ( 'NONE', #971, 1000.000000000000000 ) ;
#1011 = CARTESIAN_POINT ( 'NONE',  ( 0.000000000000000000, 62.67999999999999972, 2.000000000000000000 ) ) ;
#1012 = VECTOR ( 'NONE', #650, 1000.000000000000000 ) ;
#1013 = ADVANCED_FACE ( 'NONE', ( #726 ), #247, .T. ) ;
#1014 = ORIENTED_EDGE ( 'NONE', *, *, #570, .F. ) ;
#1015 = CARTESIAN_POINT ( 'NONE',  ( 77.00000000000000000, 10.00000000000000178, 10.00000000000000000 ) ) ;
#1016 = AXIS2_PLACEMENT_3D ( 'NONE', #309, #135, #125 ) ;
#1017 = CARTESIAN_POINT ( 'NONE',  ( 83.99999999999998579, 2.000000000000000000, 0.000000000000000000 ) ) ;
#1018 = PRESENTATION_STYLE_ASSIGNMENT (( #786 ) ) ;
#1019 = ORIENTED_EDGE ( 'NONE', *, *, #604, .F. ) ;
#1020 = CARTESIAN_POINT ( 'NONE',  ( 2.500000000000001332, 2.499999999999999556, 7.000000000000000000 ) ) ;
#1021 = VECTOR ( 'NONE', #18, 1000.000000000000000 ) ;
#1022 = DIRECTION ( 'NONE',  ( -0.000000000000000000, 0.7071067811865475727, 0.7071067811865475727 ) ) ;
#1023 = ORIENTED_EDGE ( 'NONE', *, *, #1171, .T. ) ;
#1024 = CIRCLE ( 'NONE', #459, 1.499999999999999556 ) ;
#1025 = CARTESIAN_POINT ( 'NONE',  ( 0.000000000000000000, 0.000000000000000000, 7.000000000000000000 ) ) ;
#1026 = EDGE_CURVE ( 'NONE', #623, #556, #141, .T. ) ;
#1027 = CARTESIAN_POINT ( 'NONE',  ( 0.000000000000000000, 0.000000000000000000, 3.550000000000000266 ) ) ;
#1028 = CARTESIAN_POINT ( 'NONE',  ( -0.000000000000000000, 57.99000000000000199, 2.000000000000000000 ) ) ;
#1029 = DIRECTION ( 'NONE',  ( -1.000000000000000000, 0.000000000000000000, 0.000000000000000000 ) ) ;
#1030 = ORIENTED_EDGE ( 'NONE', *, *, #632, .T. ) ;
#1031 = ADVANCED_FACE ( 'NONE', ( #431 ), #826, .F. ) ;
#1032 = DIRECTION ( 'NONE',  ( 1.000000000000000000, 0.000000000000000000, 0.000000000000000000 ) ) ;
#1033 = LINE ( 'NONE', #1128, #352 ) ;
#1034 = AXIS2_PLACEMENT_3D ( 'NONE', #891, #46, #451 ) ;
#1035 = LINE ( 'NONE', #97, #1002 ) ;
#1036 = ORIENTED_EDGE ( 'NONE', *, *, #139, .T. ) ;
#1037 = CARTESIAN_POINT ( 'NONE',  ( 2.000000000000000000, 62.67999999999999972, 2.000000000000000000 ) ) ;
#1038 = CARTESIAN_POINT ( 'NONE',  ( 86.00000000000000000, 0.000000000000000000, 0.000000000000000000 ) ) ;
#1039 = EDGE_CURVE ( 'NONE', #517, #455, #332, .T. ) ;
#1040 = DIRECTION ( 'NONE',  ( 0.000000000000000000, 0.000000000000000000, -1.000000000000000000 ) ) ;
#1041 = ORIENTED_EDGE ( 'NONE', *, *, #1076, .T. ) ;
#1042 = AXIS2_PLACEMENT_3D ( 'NONE', #285, #949, #193 ) ;
#1043 = ORIENTED_EDGE ( 'NONE', *, *, #299, .F. ) ;
#1044 = FACE_OUTER_BOUND ( 'NONE', #667, .T. ) ;
#1045 = FACE_OUTER_BOUND ( 'NONE', #1109, .T. ) ;
#1046 = EDGE_CURVE ( 'NONE', #688, #588, #1140, .T. ) ;
#1047 = ORIENTED_EDGE ( 'NONE', *, *, #175, .F. ) ;
#1048 = ORIENTED_EDGE ( 'NONE', *, *, #521, .F. ) ;
#1049 = CARTESIAN_POINT ( 'NONE',  ( 13.00000000000000178, 0.000000000000000000, 7.000000000000000000 ) ) ;
#1050 = DIRECTION ( 'NONE',  ( 0.000000000000000000, 0.000000000000000000, 1.000000000000000000 ) ) ;
#1051 = CARTESIAN_POINT ( 'NONE',  ( 83.49999999999998579, 57.99000000000000199, 7.000000000000000000 ) ) ;
#1052 = EDGE_LOOP ( 'NONE', ( #53, #1153, #968, #526 ) ) ;
#1053 = VECTOR ( 'NONE', #947, 1000.000000000000000 ) ;
#1054 = EDGE_LOOP ( 'NONE', ( #683, #9, #984, #513 ) ) ;
#1055 = DIRECTION ( 'NONE',  ( -1.000000000000000000, 0.000000000000000000, 0.000000000000000000 ) ) ;
#1056 = CIRCLE ( 'NONE', #49, 2.000000000000001776 ) ;
#1057 = FACE_OUTER_BOUND ( 'NONE', #343, .T. ) ;
#1058 = ORIENTED_EDGE ( 'NONE', *, *, #426, .F. ) ;
#1059 = ORIENTED_EDGE ( 'NONE', *, *, #749, .T. ) ;
#1060 = VECTOR ( 'NONE', #872, 1000.000000000000000 ) ;
#1061 = MANIFOLD_SOLID_BREP ( 'Fillet1', #76 ) ;
#1062 = EDGE_CURVE ( 'NONE', #1071, #215, #1169, .T. ) ;
#1063 = DIRECTION ( 'NONE',  ( -1.000000000000000000, 0.000000000000000000, 0.000000000000000000 ) ) ;
#1064 = DIRECTION ( 'NONE',  ( -0.000000000000000000, -0.000000000000000000, -1.000000000000000000 ) ) ;
#1065 = CYLINDRICAL_SURFACE ( 'NONE', #656, 1.499999999999999556 ) ;
#1066 = ORIENTED_EDGE ( 'NONE', *, *, #521, .T. ) ;
#1067 = VERTEX_POINT ( 'NONE', #289 ) ;
#1068 = CARTESIAN_POINT ( 'NONE',  ( 83.49999999999998579, 57.99000000000000199, 7.000000000000000000 ) ) ;
#1069 = EDGE_CURVE ( 'NONE', #1229, #686, #4, .T. ) ;
#1070 = LINE ( 'NONE', #120, #34 ) ;
#1071 = VERTEX_POINT ( 'NONE', #437 ) ;
#1072 = CARTESIAN_POINT ( 'NONE',  ( 0.000000000000000000, 0.000000000000000000, 2.000000000000000000 ) ) ;
#1073 = VERTEX_POINT ( 'NONE', #443 ) ;
#1074 = VECTOR ( 'NONE', #933, 1000.000000000000000 ) ;
#1075 = CARTESIAN_POINT ( 'NONE',  ( 10.90000000000000036, 62.67999999999999972, 2.000000000000000000 ) ) ;
#1076 = EDGE_CURVE ( 'NONE', #430, #1212, #339, .T. ) ;
#1077 = FACE_OUTER_BOUND ( 'NONE', #871, .T. ) ;
#1078 = ADVANCED_FACE ( 'NONE', ( #512 ), #881, .F. ) ;
#1079 = FACE_BOUND ( 'NONE', #505, .T. ) ;
#1080 = CARTESIAN_POINT ( 'NONE',  ( 75.50000000000000000, 45.00000000000000000, 0.000000000000000000 ) ) ;
#1081 = VERTEX_POINT ( 'NONE', #794 ) ;
#1082 = PLANE ( 'NONE',  #742 ) ;
#1083 = DIRECTION ( 'NONE',  ( 0.000000000000000000, 0.000000000000000000, -1.000000000000000000 ) ) ;
#1084 = VECTOR ( 'NONE', #990, 1000.000000000000000 ) ;
#1085 = VECTOR ( 'NONE', #485, 1000.000000000000000 ) ;
#1086 = DIRECTION ( 'NONE',  ( 0.000000000000000000, -0.000000000000000000, 1.000000000000000000 ) ) ;
#1087 = DIRECTION ( 'NONE',  ( 1.000000000000000000, 0.000000000000000000, 0.000000000000000000 ) ) ;
#1088 = EDGE_CURVE ( 'NONE', #423, #929, #1008, .T. ) ;
#1089 = ORIENTED_EDGE ( 'NONE', *, *, #986, .F. ) ;
#1090 = DIRECTION ( 'NONE',  ( 1.000000000000000000, 0.000000000000000000, 0.000000000000000000 ) ) ;
#1091 = FACE_OUTER_BOUND ( 'NONE', #391, .T. ) ;
#1092 = ORIENTED_EDGE ( 'NONE', *, *, #1211, .F. ) ;
#1093 = DIRECTION ( 'NONE',  ( 1.000000000000000000, 0.000000000000000000, 0.000000000000000000 ) ) ;
#1094 = EDGE_LOOP ( 'NONE', ( #20, #173, #469, #561 ) ) ;
#1095 = EDGE_CURVE ( 'NONE', #455, #194, #336, .T. ) ;
#1096 = CARTESIAN_POINT ( 'NONE',  ( 0.000000000000000000, 0.000000000000000000, 2.000000000000000000 ) ) ;
#1097 = FACE_BOUND ( 'NONE', #652, .T. ) ;
#1098 = CARTESIAN_POINT ( 'NONE',  ( 10.50000000000000000, 10.00000000000000000, 0.000000000000000000 ) ) ;
#1099 = VECTOR ( 'NONE', #626, 1000.000000000000000 ) ;
#1100 = ORIENTED_EDGE ( 'NONE', *, *, #1117, .F. ) ;
#1101 = CARTESIAN_POINT ( 'NONE',  ( 0.000000000000000000, 0.000000000000000000, 2.000000000000000000 ) ) ;
#1102 = EDGE_CURVE ( 'NONE', #1132, #494, #22, .T. ) ;
#1103 = LINE ( 'NONE', #525, #1084 ) ;
#1104 = VECTOR ( 'NONE', #213, 1000.000000000000000 ) ;
#1105 = VERTEX_POINT ( 'NONE', #790 ) ;
#1106 = FACE_OUTER_BOUND ( 'NONE', #589, .T. ) ;
#1107 = EDGE_CURVE ( 'NONE', #998, #657, #1160, .T. ) ;
#1108 = CARTESIAN_POINT ( 'NONE',  ( 10.50000000000000000, 10.00000000000000000, 10.00000000000000000 ) ) ;
#1109 = EDGE_LOOP ( 'NONE', ( #306, #1036, #442, #362 ) ) ;
#1110 = FACE_BOUND ( 'NONE', #768, .T. ) ;
#1111 = LINE ( 'NONE', #2, #344 ) ;
#1112 = AXIS2_PLACEMENT_3D ( 'NONE', #1192, #536, #350 ) ;
#1113 = PLANE ( 'NONE',  #511 ) ;
#1114 = ORIENTED_EDGE ( 'NONE', *, *, #480, .F. ) ;
#1115 = VECTOR ( 'NONE', #753, 1000.000000000000000 ) ;
#1116 = LINE ( 'NONE', #374, #102 ) ;
#1117 = EDGE_CURVE ( 'NONE', #556, #870, #981, .T. ) ;
#1118 = VERTEX_POINT ( 'NONE', #620 ) ;
#1119 = LINE ( 'NONE', #78, #364 ) ;
#1120 = CARTESIAN_POINT ( 'NONE',  ( 0.000000000000000000, 60.67999999999999972, 2.000000000000000000 ) ) ;
#1121 = LINE ( 'NONE', #1038, #717 ) ;
#1122 = AXIS2_PLACEMENT_3D ( 'NONE', #1137, #1040, #83 ) ;
#1123 = FACE_OUTER_BOUND ( 'NONE', #1094, .T. ) ;
#1124 = ORIENTED_EDGE ( 'NONE', *, *, #578, .F. ) ;
#1125 = VECTOR ( 'NONE', #586, 1000.000000000000000 ) ;
#1126 = EDGE_CURVE ( 'NONE', #273, #15, #106, .T. ) ;
#1127 = DIRECTION ( 'NONE',  ( -1.000000000000000000, -0.000000000000000000, -0.000000000000000000 ) ) ;
#1128 = CARTESIAN_POINT ( 'NONE',  ( 53.00000000000000000, 57.99000000000000199, 7.000000000000000000 ) ) ;
#1129 = ADVANCED_BREP_SHAPE_REPRESENTATION ( 'Lid', ( #1061, #784 ), #432 ) ;
#1130 = CARTESIAN_POINT ( 'NONE',  ( 2.500000000000001332, 2.499999999999999556, 2.000000000000000000 ) ) ;
#1131 = DIRECTION ( 'NONE',  ( 0.000000000000000000, -0.000000000000000000, -1.000000000000000000 ) ) ;
#1132 = VERTEX_POINT ( 'NONE', #421 ) ;
#1133 = EDGE_CURVE ( 'NONE', #311, #178, #868, .T. ) ;
#1134 = DIRECTION ( 'NONE',  ( 0.000000000000000000, 0.000000000000000000, -1.000000000000000000 ) ) ;
#1135 = CARTESIAN_POINT ( 'NONE',  ( 9.000000000000001776, 10.00000000000000000, 0.000000000000000000 ) ) ;
#1136 = VECTOR ( 'NONE', #71, 1000.000000000000000 ) ;
#1137 = CARTESIAN_POINT ( 'NONE',  ( 83.99999999999998579, 2.000000000000000000, 2.000000000000000000 ) ) ;
#1138 = ORIENTED_EDGE ( 'NONE', *, *, #710, .T. ) ;
#1139 = CARTESIAN_POINT ( 'NONE',  ( 10.90000000000000036, 0.000000000000000000, 2.000000000000000000 ) ) ;
#1140 = LINE ( 'NONE', #176, #820 ) ;
#1141 = CARTESIAN_POINT ( 'NONE',  ( 86.00000000000000000, 2.000000000000000000, 2.000000000000000000 ) ) ;
#1142 = EDGE_CURVE ( 'NONE', #191, #1189, #1166, .T. ) ;
#1143 = DIRECTION ( 'NONE',  ( 0.000000000000000000, -0.7071067811865474617, 0.7071067811865474617 ) ) ;
#1144 = CARTESIAN_POINT ( 'NONE',  ( 2.500000000000001332, 0.000000000000000000, 2.000000000000000000 ) ) ;
#1145 = ORIENTED_EDGE ( 'NONE', *, *, #467, .T. ) ;
#1146 = VECTOR ( 'NONE', #841, 1000.000000000000000 ) ;
#1147 = VECTOR ( 'NONE', #320, 1000.000000000000000 ) ;
#1148 = ORIENTED_EDGE ( 'NONE', *, *, #734, .T. ) ;
#1149 = CARTESIAN_POINT ( 'NONE',  ( 77.00000000000000000, 45.00000000000000000, 10.00000000000000000 ) ) ;
#1150 = EDGE_CURVE ( 'NONE', #228, #588, #965, .T. ) ;
#1151 = LINE ( 'NONE', #887, #864 ) ;
#1152 = ORIENTED_EDGE ( 'NONE', *, *, #986, .T. ) ;
#1153 = ORIENTED_EDGE ( 'NONE', *, *, #939, .F. ) ;
#1154 = CARTESIAN_POINT ( 'NONE',  ( 10.50000000000000000, 45.00000000000000000, 10.00000000000000000 ) ) ;
#1155 = DIRECTION ( 'NONE',  ( 0.000000000000000000, 1.000000000000000000, -0.000000000000000000 ) ) ;
#1156 = ORIENTED_EDGE ( 'NONE', *, *, #299, .T. ) ;
#1157 = ORIENTED_EDGE ( 'NONE', *, *, #1046, .T. ) ;
#1158 = LINE ( 'NONE', #501, #1147 ) ;
#1159 = STYLED_ITEM ( 'NONE', ( #664 ), #1129 ) ;
#1160 = LINE ( 'NONE', #322, #644 ) ;
#1161 = ORIENTED_EDGE ( 'NONE', *, *, #1039, .T. ) ;
#1162 = VERTEX_POINT ( 'NONE', #524 ) ;
#1163 = EDGE_CURVE ( 'NONE', #705, #438, #1185, .T. ) ;
#1164 = VECTOR ( 'NONE', #1173, 1000.000000000000000 ) ;
#1165 = DIRECTION ( 'NONE',  ( -0.000000000000000000, 0.000000000000000000, 1.000000000000000000 ) ) ;
#1166 = LINE ( 'NONE', #212, #264 ) ;
#1167 = CARTESIAN_POINT ( 'NONE',  ( 0.000000000000000000, 52.50000000000000000, 7.000000000000000000 ) ) ;
#1168 = ORIENTED_EDGE ( 'NONE', *, *, #426, .T. ) ;
#1169 = LINE ( 'NONE', #1190, #198 ) ;
#1170 = EDGE_LOOP ( 'NONE', ( #165, #1014, #716, #888 ) ) ;
#1171 = EDGE_CURVE ( 'NONE', #104, #51, #1056, .T. ) ;
#1172 = LINE ( 'NONE', #216, #829 ) ;
#1173 = DIRECTION ( 'NONE',  ( -0.000000000000000000, -0.000000000000000000, 1.000000000000000000 ) ) ;
#1174 = EDGE_LOOP ( 'NONE', ( #769, #718, #138, #286 ) ) ;
#1175 = ORIENTED_EDGE ( 'NONE', *, *, #727, .T. ) ;
#1176 = VECTOR ( 'NONE', #655, 1000.000000000000000 ) ;
#1177 = DIRECTION ( 'NONE',  ( -0.000000000000000000, -1.000000000000000000, -0.000000000000000000 ) ) ;
#1178 = CYLINDRICAL_SURFACE ( 'NONE', #170, 1.499999999999999556 ) ;
#1179 = ADVANCED_FACE ( 'NONE', ( #739 ), #1113, .F. ) ;
#1180 = DIRECTION ( 'NONE',  ( -0.000000000000000000, -0.000000000000000000, 1.000000000000000000 ) ) ;
#1181 = DIRECTION ( 'NONE',  ( -0.000000000000000000, 0.000000000000000000, 1.000000000000000000 ) ) ;
#1182 = VERTEX_POINT ( 'NONE', #446 ) ;
#1183 = DIRECTION ( 'NONE',  ( -1.000000000000000000, 0.000000000000000000, 0.000000000000000000 ) ) ;
#1184 = CIRCLE ( 'NONE', #351, 1.500000000000001332 ) ;
#1185 = LINE ( 'NONE', #642, #1099 ) ;
#1186 = VECTOR ( 'NONE', #177, 1000.000000000000000 ) ;
#1187 = DIRECTION ( 'NONE',  ( -1.000000000000000000, 0.000000000000000000, 0.000000000000000000 ) ) ;
#1188 = ADVANCED_FACE ( 'NONE', ( #354 ), #153, .F. ) ;
#1189 = VERTEX_POINT ( 'NONE', #905 ) ;
#1190 = CARTESIAN_POINT ( 'NONE',  ( 73.00000000000000000, 2.499999999999999556, 2.000000000000000000 ) ) ;
#1191 = EDGE_LOOP ( 'NONE', ( #123, #889, #510, #149 ) ) ;
#1192 = CARTESIAN_POINT ( 'NONE',  ( 2.000000000000000000, 2.000000000000000000, 2.000000000000000000 ) ) ;
#1193 = FILL_AREA_STYLE_COLOUR ( '', #347 ) ;
#1194 = DIRECTION ( 'NONE',  ( 1.000000000000000000, 0.000000000000000000, 0.000000000000000000 ) ) ;
#1195 = EDGE_LOOP ( 'NONE', ( #203, #956, #779, #301 ) ) ;
#1196 = EDGE_LOOP ( 'NONE', ( #59, #246, #1148, #824 ) ) ;
#1197 = ADVANCED_FACE ( 'NONE', ( #61 ), #543, .F. ) ;
#1198 = DIRECTION ( 'NONE',  ( -0.000000000000000000, -0.000000000000000000, -1.000000000000000000 ) ) ;
#1199 = VECTOR ( 'NONE', #1093, 1000.000000000000000 ) ;
#1200 = FACE_BOUND ( 'NONE', #932, .T. ) ;
#1201 = CARTESIAN_POINT ( 'NONE',  ( 10.50000000000000000, 10.00000000000000000, 7.000000000000000000 ) ) ;
#1202 = EDGE_LOOP ( 'NONE', ( #1058, #407, #713, #60 ) ) ;
#1203 = ADVANCED_FACE ( 'NONE', ( #1200, #262, #1097, #56, #548 ), #538, .T. ) ;
#1204 = AXIS2_PLACEMENT_3D ( 'NONE', #201, #317, #878 ) ;
#1205 = LINE ( 'NONE', #427, #283 ) ;
#1206 = AXIS2_PLACEMENT_3D ( 'NONE', #372, #754, #1226 ) ;
#1207 = ORIENTED_EDGE ( 'NONE', *, *, #867, .T. ) ;
#1208 = FACE_OUTER_BOUND ( 'NONE', #957, .T. ) ;
#1209 = CARTESIAN_POINT ( 'NONE',  ( 2.000000000000000000, 2.000000000000000000, 0.000000000000000000 ) ) ;
#1210 = DIRECTION ( 'NONE',  ( 1.000000000000000000, 0.000000000000000000, 0.000000000000000000 ) ) ;
#1211 = EDGE_CURVE ( 'NONE', #423, #903, #651, .T. ) ;
#1212 = VERTEX_POINT ( 'NONE', #67 ) ;
#1213 = DIRECTION ( 'NONE',  ( -0.000000000000000000, -0.000000000000000000, -1.000000000000000000 ) ) ;
#1214 = LINE ( 'NONE', #572, #803 ) ;
#1215 = ORIENTED_EDGE ( 'NONE', *, *, #81, .T. ) ;
#1216 = ADVANCED_FACE ( 'NONE', ( #346 ), #531, .F. ) ;
#1217 = DIRECTION ( 'NONE',  ( -1.000000000000000000, 0.000000000000000000, 0.000000000000000000 ) ) ;
#1218 = EDGE_LOOP ( 'NONE', ( #1066, #1161, #862, #424 ) ) ;
#1219 = LINE ( 'NONE', #456, #5 ) ;
#1220 = CARTESIAN_POINT ( 'NONE',  ( 9.000000000000001776, 10.00000000000000000, 10.00000000000000000 ) ) ;
#1221 = LINE ( 'NONE', #108, #112 ) ;
#1222 = VECTOR ( 'NONE', #743, 1000.000000000000000 ) ;
#1223 = CARTESIAN_POINT ( 'NONE',  ( 13.00000000000000178, 57.99000000000000199, 2.000000000000000000 ) ) ;
#1224 = ORIENTED_EDGE ( 'NONE', *, *, #741, .F. ) ;
#1225 = CARTESIAN_POINT ( 'NONE',  ( 0.000000000000000000, 60.67999999999999972, 2.000000000000000000 ) ) ;
#1226 = DIRECTION ( 'NONE',  ( 0.000000000000000000, 0.000000000000000000, -1.000000000000000000 ) ) ;
#1227 = DIRECTION ( 'NONE',  ( -1.000000000000000000, 0.000000000000000000, 0.000000000000000000 ) ) ;
#1228 = FACE_OUTER_BOUND ( 'NONE', #736, .T. ) ;
#1229 = VERTEX_POINT ( 'NONE', #460 ) ;
ENDSEC;
END-ISO-10303-21;
