ISO-10303-21;
HEADER;
FILE_DESCRIPTION (( 'STEP AP214' ),
    '1' );
FILE_NAME ('speaker.STEP',
    '2026-07-27T00:00:47',
    ( '' ),
    ( '' ),
    'SwSTEP 2.0',
    'SolidWorks 2020',
    '' );
FILE_SCHEMA (( 'AUTOMOTIVE_DESIGN' ));
ENDSEC;

DATA;
#1 = ORIENTED_EDGE ( 'NONE', *, *, #591, .T. ) ;
#2 = CARTESIAN_POINT ( 'NONE',  ( 2.999999999999999556, 0.000000000000000000, 6.500000000000000000 ) ) ;
#3 = DIRECTION ( 'NONE',  ( -1.000000000000000000, 0.000000000000000000, 0.000000000000000000 ) ) ;
#4 = UNCERTAINTY_MEASURE_WITH_UNIT (LENGTH_MEASURE( 1.000000000000000082E-05 ), #7, 'distance_accuracy_value', 'NONE');
#5 = CARTESIAN_POINT ( 'NONE',  ( 32.00000000000000000, 0.000000000000000000, 0.000000000000000000 ) ) ;
#6 = AXIS2_PLACEMENT_3D ( 'NONE', #398, #239, #680 ) ;
#7 =( LENGTH_UNIT ( ) NAMED_UNIT ( * ) SI_UNIT ( .MILLI., .METRE. ) );
#8 = EDGE_CURVE ( 'NONE', #358, #66, #452, .T. ) ;
#9 = DIRECTION ( 'NONE',  ( 0.000000000000000000, -0.000000000000000000, -1.000000000000000000 ) ) ;
#10 = ORIENTED_EDGE ( 'NONE', *, *, #377, .T. ) ;
#11 = DIRECTION ( 'NONE',  ( 0.000000000000000000, 0.000000000000000000, -1.000000000000000000 ) ) ;
#12 = FACE_OUTER_BOUND ( 'NONE', #493, .T. ) ;
#13 = ORIENTED_EDGE ( 'NONE', *, *, #414, .F. ) ;
#14 = PLANE ( 'NONE',  #693 ) ;
#15 = AXIS2_PLACEMENT_3D ( 'NONE', #482, #698, #424 ) ;
#16 = VECTOR ( 'NONE', #430, 1000.000000000000000 ) ;
#17 = ORIENTED_EDGE ( 'NONE', *, *, #400, .T. ) ;
#18 = EDGE_CURVE ( 'NONE', #179, #681, #189, .T. ) ;
#19 = ORIENTED_EDGE ( 'NONE', *, *, #423, .T. ) ;
#20 = CYLINDRICAL_SURFACE ( 'NONE', #173, 2.999999999999999112 ) ;
#21 = VERTEX_POINT ( 'NONE', #393 ) ;
#22 = ORIENTED_EDGE ( 'NONE', *, *, #495, .T. ) ;
#23 = CARTESIAN_POINT ( 'NONE',  ( 35.00000000000000000, 0.000000000000000000, 0.000000000000000000 ) ) ;
#24 = EDGE_LOOP ( 'NONE', ( #312, #278, #527, #73 ) ) ;
#25 = ORIENTED_EDGE ( 'NONE', *, *, #476, .F. ) ;
#26 = ORIENTED_EDGE ( 'NONE', *, *, #101, .F. ) ;
#27 = DIRECTION ( 'NONE',  ( 0.000000000000000000, -0.000000000000000000, 1.000000000000000000 ) ) ;
#28 = CARTESIAN_POINT ( 'NONE',  ( 17.50000000000002132, 12.49999999999999289, 6.000000000000000000 ) ) ;
#29 = AXIS2_PLACEMENT_3D ( 'NONE', #131, #9, #229 ) ;
#30 = ORIENTED_EDGE ( 'NONE', *, *, #18, .F. ) ;
#31 = CARTESIAN_POINT ( 'NONE',  ( 5.499999999999999112, 20.26393202250020664, 8.500000000000000000 ) ) ;
#32 = EDGE_CURVE ( 'NONE', #288, #275, #409, .T. ) ;
#33 = ORIENTED_EDGE ( 'NONE', *, *, #200, .T. ) ;
#34 = CYLINDRICAL_SURFACE ( 'NONE', #510, 2.999999999999999112 ) ;
#35 = VERTEX_POINT ( 'NONE', #178 ) ;
#36 = PLANE ( 'NONE',  #221 ) ;
#37 = ORIENTED_EDGE ( 'NONE', *, *, #519, .T. ) ;
#38 = LINE ( 'NONE', #704, #133 ) ;
#39 = CARTESIAN_POINT ( 'NONE',  ( 4.736067977499788029, 19.50000000000000000, 8.500000000000000000 ) ) ;
#40 = CARTESIAN_POINT ( 'NONE',  ( 30.26393202250021019, 19.50000000000000000, 5.500000000000000000 ) ) ;
#41 = VECTOR ( 'NONE', #319, 1000.000000000000000 ) ;
#42 = DIRECTION ( 'NONE',  ( 0.000000000000000000, 0.000000000000000000, -1.000000000000000000 ) ) ;
#43 = DIRECTION ( 'NONE',  ( 0.000000000000000000, -1.000000000000000000, 0.000000000000000000 ) ) ;
#44 = EDGE_CURVE ( 'NONE', #622, #522, #307, .T. ) ;
#45 = DIRECTION ( 'NONE',  ( 1.000000000000000000, 0.000000000000000000, 0.000000000000000000 ) ) ;
#46 = DIRECTION ( 'NONE',  ( 0.000000000000000000, 0.000000000000000000, -1.000000000000000000 ) ) ;
#47 = DIRECTION ( 'NONE',  ( 0.000000000000000000, 0.000000000000000000, -1.000000000000000000 ) ) ;
#48 = CIRCLE ( 'NONE', #447, 3.000000000000000000 ) ;
#49 = PLANE ( 'NONE',  #89 ) ;
#50 = LINE ( 'NONE', #660, #475 ) ;
#51 = UNCERTAINTY_MEASURE_WITH_UNIT (LENGTH_MEASURE( 1.000000000000000082E-05 ), #655, 'distance_accuracy_value', 'NONE');
#52 = ORIENTED_EDGE ( 'NONE', *, *, #191, .T. ) ;
#53 = ADVANCED_FACE ( 'NONE', ( #82 ), #499, .F. ) ;
#54 = CARTESIAN_POINT ( 'NONE',  ( 32.00000000000000000, 2.999999999999999556, 6.500000000000000000 ) ) ;
#55 = CARTESIAN_POINT ( 'NONE',  ( 2.999999999999999556, 2.999999999999999556, 0.000000000000000000 ) ) ;
#56 = VERTEX_POINT ( 'NONE', #79 ) ;
#57 = CARTESIAN_POINT ( 'NONE',  ( 35.00000000000000000, 22.00000000000000355, 6.500000000000000000 ) ) ;
#58 = DIRECTION ( 'NONE',  ( -0.000000000000000000, -1.000000000000000000, -0.000000000000000000 ) ) ;
#59 = ADVANCED_FACE ( 'NONE', ( #186 ), #625, .F. ) ;
#60 = CARTESIAN_POINT ( 'NONE',  ( 10.84168760482232230, 12.49999999999999289, 5.500000000000000000 ) ) ;
#61 = CIRCLE ( 'NONE', #88, 3.000000000000000000 ) ;
#62 = VECTOR ( 'NONE', #481, 1000.000000000000000 ) ;
#63 = CARTESIAN_POINT ( 'NONE',  ( 2.999999999999999556, 2.999999999999999556, 6.500000000000000000 ) ) ;
#64 = DIRECTION ( 'NONE',  ( -1.000000000000000000, 0.000000000000000000, 0.000000000000000000 ) ) ;
#65 = ORIENTED_EDGE ( 'NONE', *, *, #644, .T. ) ;
#66 = VERTEX_POINT ( 'NONE', #444 ) ;
#67 = DIRECTION ( 'NONE',  ( -0.000000000000000000, -0.000000000000000000, 1.000000000000000000 ) ) ;
#68 = EDGE_LOOP ( 'NONE', ( #175, #223, #17, #458, #506, #559, #672, #470 ) ) ;
#69 = EDGE_CURVE ( 'NONE', #71, #275, #451, .T. ) ;
#70 = EDGE_LOOP ( 'NONE', ( #121, #336, #565, #19 ) ) ;
#71 = VERTEX_POINT ( 'NONE', #284 ) ;
#72 = CARTESIAN_POINT ( 'NONE',  ( 29.50000000000000355, 20.26393202250020664, 5.500000000000000000 ) ) ;
#73 = ORIENTED_EDGE ( 'NONE', *, *, #255, .F. ) ;
#74 = CIRCLE ( 'NONE', #406, 3.000000000000000000 ) ;
#75 = ADVANCED_FACE ( 'NONE', ( #12 ), #663, .F. ) ;
#76 = MECHANICAL_DESIGN_GEOMETRIC_PRESENTATION_REPRESENTATION (  '', ( #387 ), #540 ) ;
#77 = ORIENTED_EDGE ( 'NONE', *, *, #591, .F. ) ;
#78 = DIRECTION ( 'NONE',  ( 0.000000000000000000, 0.000000000000000000, -1.000000000000000000 ) ) ;
#79 = CARTESIAN_POINT ( 'NONE',  ( 29.50000000000000355, 22.50000000000000000, 6.500000000000000000 ) ) ;
#80 = EDGE_LOOP ( 'NONE', ( #670, #128, #1, #10, #182, #587, #629, #620 ) ) ;
#81 = DIRECTION ( 'NONE',  ( 0.000000000000000000, 1.000000000000000000, 0.000000000000000000 ) ) ;
#82 = FACE_OUTER_BOUND ( 'NONE', #24, .T. ) ;
#83 =( NAMED_UNIT ( * ) SI_UNIT ( $, .STERADIAN. ) SOLID_ANGLE_UNIT ( ) );
#84 = VERTEX_POINT ( 'NONE', #520 ) ;
#85 = CARTESIAN_POINT ( 'NONE',  ( 4.736067977499788029, 0.000000000000000000, 8.500000000000000000 ) ) ;
#86 = ADVANCED_FACE ( 'NONE', ( #373 ), #316, .F. ) ;
#87 = FACE_OUTER_BOUND ( 'NONE', #589, .T. ) ;
#88 = AXIS2_PLACEMENT_3D ( 'NONE', #39, #371, #205 ) ;
#89 = AXIS2_PLACEMENT_3D ( 'NONE', #111, #264, #333 ) ;
#90 = CLOSED_SHELL ( 'NONE', ( #107, #148, #509, #86, #311, #283, #443, #543, #554, #374, #564, #658, #232, #75, #53, #349, #59, #271, #211, #364, #466, #219 ) ) ;
#91 = ORIENTED_EDGE ( 'NONE', *, *, #191, .F. ) ;
#92 = DIRECTION ( 'NONE',  ( -0.000000000000000000, 1.000000000000000000, 0.000000000000000000 ) ) ;
#93 = ORIENTED_EDGE ( 'NONE', *, *, #224, .F. ) ;
#94 = CARTESIAN_POINT ( 'NONE',  ( 2.499999999999998668, 19.50000000000000000, 6.500000000000000000 ) ) ;
#95 = ORIENTED_EDGE ( 'NONE', *, *, #586, .T. ) ;
#96 = DIRECTION ( 'NONE',  ( -0.000000000000000000, -1.000000000000000000, -0.000000000000000000 ) ) ;
#97 = CARTESIAN_POINT ( 'NONE',  ( 5.499999999999999112, 2.499999999999996891, 6.500000000000000000 ) ) ;
#98 = EDGE_CURVE ( 'NONE', #401, #289, #549, .T. ) ;
#99 = CARTESIAN_POINT ( 'NONE',  ( 17.50000000000002132, 12.49999999999999289, 5.500000000000000000 ) ) ;
#100 = CARTESIAN_POINT ( 'NONE',  ( 0.000000000000000000, 22.00000000000000000, 0.000000000000000000 ) ) ;
#101 = EDGE_CURVE ( 'NONE', #21, #356, #202, .T. ) ;
#102 = AXIS2_PLACEMENT_3D ( 'NONE', #384, #427, #389 ) ;
#103 = CARTESIAN_POINT ( 'NONE',  ( 24.15831239517772389, 12.49999999999999289, 8.500000000000000000 ) ) ;
#104 = DIRECTION ( 'NONE',  ( -1.000000000000000000, 0.000000000000000000, 0.000000000000000000 ) ) ;
#105 = DIRECTION ( 'NONE',  ( 1.224646799147353207E-16, 1.000000000000000000, 0.000000000000000000 ) ) ;
#106 = CARTESIAN_POINT ( 'NONE',  ( 0.000000000000000000, 0.000000000000000000, 6.500000000000000000 ) ) ;
#107 = ADVANCED_FACE ( 'NONE', ( #361 ), #651, .F. ) ;
#108 = DIRECTION ( 'NONE',  ( 0.000000000000000000, -0.000000000000000000, -1.000000000000000000 ) ) ;
#109 = VECTOR ( 'NONE', #67, 1000.000000000000000 ) ;
#110 = TOROIDAL_SURFACE ( 'NONE', #605, 0.7639320225002110831, 3.000000000000000000 ) ;
#111 = CARTESIAN_POINT ( 'NONE',  ( 0.000000000000000000, 0.000000000000000000, 5.500000000000000000 ) ) ;
#112 =( GEOMETRIC_REPRESENTATION_CONTEXT ( 3 ) GLOBAL_UNCERTAINTY_ASSIGNED_CONTEXT ( ( #51 ) ) GLOBAL_UNIT_ASSIGNED_CONTEXT ( ( #655, #650, #158 ) ) REPRESENTATION_CONTEXT ( 'NONE', 'WORKASPACE' ) );
#113 = PLANE ( 'NONE',  #673 ) ;
#114 = APPLICATION_PROTOCOL_DEFINITION ( 'draft international standard', 'automotive_design', 1998, #227 ) ;
#115 = DIRECTION ( 'NONE',  ( -1.000000000000000000, 0.000000000000000000, -0.000000000000000000 ) ) ;
#116 = DIRECTION ( 'NONE',  ( -0.000000000000000000, -0.000000000000000000, 1.000000000000000000 ) ) ;
#117 = EDGE_CURVE ( 'NONE', #146, #289, #234, .T. ) ;
#118 = VECTOR ( 'NONE', #42, 1000.000000000000000 ) ;
#119 = ORIENTED_EDGE ( 'NONE', *, *, #152, .T. ) ;
#120 = VECTOR ( 'NONE', #707, 1000.000000000000000 ) ;
#121 = ORIENTED_EDGE ( 'NONE', *, *, #400, .F. ) ;
#122 = VERTEX_POINT ( 'NONE', #469 ) ;
#123 = CYLINDRICAL_SURFACE ( 'NONE', #640, 2.999999999999999112 ) ;
#124 = ORIENTED_EDGE ( 'NONE', *, *, #586, .F. ) ;
#125 = DIRECTION ( 'NONE',  ( 1.000000000000000000, 0.000000000000000000, 0.000000000000000000 ) ) ;
#126 = AXIS2_PLACEMENT_3D ( 'NONE', #560, #397, #241 ) ;
#127 = CARTESIAN_POINT ( 'NONE',  ( 35.00000000000000000, 0.000000000000000000, 6.500000000000000000 ) ) ;
#128 = ORIENTED_EDGE ( 'NONE', *, *, #615, .T. ) ;
#129 = AXIS2_PLACEMENT_3D ( 'NONE', #272, #434, #492 ) ;
#130 = DIRECTION ( 'NONE',  ( 0.000000000000000000, 0.000000000000000000, -1.000000000000000000 ) ) ;
#131 = CARTESIAN_POINT ( 'NONE',  ( 29.50000000000000355, 5.499999999999997335, 8.500000000000000000 ) ) ;
#132 = AXIS2_PLACEMENT_3D ( 'NONE', #708, #47, #104 ) ;
#133 = VECTOR ( 'NONE', #633, 1000.000000000000000 ) ;
#134 = VERTEX_POINT ( 'NONE', #97 ) ;
#135 = DIRECTION ( 'NONE',  ( -0.000000000000000000, 0.000000000000000000, 1.000000000000000000 ) ) ;
#136 = EDGE_LOOP ( 'NONE', ( #295, #124, #517, #456 ) ) ;
#137 = EDGE_CURVE ( 'NONE', #681, #358, #583, .T. ) ;
#138 = VERTEX_POINT ( 'NONE', #479 ) ;
#139 = ORIENTED_EDGE ( 'NONE', *, *, #649, .F. ) ;
#140 = DIRECTION ( 'NONE',  ( 0.000000000000000000, 0.000000000000000000, -1.000000000000000000 ) ) ;
#141 = DIRECTION ( 'NONE',  ( 1.000000000000000000, 0.000000000000000000, 0.000000000000000000 ) ) ;
#142 = EDGE_CURVE ( 'NONE', #343, #66, #647, .T. ) ;
#143 = ORIENTED_EDGE ( 'NONE', *, *, #488, .T. ) ;
#144 = DIRECTION ( 'NONE',  ( 0.000000000000000000, 0.000000000000000000, -1.000000000000000000 ) ) ;
#145 = DIRECTION ( 'NONE',  ( 1.000000000000000000, 0.000000000000000000, 0.000000000000000000 ) ) ;
#146 = VERTEX_POINT ( 'NONE', #94 ) ;
#147 = FACE_OUTER_BOUND ( 'NONE', #532, .T. ) ;
#148 = ADVANCED_FACE ( 'NONE', ( #413 ), #36, .F. ) ;
#149 = DIRECTION ( 'NONE',  ( 0.000000000000000000, 0.000000000000000000, -1.000000000000000000 ) ) ;
#150 = CYLINDRICAL_SURFACE ( 'NONE', #702, 3.000000000000000000 ) ;
#151 = CARTESIAN_POINT ( 'NONE',  ( 35.00000000000000000, 2.999999999999999556, 6.500000000000000000 ) ) ;
#152 = EDGE_CURVE ( 'NONE', #146, #579, #61, .T. ) ;
#153 = DIRECTION ( 'NONE',  ( 1.000000000000000000, 0.000000000000000000, 0.000000000000000000 ) ) ;
#154 = AXIS2_PLACEMENT_3D ( 'NONE', #604, #552, #662 ) ;
#155 = AXIS2_PLACEMENT_3D ( 'NONE', #207, #105, #555 ) ;
#156 = DIRECTION ( 'NONE',  ( 0.000000000000000000, 0.000000000000000000, -1.000000000000000000 ) ) ;
#157 = EDGE_CURVE ( 'NONE', #179, #71, #590, .T. ) ;
#158 =( NAMED_UNIT ( * ) SI_UNIT ( $, .STERADIAN. ) SOLID_ANGLE_UNIT ( ) );
#159 = CARTESIAN_POINT ( 'NONE',  ( 29.50000000000000355, 20.26393202250021019, 8.500000000000000000 ) ) ;
#160 = SURFACE_STYLE_FILL_AREA ( #657 ) ;
#161 = DIRECTION ( 'NONE',  ( -0.000000000000000000, 0.000000000000000000, 1.000000000000000000 ) ) ;
#162 = CIRCLE ( 'NONE', #129, 3.000000000000000000 ) ;
#163 = SURFACE_SIDE_STYLE ('',( #160 ) ) ;
#164 = ORIENTED_EDGE ( 'NONE', *, *, #432, .T. ) ;
#165 = VECTOR ( 'NONE', #96, 1000.000000000000000 ) ;
#166 = DIRECTION ( 'NONE',  ( 1.000000000000000000, 0.000000000000000000, 0.000000000000000000 ) ) ;
#167 = EDGE_CURVE ( 'NONE', #297, #577, #305, .T. ) ;
#168 = ORIENTED_EDGE ( 'NONE', *, *, #167, .T. ) ;
#169 =( NAMED_UNIT ( * ) PLANE_ANGLE_UNIT ( ) SI_UNIT ( $, .RADIAN. ) );
#170 = ORIENTED_EDGE ( 'NONE', *, *, #157, .T. ) ;
#171 = CARTESIAN_POINT ( 'NONE',  ( 30.26393202250021375, 5.499999999999997335, 8.500000000000000000 ) ) ;
#172 = ORIENTED_EDGE ( 'NONE', *, *, #142, .F. ) ;
#173 = AXIS2_PLACEMENT_3D ( 'NONE', #85, #92, #416 ) ;
#174 = ORIENTED_EDGE ( 'NONE', *, *, #488, .F. ) ;
#175 = ORIENTED_EDGE ( 'NONE', *, *, #262, .T. ) ;
#176 = CARTESIAN_POINT ( 'NONE',  ( 0.000000000000000000, 0.000000000000000000, 0.000000000000000000 ) ) ;
#177 = AXIS2_PLACEMENT_3D ( 'NONE', #293, #320, #3 ) ;
#178 = CARTESIAN_POINT ( 'NONE',  ( 5.499999999999999112, 4.736067977499786252, 5.500000000000000000 ) ) ;
#179 = VERTEX_POINT ( 'NONE', #151 ) ;
#180 = EDGE_CURVE ( 'NONE', #289, #56, #648, .T. ) ;
#181 = CARTESIAN_POINT ( 'NONE',  ( 22.50000000000002487, 12.49999999999999289, 6.000000000000000000 ) ) ;
#182 = ORIENTED_EDGE ( 'NONE', *, *, #500, .T. ) ;
#183 = EDGE_LOOP ( 'NONE', ( #368, #351, #303, #582 ) ) ;
#184 = ORIENTED_EDGE ( 'NONE', *, *, #679, .F. ) ;
#185 = SURFACE_SIDE_STYLE ('',( #455 ) ) ;
#186 = FACE_OUTER_BOUND ( 'NONE', #489, .T. ) ;
#187 = VERTEX_POINT ( 'NONE', #100 ) ;
#188 = DIRECTION ( 'NONE',  ( -1.000000000000000000, 0.000000000000000000, 0.000000000000000000 ) ) ;
#189 = LINE ( 'NONE', #127, #464 ) ;
#190 = TOROIDAL_SURFACE ( 'NONE', #154, 0.7639320225002110831, 3.000000000000000000 ) ;
#191 = EDGE_CURVE ( 'NONE', #134, #297, #74, .T. ) ;
#192 = AXIS2_PLACEMENT_3D ( 'NONE', #246, #81, #27 ) ;
#193 = VERTEX_POINT ( 'NONE', #595 ) ;
#194 = DIRECTION ( 'NONE',  ( 0.000000000000000000, 0.000000000000000000, -1.000000000000000000 ) ) ;
#195 = CARTESIAN_POINT ( 'NONE',  ( 2.999999999999999556, 25.00000000000000000, 6.500000000000000000 ) ) ;
#196 = VERTEX_POINT ( 'NONE', #301 ) ;
#197 = CARTESIAN_POINT ( 'NONE',  ( 2.499999999999998668, 0.000000000000000000, 6.500000000000000000 ) ) ;
#198 = DIRECTION ( 'NONE',  ( -0.000000000000000000, 0.000000000000000000, 1.000000000000000000 ) ) ;
#199 = EDGE_LOOP ( 'NONE', ( #37, #607, #402, #273 ) ) ;
#200 = EDGE_CURVE ( 'NONE', #359, #122, #498, .T. ) ;
#201 = FACE_OUTER_BOUND ( 'NONE', #345, .T. ) ;
#202 = CIRCLE ( 'NONE', #700, 6.658312395177702570 ) ;
#203 = AXIS2_PLACEMENT_3D ( 'NONE', #236, #501, #573 ) ;
#204 = DIRECTION ( 'NONE',  ( 1.000000000000000000, 0.000000000000000000, 0.000000000000000000 ) ) ;
#205 = DIRECTION ( 'NONE',  ( 0.000000000000000000, 0.000000000000000000, -1.000000000000000000 ) ) ;
#206 = PRODUCT ( 'speaker', 'speaker', '', ( #228 ) ) ;
#207 = CARTESIAN_POINT ( 'NONE',  ( 10.84168760482232230, 12.49999999999999289, 8.500000000000000000 ) ) ;
#208 = DIRECTION ( 'NONE',  ( 0.000000000000000000, 0.000000000000000000, -1.000000000000000000 ) ) ;
#209 = DIRECTION ( 'NONE',  ( -1.000000000000000000, 0.000000000000000000, 0.000000000000000000 ) ) ;
#210 = CARTESIAN_POINT ( 'NONE',  ( 2.999999999999999556, 25.00000000000000000, 0.000000000000000000 ) ) ;
#211 = ADVANCED_FACE ( 'NONE', ( #87 ), #190, .F. ) ;
#212 = DIRECTION ( 'NONE',  ( 0.000000000000000000, 0.000000000000000000, -1.000000000000000000 ) ) ;
#213 = VECTOR ( 'NONE', #691, 1000.000000000000000 ) ;
#214 = CARTESIAN_POINT ( 'NONE',  ( 29.50000000000000355, 19.50000000000000000, 5.500000000000000000 ) ) ;
#215 = CARTESIAN_POINT ( 'NONE',  ( 0.000000000000000000, 25.00000000000000000, 6.500000000000000000 ) ) ;
#216 = ORIENTED_EDGE ( 'NONE', *, *, #392, .F. ) ;
#217 = PRESENTATION_LAYER_ASSIGNMENT (  '', '', ( #533 ) ) ;
#218 = DIRECTION ( 'NONE',  ( 1.000000000000000000, 0.000000000000000000, 0.000000000000000000 ) ) ;
#219 = ADVANCED_FACE ( 'NONE', ( #526 ), #110, .F. ) ;
#220 = ORIENTED_EDGE ( 'NONE', *, *, #8, .F. ) ;
#221 = AXIS2_PLACEMENT_3D ( 'NONE', #634, #703, #149 ) ;
#222 = VECTOR ( 'NONE', #58, 1000.000000000000000 ) ;
#223 = ORIENTED_EDGE ( 'NONE', *, *, #448, .T. ) ;
#224 = EDGE_CURVE ( 'NONE', #187, #343, #290, .T. ) ;
#225 = AXIS2_PLACEMENT_3D ( 'NONE', #578, #302, #390 ) ;
#226 = FACE_BOUND ( 'NONE', #370, .T. ) ;
#227 = APPLICATION_CONTEXT ( 'automotive_design' ) ;
#228 = PRODUCT_CONTEXT ( 'NONE', #227, 'mechanical' ) ;
#229 = DIRECTION ( 'NONE',  ( -1.000000000000000000, 0.000000000000000000, 0.000000000000000000 ) ) ;
#230 = LINE ( 'NONE', #445, #109 ) ;
#231 = ORIENTED_EDGE ( 'NONE', *, *, #355, .T. ) ;
#232 = ADVANCED_FACE ( 'NONE', ( #269 ), #263, .T. ) ;
#233 = ORIENTED_EDGE ( 'NONE', *, *, #32, .F. ) ;
#234 = CIRCLE ( 'NONE', #428, 3.000000000000000000 ) ;
#235 = CARTESIAN_POINT ( 'NONE',  ( 0.000000000000000000, 22.00000000000000000, 6.500000000000000000 ) ) ;
#236 = CARTESIAN_POINT ( 'NONE',  ( 0.000000000000000000, 4.736067977499786252, 8.500000000000000000 ) ) ;
#237 = ORIENTED_EDGE ( 'NONE', *, *, #98, .F. ) ;
#238 = FACE_OUTER_BOUND ( 'NONE', #676, .T. ) ;
#239 = DIRECTION ( 'NONE',  ( 0.000000000000000000, 0.000000000000000000, -1.000000000000000000 ) ) ;
#240 = VERTEX_POINT ( 'NONE', #380 ) ;
#241 = DIRECTION ( 'NONE',  ( 0.000000000000000000, 0.000000000000000000, -1.000000000000000000 ) ) ;
#242 = EDGE_CURVE ( 'NONE', #56, #562, #539, .T. ) ;
#243 = CARTESIAN_POINT ( 'NONE',  ( 0.000000000000000000, 25.00000000000000000, 6.500000000000000000 ) ) ;
#244 = APPLICATION_PROTOCOL_DEFINITION ( 'draft international standard', 'automotive_design', 1998, #298 ) ;
#245 = ORIENTED_EDGE ( 'NONE', *, *, #224, .T. ) ;
#246 = CARTESIAN_POINT ( 'NONE',  ( 0.000000000000000000, 0.000000000000000000, 6.500000000000000000 ) ) ;
#247 = DIRECTION ( 'NONE',  ( -0.000000000000000000, 0.000000000000000000, 1.000000000000000000 ) ) ;
#248 = ORIENTED_EDGE ( 'NONE', *, *, #630, .T. ) ;
#249 = LINE ( 'NONE', #646, #213 ) ;
#250 = CARTESIAN_POINT ( 'NONE',  ( 17.50000000000002132, 12.49999999999999289, 5.500000000000000000 ) ) ;
#251 = ORIENTED_EDGE ( 'NONE', *, *, #683, .T. ) ;
#252 = CARTESIAN_POINT ( 'NONE',  ( 32.50000000000000000, 19.50000000000000000, 6.500000000000000000 ) ) ;
#253 = CARTESIAN_POINT ( 'NONE',  ( 35.00000000000000000, 2.999999999999999556, 6.500000000000000000 ) ) ;
#254 = AXIS2_PLACEMENT_3D ( 'NONE', #171, #671, #286 ) ;
#255 = EDGE_CURVE ( 'NONE', #240, #641, #585, .T. ) ;
#256 = LINE ( 'NONE', #701, #525 ) ;
#257 = CARTESIAN_POINT ( 'NONE',  ( 35.00000000000000000, 0.000000000000000000, 6.500000000000000000 ) ) ;
#258 = AXIS2_PLACEMENT_3D ( 'NONE', #422, #310, #145 ) ;
#259 = CIRCLE ( 'NONE', #664, 3.000000000000000000 ) ;
#260 = DIRECTION ( 'NONE',  ( 1.000000000000000000, 0.000000000000000000, 0.000000000000000000 ) ) ;
#261 = LINE ( 'NONE', #598, #654 ) ;
#262 = EDGE_CURVE ( 'NONE', #446, #84, #486, .T. ) ;
#263 = PLANE ( 'NONE',  #558 ) ;
#264 = DIRECTION ( 'NONE',  ( -0.000000000000000000, 0.000000000000000000, 1.000000000000000000 ) ) ;
#265 = DIRECTION ( 'NONE',  ( 1.000000000000000000, 0.000000000000000000, 0.000000000000000000 ) ) ;
#266 = TOROIDAL_SURFACE ( 'NONE', #102, 0.7639320225002110831, 3.000000000000000000 ) ;
#267 = CARTESIAN_POINT ( 'NONE',  ( 0.000000000000000000, 25.00000000000000000, 0.000000000000000000 ) ) ;
#268 = VECTOR ( 'NONE', #569, 1000.000000000000000 ) ;
#269 = FACE_OUTER_BOUND ( 'NONE', #449, .T. ) ;
#270 = ORIENTED_EDGE ( 'NONE', *, *, #531, .F. ) ;
#271 = ADVANCED_FACE ( 'NONE', ( #484 ), #266, .F. ) ;
#272 = CARTESIAN_POINT ( 'NONE',  ( 29.50000000000000355, 4.736067977499786252, 8.500000000000000000 ) ) ;
#273 = ORIENTED_EDGE ( 'NONE', *, *, #294, .F. ) ;
#274 = PRESENTATION_STYLE_ASSIGNMENT (( #383 ) ) ;
#275 = VERTEX_POINT ( 'NONE', #5 ) ;
#276 = ORIENTED_EDGE ( 'NONE', *, *, #531, .T. ) ;
#277 = DIRECTION ( 'NONE',  ( -1.000000000000000000, 0.000000000000000000, 0.000000000000000000 ) ) ;
#278 = ORIENTED_EDGE ( 'NONE', *, *, #44, .F. ) ;
#279 = DIRECTION ( 'NONE',  ( -1.000000000000000000, 0.000000000000000000, 0.000000000000000000 ) ) ;
#280 = ORIENTED_EDGE ( 'NONE', *, *, #262, .F. ) ;
#281 = ADVANCED_BREP_SHAPE_REPRESENTATION ( 'speaker', ( #457, #225 ), #112 ) ;
#282 = LINE ( 'NONE', #682, #325 ) ;
#283 = ADVANCED_FACE ( 'NONE', ( #226, #599 ), #113, .F. ) ;
#284 = CARTESIAN_POINT ( 'NONE',  ( 35.00000000000000000, 2.999999999999999556, 0.000000000000000000 ) ) ;
#285 = CIRCLE ( 'NONE', #254, 3.000000000000000000 ) ;
#286 = DIRECTION ( 'NONE',  ( 0.000000000000000000, 0.000000000000000000, -1.000000000000000000 ) ) ;
#287 = ORIENTED_EDGE ( 'NONE', *, *, #500, .F. ) ;
#288 = VERTEX_POINT ( 'NONE', #711 ) ;
#289 = VERTEX_POINT ( 'NONE', #544 ) ;
#290 = CIRCLE ( 'NONE', #132, 3.000000000000000000 ) ;
#291 = CARTESIAN_POINT ( 'NONE',  ( 31.99999999999999289, 25.00000000000000000, 0.000000000000000000 ) ) ;
#292 = VECTOR ( 'NONE', #46, 1000.000000000000000 ) ;
#293 = CARTESIAN_POINT ( 'NONE',  ( 29.50000000000000355, 19.50000000000000000, 6.500000000000000000 ) ) ;
#294 = EDGE_CURVE ( 'NONE', #196, #440, #317, .T. ) ;
#295 = ORIENTED_EDGE ( 'NONE', *, *, #448, .F. ) ;
#296 = CARTESIAN_POINT ( 'NONE',  ( 31.99999999999999289, 22.00000000000000355, 6.500000000000000000 ) ) ;
#297 = VERTEX_POINT ( 'NONE', #431 ) ;
#298 = APPLICATION_CONTEXT ( 'automotive_design' ) ;
#299 = EDGE_LOOP ( 'NONE', ( #516, #95, #280, #231 ) ) ;
#300 = DIRECTION ( 'NONE',  ( 1.000000000000000000, -0.000000000000000000, -0.000000000000000000 ) ) ;
#301 = CARTESIAN_POINT ( 'NONE',  ( 30.26393202250021375, 19.50000000000000000, 5.500000000000000000 ) ) ;
#302 = DIRECTION ( 'NONE',  ( 0.000000000000000000, 0.000000000000000000, 1.000000000000000000 ) ) ;
#303 = ORIENTED_EDGE ( 'NONE', *, *, #69, .F. ) ;
#304 = DIRECTION ( 'NONE',  ( -1.000000000000000000, 0.000000000000000000, 0.000000000000000000 ) ) ;
#305 = CIRCLE ( 'NONE', #15, 3.000000000000000000 ) ;
#306 = CIRCLE ( 'NONE', #441, 2.999999999999999112 ) ;
#307 = CIRCLE ( 'NONE', #6, 2.999999999999999112 ) ;
#308 = ORIENTED_EDGE ( 'NONE', *, *, #644, .F. ) ;
#309 = PLANE ( 'NONE',  #192 ) ;
#310 = DIRECTION ( 'NONE',  ( -0.000000000000000000, 0.000000000000000000, 1.000000000000000000 ) ) ;
#311 = ADVANCED_FACE ( 'NONE', ( #656 ), #665, .F. ) ;
#312 = ORIENTED_EDGE ( 'NONE', *, *, #326, .F. ) ;
#313 = DIRECTION ( 'NONE',  ( 0.000000000000000000, 1.000000000000000000, -0.000000000000000000 ) ) ;
#314 = CARTESIAN_POINT ( 'NONE',  ( 31.99999999999999289, 22.00000000000000355, 6.500000000000000000 ) ) ;
#315 = CARTESIAN_POINT ( 'NONE',  ( 4.736067977499788029, 5.499999999999997335, 5.500000000000000000 ) ) ;
#316 = PLANE ( 'NONE',  #570 ) ;
#317 = CIRCLE ( 'NONE', #524, 0.7639320225002119713 ) ;
#318 = EDGE_CURVE ( 'NONE', #288, #138, #642, .T. ) ;
#319 = DIRECTION ( 'NONE',  ( -1.000000000000000000, -0.000000000000000000, -0.000000000000000000 ) ) ;
#320 = DIRECTION ( 'NONE',  ( 0.000000000000000000, 0.000000000000000000, -1.000000000000000000 ) ) ;
#321 = CARTESIAN_POINT ( 'NONE',  ( 5.499999999999999112, 20.26393202250020664, 5.500000000000000000 ) ) ;
#322 = CARTESIAN_POINT ( 'NONE',  ( 0.000000000000000000, 0.000000000000000000, 6.000000000000000000 ) ) ;
#323 = CARTESIAN_POINT ( 'NONE',  ( 30.26393202250021019, 5.499999999999997335, 5.500000000000000000 ) ) ;
#324 = DIRECTION ( 'NONE',  ( 1.000000000000000000, 0.000000000000000000, 0.000000000000000000 ) ) ;
#325 = VECTOR ( 'NONE', #125, 1000.000000000000000 ) ;
#326 = EDGE_CURVE ( 'NONE', #522, #240, #162, .T. ) ;
#327 = VECTOR ( 'NONE', #366, 1000.000000000000000 ) ;
#328 = AXIS2_PLACEMENT_3D ( 'NONE', #55, #156, #437 ) ;
#329 = AXIS2_PLACEMENT_3D ( 'NONE', #54, #436, #209 ) ;
#330 = DIRECTION ( 'NONE',  ( 0.000000000000000000, -1.000000000000000000, 0.000000000000000000 ) ) ;
#331 = EDGE_LOOP ( 'NONE', ( #505, #270, #342, #514 ) ) ;
#332 = PRODUCT_DEFINITION ( 'UNKNOWN', '', #408, #553 ) ;
#333 = DIRECTION ( 'NONE',  ( 1.000000000000000000, 0.000000000000000000, 0.000000000000000000 ) ) ;
#334 = DIRECTION ( 'NONE',  ( 0.000000000000000000, 0.000000000000000000, -1.000000000000000000 ) ) ;
#335 = UNCERTAINTY_MEASURE_WITH_UNIT (LENGTH_MEASURE( 1.000000000000000082E-05 ), #521, 'distance_accuracy_value', 'NONE');
#336 = ORIENTED_EDGE ( 'NONE', *, *, #694, .T. ) ;
#337 = FILL_AREA_STYLE_COLOUR ( '', #382 ) ;
#338 = EDGE_CURVE ( 'NONE', #440, #56, #624, .T. ) ;
#339 = PRESENTATION_LAYER_ASSIGNMENT (  '', '', ( #387 ) ) ;
#340 =( NAMED_UNIT ( * ) SI_UNIT ( $, .STERADIAN. ) SOLID_ANGLE_UNIT ( ) );
#341 = DIRECTION ( 'NONE',  ( 0.000000000000000000, 0.000000000000000000, -1.000000000000000000 ) ) ;
#342 = ORIENTED_EDGE ( 'NONE', *, *, #630, .F. ) ;
#343 = VERTEX_POINT ( 'NONE', #210 ) ;
#344 = CARTESIAN_POINT ( 'NONE',  ( 0.000000000000000000, 0.000000000000000000, 6.500000000000000000 ) ) ;
#345 = EDGE_LOOP ( 'NONE', ( #168, #77, #616, #174 ) ) ;
#346 = CIRCLE ( 'NONE', #659, 3.000000000000000000 ) ;
#347 = CARTESIAN_POINT ( 'NONE',  ( 5.499999999999999112, 20.26393202250020664, 5.500000000000000000 ) ) ;
#348 = ORIENTED_EDGE ( 'NONE', *, *, #167, .F. ) ;
#349 = ADVANCED_FACE ( 'NONE', ( #556 ), #381, .F. ) ;
#350 = CIRCLE ( 'NONE', #438, 0.7639320225002110831 ) ;
#351 = ORIENTED_EDGE ( 'NONE', *, *, #423, .F. ) ;
#352 = DIRECTION ( 'NONE',  ( -0.000000000000000000, 0.000000000000000000, 1.000000000000000000 ) ) ;
#353 = VECTOR ( 'NONE', #300, 1000.000000000000000 ) ;
#354 = CARTESIAN_POINT ( 'NONE',  ( 0.000000000000000000, 0.000000000000000000, 0.000000000000000000 ) ) ;
#355 = EDGE_CURVE ( 'NONE', #446, #187, #50, .T. ) ;
#356 = VERTEX_POINT ( 'NONE', #60 ) ;
#357 = DIRECTION ( 'NONE',  ( 0.000000000000000000, -0.000000000000000000, -1.000000000000000000 ) ) ;
#358 = VERTEX_POINT ( 'NONE', #504 ) ;
#359 = VERTEX_POINT ( 'NONE', #181 ) ;
#360 = CARTESIAN_POINT ( 'NONE',  ( 2.999999999999999556, 22.00000000000000000, 6.500000000000000000 ) ) ;
#361 = FACE_OUTER_BOUND ( 'NONE', #675, .T. ) ;
#362 = ORIENTED_EDGE ( 'NONE', *, *, #683, .F. ) ;
#363 = DIRECTION ( 'NONE',  ( -1.000000000000000000, 0.000000000000000000, 0.000000000000000000 ) ) ;
#364 = ADVANCED_FACE ( 'NONE', ( #399 ), #568, .F. ) ;
#365 = ORIENTED_EDGE ( 'NONE', *, *, #180, .T. ) ;
#366 = DIRECTION ( 'NONE',  ( -0.000000000000000000, -0.000000000000000000, 1.000000000000000000 ) ) ;
#367 = AXIS2_PLACEMENT_3D ( 'NONE', #215, #330, #542 ) ;
#368 = ORIENTED_EDGE ( 'NONE', *, *, #705, .F. ) ;
#369 = CARTESIAN_POINT ( 'NONE',  ( 2.999999999999999556, 22.00000000000000000, 6.500000000000000000 ) ) ;
#370 = EDGE_LOOP ( 'NONE', ( #184, #503, #216, #52, #143, #467, #365, #684 ) ) ;
#371 = DIRECTION ( 'NONE',  ( 0.000000000000000000, -1.000000000000000000, -0.000000000000000000 ) ) ;
#372 = DIRECTION ( 'NONE',  ( 0.000000000000000000, -1.000000000000000000, 0.000000000000000000 ) ) ;
#373 = FACE_OUTER_BOUND ( 'NONE', #690, .T. ) ;
#374 = ADVANCED_FACE ( 'NONE', ( #459 ), #123, .T. ) ;
#375 = CARTESIAN_POINT ( 'NONE',  ( 32.50000000000000000, 5.499999999999997335, 6.500000000000000000 ) ) ;
#376 = DIRECTION ( 'NONE',  ( -1.000000000000000000, 0.000000000000000000, 0.000000000000000000 ) ) ;
#377 = EDGE_CURVE ( 'NONE', #577, #35, #350, .T. ) ;
#378 = VECTOR ( 'NONE', #618, 1000.000000000000000 ) ;
#379 = LINE ( 'NONE', #321, #16 ) ;
#380 = CARTESIAN_POINT ( 'NONE',  ( 29.50000000000000355, 4.736067977499786252, 5.500000000000000000 ) ) ;
#381 = CYLINDRICAL_SURFACE ( 'NONE', #385, 2.999999999999999112 ) ;
#382 = COLOUR_RGB ( '',0.1137254901960784298, 0.1137254901960784298, 0.1137254901960784298 ) ;
#383 = SURFACE_STYLE_USAGE ( .BOTH. , #163 ) ;
#384 = CARTESIAN_POINT ( 'NONE',  ( 29.50000000000000355, 19.50000000000000000, 8.500000000000000000 ) ) ;
#385 = AXIS2_PLACEMENT_3D ( 'NONE', #652, #601, #547 ) ;
#386 = AXIS2_PLACEMENT_3D ( 'NONE', #689, #198, #639 ) ;
#387 = STYLED_ITEM ( 'NONE', ( #274 ), #281 ) ;
#388 = DIRECTION ( 'NONE',  ( -0.000000000000000000, 0.000000000000000000, 1.000000000000000000 ) ) ;
#389 = DIRECTION ( 'NONE',  ( -1.000000000000000000, 0.000000000000000000, 0.000000000000000000 ) ) ;
#390 = DIRECTION ( 'NONE',  ( 1.000000000000000000, 0.000000000000000000, 0.000000000000000000 ) ) ;
#391 = DIRECTION ( 'NONE',  ( -0.000000000000000000, 0.000000000000000000, 1.000000000000000000 ) ) ;
#392 = EDGE_CURVE ( 'NONE', #134, #522, #282, .T. ) ;
#393 = CARTESIAN_POINT ( 'NONE',  ( 24.15831239517772389, 12.49999999999999289, 5.500000000000000000 ) ) ;
#394 = VERTEX_POINT ( 'NONE', #291 ) ;
#395 = EDGE_LOOP ( 'NONE', ( #511, #502, #119, #566 ) ) ;
#396 = CIRCLE ( 'NONE', #626, 0.7639320225002110831 ) ;
#397 = DIRECTION ( 'NONE',  ( 1.000000000000000000, 0.000000000000000000, 0.000000000000000000 ) ) ;
#398 = CARTESIAN_POINT ( 'NONE',  ( 29.50000000000000355, 5.499999999999997335, 6.500000000000000000 ) ) ;
#399 = FACE_OUTER_BOUND ( 'NONE', #439, .T. ) ;
#400 = EDGE_CURVE ( 'NONE', #193, #529, #610, .T. ) ;
#401 = VERTEX_POINT ( 'NONE', #347 ) ;
#402 = ORIENTED_EDGE ( 'NONE', *, *, #338, .F. ) ;
#403 = PRESENTATION_STYLE_ASSIGNMENT (( #557 ) ) ;
#404 = ORIENTED_EDGE ( 'NONE', *, *, #606, .F. ) ;
#405 = ORIENTED_EDGE ( 'NONE', *, *, #669, .T. ) ;
#406 = AXIS2_PLACEMENT_3D ( 'NONE', #706, #208, #376 ) ;
#407 = DIRECTION ( 'NONE',  ( -0.000000000000000000, -0.000000000000000000, 1.000000000000000000 ) ) ;
#408 = PRODUCT_DEFINITION_FORMATION_WITH_SPECIFIED_SOURCE ( 'ANY', '', #206, .NOT_KNOWN. ) ;
#409 = LINE ( 'NONE', #354, #268 ) ;
#410 = ORIENTED_EDGE ( 'NONE', *, *, #101, .T. ) ;
#411 = ORIENTED_EDGE ( 'NONE', *, *, #679, .T. ) ;
#412 = CARTESIAN_POINT ( 'NONE',  ( 0.000000000000000000, 0.000000000000000000, 0.000000000000000000 ) ) ;
#413 = FACE_OUTER_BOUND ( 'NONE', #299, .T. ) ;
#414 = EDGE_CURVE ( 'NONE', #71, #415, #563, .T. ) ;
#415 = VERTEX_POINT ( 'NONE', #678 ) ;
#416 = DIRECTION ( 'NONE',  ( 0.000000000000000000, 0.000000000000000000, 1.000000000000000000 ) ) ;
#417 = DIRECTION ( 'NONE',  ( 0.000000000000000000, 0.000000000000000000, -1.000000000000000000 ) ) ;
#418 = VECTOR ( 'NONE', #674, 1000.000000000000000 ) ;
#419 = ORIENTED_EDGE ( 'NONE', *, *, #338, .T. ) ;
#420 = CARTESIAN_POINT ( 'NONE',  ( 29.50000000000000355, 2.499999999999996891, 6.500000000000000000 ) ) ;
#421 = VECTOR ( 'NONE', #153, 1000.000000000000000 ) ;
#422 = CARTESIAN_POINT ( 'NONE',  ( 17.50000000000002132, 12.49999999999999289, 8.500000000000000000 ) ) ;
#423 = EDGE_CURVE ( 'NONE', #275, #529, #230, .T. ) ;
#424 = DIRECTION ( 'NONE',  ( 0.000000000000000000, 0.000000000000000000, -1.000000000000000000 ) ) ;
#425 = LINE ( 'NONE', #600, #292 ) ;
#426 = DIRECTION ( 'NONE',  ( -1.000000000000000000, 0.000000000000000000, 0.000000000000000000 ) ) ;
#427 = DIRECTION ( 'NONE',  ( 0.000000000000000000, -0.000000000000000000, -1.000000000000000000 ) ) ;
#428 = AXIS2_PLACEMENT_3D ( 'NONE', #474, #535, #426 ) ;
#429 = CIRCLE ( 'NONE', #329, 2.999999999999999112 ) ;
#430 = DIRECTION ( 'NONE',  ( -1.000000000000000000, 0.000000000000000000, 0.000000000000000000 ) ) ;
#431 = CARTESIAN_POINT ( 'NONE',  ( 2.499999999999998668, 5.499999999999997335, 6.500000000000000000 ) ) ;
#432 = EDGE_CURVE ( 'NONE', #641, #622, #285, .T. ) ;
#433 = FILL_AREA_STYLE_COLOUR ( '', #608 ) ;
#434 = DIRECTION ( 'NONE',  ( 1.000000000000000000, 0.000000000000000000, 0.000000000000000000 ) ) ;
#435 = ORIENTED_EDGE ( 'NONE', *, *, #649, .T. ) ;
#436 = DIRECTION ( 'NONE',  ( -0.000000000000000000, -0.000000000000000000, 1.000000000000000000 ) ) ;
#437 = DIRECTION ( 'NONE',  ( -1.000000000000000000, 0.000000000000000000, 0.000000000000000000 ) ) ;
#438 = AXIS2_PLACEMENT_3D ( 'NONE', #515, #352, #623 ) ;
#439 = EDGE_LOOP ( 'NONE', ( #419, #461, #237, #636 ) ) ;
#440 = VERTEX_POINT ( 'NONE', #72 ) ;
#441 = AXIS2_PLACEMENT_3D ( 'NONE', #494, #710, #594 ) ;
#442 = CARTESIAN_POINT ( 'NONE',  ( 0.000000000000000000, 0.000000000000000000, 6.500000000000000000 ) ) ;
#443 = ADVANCED_FACE ( 'NONE', ( #238 ), #14, .T. ) ;
#444 = CARTESIAN_POINT ( 'NONE',  ( 2.999999999999999556, 25.00000000000000000, 6.500000000000000000 ) ) ;
#445 = CARTESIAN_POINT ( 'NONE',  ( 32.00000000000000000, 0.000000000000000000, 6.500000000000000000 ) ) ;
#446 = VERTEX_POINT ( 'NONE', #235 ) ;
#447 = AXIS2_PLACEMENT_3D ( 'NONE', #360, #407, #304 ) ;
#448 = EDGE_CURVE ( 'NONE', #84, #193, #346, .T. ) ;
#449 = EDGE_LOOP ( 'NONE', ( #33, #572 ) ) ;
#450 = FILL_AREA_STYLE ('',( #337 ) ) ;
#451 = CIRCLE ( 'NONE', #480, 2.999999999999999112 ) ;
#452 = LINE ( 'NONE', #243, #378 ) ;
#453 = EDGE_CURVE ( 'NONE', #134, #35, #621, .T. ) ;
#454 = EDGE_LOOP ( 'NONE', ( #410, #22 ) ) ;
#455 = SURFACE_STYLE_FILL_AREA ( #450 ) ;
#456 = ORIENTED_EDGE ( 'NONE', *, *, #694, .F. ) ;
#457 = MANIFOLD_SOLID_BREP ( 'Fillet4', #90 ) ;
#458 = ORIENTED_EDGE ( 'NONE', *, *, #705, .T. ) ;
#459 = FACE_OUTER_BOUND ( 'NONE', #331, .T. ) ;
#460 = DIRECTION ( 'NONE',  ( 0.000000000000000000, 1.000000000000000000, 0.000000000000000000 ) ) ;
#461 = ORIENTED_EDGE ( 'NONE', *, *, #180, .F. ) ;
#462 = CARTESIAN_POINT ( 'NONE',  ( 2.999999999999999556, 2.999999999999999556, 6.500000000000000000 ) ) ;
#463 = AXIS2_PLACEMENT_3D ( 'NONE', #103, #43, #212 ) ;
#464 = VECTOR ( 'NONE', #460, 1000.000000000000000 ) ;
#465 = DIRECTION ( 'NONE',  ( 0.000000000000000000, -0.000000000000000000, -1.000000000000000000 ) ) ;
#466 = ADVANCED_FACE ( 'NONE', ( #201 ), #20, .F. ) ;
#467 = ORIENTED_EDGE ( 'NONE', *, *, #117, .T. ) ;
#468 = CARTESIAN_POINT ( 'NONE',  ( 32.00000000000000000, 2.999999999999999556, 6.500000000000000000 ) ) ;
#469 = CARTESIAN_POINT ( 'NONE',  ( 12.50000000000002132, 12.49999999999999289, 6.000000000000000000 ) ) ;
#470 = ORIENTED_EDGE ( 'NONE', *, *, #476, .T. ) ;
#471 =( GEOMETRIC_REPRESENTATION_CONTEXT ( 3 ) GLOBAL_UNCERTAINTY_ASSIGNED_CONTEXT ( ( #4 ) ) GLOBAL_UNIT_ASSIGNED_CONTEXT ( ( #7, #667, #340 ) ) REPRESENTATION_CONTEXT ( 'NONE', 'WORKASPACE' ) );
#472 = FACE_OUTER_BOUND ( 'NONE', #136, .T. ) ;
#473 = ORIENTED_EDGE ( 'NONE', *, *, #318, .T. ) ;
#474 = CARTESIAN_POINT ( 'NONE',  ( 5.499999999999999112, 19.50000000000000000, 6.500000000000000000 ) ) ;
#475 = VECTOR ( 'NONE', #130, 1000.000000000000000 ) ;
#476 = EDGE_CURVE ( 'NONE', #66, #446, #48, .T. ) ;
#477 = CARTESIAN_POINT ( 'NONE',  ( 30.26393202250021019, 19.50000000000000000, 8.500000000000000000 ) ) ;
#478 = AXIS2_PLACEMENT_3D ( 'NONE', #314, #645, #530 ) ;
#479 = CARTESIAN_POINT ( 'NONE',  ( 0.000000000000000000, 2.999999999999999556, 0.000000000000000000 ) ) ;
#480 = AXIS2_PLACEMENT_3D ( 'NONE', #612, #341, #64 ) ;
#481 = DIRECTION ( 'NONE',  ( -0.000000000000000000, 1.000000000000000000, -0.000000000000000000 ) ) ;
#482 = CARTESIAN_POINT ( 'NONE',  ( 4.736067977499788029, 5.499999999999997335, 8.500000000000000000 ) ) ;
#483 = DIRECTION ( 'NONE',  ( 0.000000000000000000, 1.000000000000000000, -0.000000000000000000 ) ) ;
#484 = FACE_OUTER_BOUND ( 'NONE', #199, .T. ) ;
#485 = LINE ( 'NONE', #2, #120 ) ;
#486 = LINE ( 'NONE', #106, #222 ) ;
#487 = AXIS2_PLACEMENT_3D ( 'NONE', #28, #247, #141 ) ;
#488 = EDGE_CURVE ( 'NONE', #297, #146, #584, .T. ) ;
#489 = EDGE_LOOP ( 'NONE', ( #631, #287, #496, #561 ) ) ;
#490 = CARTESIAN_POINT ( 'NONE',  ( 5.499999999999999112, 19.50000000000000000, 8.500000000000000000 ) ) ;
#491 = FACE_BOUND ( 'NONE', #454, .T. ) ;
#492 = DIRECTION ( 'NONE',  ( 0.000000000000000000, 0.000000000000000000, -1.000000000000000000 ) ) ;
#493 = EDGE_LOOP ( 'NONE', ( #362, #550, #65, #513 ) ) ;
#494 = CARTESIAN_POINT ( 'NONE',  ( 31.99999999999999289, 22.00000000000000355, 0.000000000000000000 ) ) ;
#495 = EDGE_CURVE ( 'NONE', #356, #21, #545, .T. ) ;
#496 = ORIENTED_EDGE ( 'NONE', *, *, #453, .F. ) ;
#497 = CARTESIAN_POINT ( 'NONE',  ( 29.50000000000000355, 5.499999999999997335, 5.500000000000000000 ) ) ;
#498 = CIRCLE ( 'NONE', #487, 5.000000000000000888 ) ;
#499 = TOROIDAL_SURFACE ( 'NONE', #29, 0.7639320225002110831, 3.000000000000000000 ) ;
#500 = EDGE_CURVE ( 'NONE', #35, #240, #518, .T. ) ;
#501 = DIRECTION ( 'NONE',  ( 1.000000000000000000, 0.000000000000000000, 0.000000000000000000 ) ) ;
#502 = ORIENTED_EDGE ( 'NONE', *, *, #117, .F. ) ;
#503 = ORIENTED_EDGE ( 'NONE', *, *, #44, .T. ) ;
#504 = CARTESIAN_POINT ( 'NONE',  ( 31.99999999999999289, 25.00000000000000000, 6.500000000000000000 ) ) ;
#505 = ORIENTED_EDGE ( 'NONE', *, *, #137, .F. ) ;
#506 = ORIENTED_EDGE ( 'NONE', *, *, #18, .T. ) ;
#507 = CARTESIAN_POINT ( 'NONE',  ( 0.000000000000000000, 20.26393202250020664, 8.500000000000000000 ) ) ;
#508 = EDGE_LOOP ( 'NONE', ( #164, #411, #696, #687 ) ) ;
#509 = ADVANCED_FACE ( 'NONE', ( #576 ), #309, .F. ) ;
#510 = AXIS2_PLACEMENT_3D ( 'NONE', #468, #194, #580 ) ;
#511 = ORIENTED_EDGE ( 'NONE', *, *, #98, .T. ) ;
#512 = DIRECTION ( 'NONE',  ( -1.000000000000000000, 0.000000000000000000, -0.000000000000000000 ) ) ;
#513 = ORIENTED_EDGE ( 'NONE', *, *, #495, .F. ) ;
#514 = ORIENTED_EDGE ( 'NONE', *, *, #669, .F. ) ;
#515 = CARTESIAN_POINT ( 'NONE',  ( 5.499999999999999112, 5.499999999999997335, 5.500000000000000000 ) ) ;
#516 = ORIENTED_EDGE ( 'NONE', *, *, #574, .T. ) ;
#517 = ORIENTED_EDGE ( 'NONE', *, *, #318, .F. ) ;
#518 = LINE ( 'NONE', #697, #353 ) ;
#519 = EDGE_CURVE ( 'NONE', #196, #562, #259, .T. ) ;
#520 = CARTESIAN_POINT ( 'NONE',  ( 0.000000000000000000, 2.999999999999999556, 6.500000000000000000 ) ) ;
#521 =( LENGTH_UNIT ( ) NAMED_UNIT ( * ) SI_UNIT ( .MILLI., .METRE. ) );
#522 = VERTEX_POINT ( 'NONE', #420 ) ;
#523 = CARTESIAN_POINT ( 'NONE',  ( 32.00000000000000000, 0.000000000000000000, 6.500000000000000000 ) ) ;
#524 = AXIS2_PLACEMENT_3D ( 'NONE', #214, #714, #324 ) ;
#525 = VECTOR ( 'NONE', #372, 1000.000000000000000 ) ;
#526 = FACE_OUTER_BOUND ( 'NONE', #395, .T. ) ;
#527 = ORIENTED_EDGE ( 'NONE', *, *, #432, .F. ) ;
#528 = FACE_OUTER_BOUND ( 'NONE', #183, .T. ) ;
#529 = VERTEX_POINT ( 'NONE', #523 ) ;
#530 = DIRECTION ( 'NONE',  ( -1.000000000000000000, 0.000000000000000000, 0.000000000000000000 ) ) ;
#531 = EDGE_CURVE ( 'NONE', #415, #681, #249, .T. ) ;
#532 = EDGE_LOOP ( 'NONE', ( #25, #172, #93, #627 ) ) ;
#533 = STYLED_ITEM ( 'NONE', ( #403 ), #457 ) ;
#534 = CARTESIAN_POINT ( 'NONE',  ( 4.736067977499788029, 19.50000000000000000, 5.500000000000000000 ) ) ;
#535 = DIRECTION ( 'NONE',  ( 0.000000000000000000, 0.000000000000000000, -1.000000000000000000 ) ) ;
#536 = VECTOR ( 'NONE', #611, 1000.000000000000000 ) ;
#537 = LINE ( 'NONE', #40, #62 ) ;
#538 = DIRECTION ( 'NONE',  ( -1.000000000000000000, 0.000000000000000000, 0.000000000000000000 ) ) ;
#539 = CIRCLE ( 'NONE', #177, 2.999999999999999112 ) ;
#540 =( GEOMETRIC_REPRESENTATION_CONTEXT ( 3 ) GLOBAL_UNCERTAINTY_ASSIGNED_CONTEXT ( ( #335 ) ) GLOBAL_UNIT_ASSIGNED_CONTEXT ( ( #521, #169, #83 ) ) REPRESENTATION_CONTEXT ( 'NONE', 'WORKASPACE' ) );
#541 = DIRECTION ( 'NONE',  ( 1.000000000000000000, 0.000000000000000000, 0.000000000000000000 ) ) ;
#542 = DIRECTION ( 'NONE',  ( 0.000000000000000000, -0.000000000000000000, -1.000000000000000000 ) ) ;
#543 = ADVANCED_FACE ( 'NONE', ( #472 ), #643, .T. ) ;
#544 = CARTESIAN_POINT ( 'NONE',  ( 5.499999999999999112, 22.50000000000000000, 6.500000000000000000 ) ) ;
#545 = CIRCLE ( 'NONE', #695, 6.658312395177702570 ) ;
#546 = FACE_OUTER_BOUND ( 'NONE', #80, .T. ) ;
#547 = DIRECTION ( 'NONE',  ( 0.000000000000000000, 0.000000000000000000, 1.000000000000000000 ) ) ;
#548 = AXIS2_PLACEMENT_3D ( 'NONE', #31, #581, #417 ) ;
#549 = CIRCLE ( 'NONE', #548, 3.000000000000000000 ) ;
#550 = ORIENTED_EDGE ( 'NONE', *, *, #200, .F. ) ;
#551 = CARTESIAN_POINT ( 'NONE',  ( 5.499999999999999112, 19.50000000000000000, 5.500000000000000000 ) ) ;
#552 = DIRECTION ( 'NONE',  ( 0.000000000000000000, -0.000000000000000000, -1.000000000000000000 ) ) ;
#553 = PRODUCT_DEFINITION_CONTEXT ( 'detailed design', #298, 'design' ) ;
#554 = ADVANCED_FACE ( 'NONE', ( #528 ), #34, .T. ) ;
#555 = DIRECTION ( 'NONE',  ( -1.000000000000000000, 0.000000000000000000, 0.000000000000000000 ) ) ;
#556 = FACE_OUTER_BOUND ( 'NONE', #508, .T. ) ;
#557 = SURFACE_STYLE_USAGE ( .BOTH. , #185 ) ;
#558 = AXIS2_PLACEMENT_3D ( 'NONE', #322, #161, #265 ) ;
#559 = ORIENTED_EDGE ( 'NONE', *, *, #137, .T. ) ;
#560 = CARTESIAN_POINT ( 'NONE',  ( 5.499999999999999112, 4.736067977499786252, 8.500000000000000000 ) ) ;
#561 = ORIENTED_EDGE ( 'NONE', *, *, #392, .T. ) ;
#562 = VERTEX_POINT ( 'NONE', #252 ) ;
#563 = LINE ( 'NONE', #23, #418 ) ;
#564 = ADVANCED_FACE ( 'NONE', ( #147 ), #150, .T. ) ;
#565 = ORIENTED_EDGE ( 'NONE', *, *, #32, .T. ) ;
#566 = ORIENTED_EDGE ( 'NONE', *, *, #615, .F. ) ;
#567 = ORIENTED_EDGE ( 'NONE', *, *, #142, .T. ) ;
#568 = CYLINDRICAL_SURFACE ( 'NONE', #602, 3.000000000000000000 ) ;
#569 = DIRECTION ( 'NONE',  ( 1.000000000000000000, 0.000000000000000000, 0.000000000000000000 ) ) ;
#570 = AXIS2_PLACEMENT_3D ( 'NONE', #257, #538, #692 ) ;
#571 = CIRCLE ( 'NONE', #155, 3.000000000000000888 ) ;
#572 = ORIENTED_EDGE ( 'NONE', *, *, #606, .T. ) ;
#573 = DIRECTION ( 'NONE',  ( 0.000000000000000000, 0.000000000000000000, -1.000000000000000000 ) ) ;
#574 = EDGE_CURVE ( 'NONE', #187, #138, #592, .T. ) ;
#575 = EDGE_LOOP ( 'NONE', ( #220, #405, #435, #567 ) ) ;
#576 = FACE_OUTER_BOUND ( 'NONE', #70, .T. ) ;
#577 = VERTEX_POINT ( 'NONE', #315 ) ;
#578 = CARTESIAN_POINT ( 'NONE',  ( 0.000000000000000000, 0.000000000000000000, 0.000000000000000000 ) ) ;
#579 = VERTEX_POINT ( 'NONE', #534 ) ;
#580 = DIRECTION ( 'NONE',  ( -1.000000000000000000, 0.000000000000000000, 0.000000000000000000 ) ) ;
#581 = DIRECTION ( 'NONE',  ( 1.000000000000000000, 0.000000000000000000, 0.000000000000000000 ) ) ;
#582 = ORIENTED_EDGE ( 'NONE', *, *, #157, .F. ) ;
#583 = CIRCLE ( 'NONE', #478, 2.999999999999999112 ) ;
#584 = LINE ( 'NONE', #197, #709 ) ;
#585 = CIRCLE ( 'NONE', #653, 0.7639320225002119713 ) ;
#586 = EDGE_CURVE ( 'NONE', #138, #84, #38, .T. ) ;
#587 = ORIENTED_EDGE ( 'NONE', *, *, #255, .T. ) ;
#588 = DIRECTION ( 'NONE',  ( -1.000000000000000000, 0.000000000000000000, 0.000000000000000000 ) ) ;
#589 = EDGE_LOOP ( 'NONE', ( #614, #677, #348, #91 ) ) ;
#590 = LINE ( 'NONE', #253, #118 ) ;
#591 = EDGE_CURVE ( 'NONE', #579, #577, #256, .T. ) ;
#592 = LINE ( 'NONE', #412, #165 ) ;
#593 = CARTESIAN_POINT ( 'NONE',  ( -0.000000000000000000, 22.50000000000000000, 6.500000000000000000 ) ) ;
#594 = DIRECTION ( 'NONE',  ( -1.000000000000000000, 0.000000000000000000, 0.000000000000000000 ) ) ;
#595 = CARTESIAN_POINT ( 'NONE',  ( 2.999999999999999556, 0.000000000000000000, 6.500000000000000000 ) ) ;
#596 = AXIS2_PLACEMENT_3D ( 'NONE', #462, #688, #363 ) ;
#597 = EDGE_CURVE ( 'NONE', #641, #196, #537, .T. ) ;
#598 = CARTESIAN_POINT ( 'NONE',  ( 32.50000000000000000, 0.000000000000000000, 6.500000000000000000 ) ) ;
#599 = FACE_OUTER_BOUND ( 'NONE', #68, .T. ) ;
#600 = CARTESIAN_POINT ( 'NONE',  ( 31.99999999999999289, 25.00000000000000000, 6.500000000000000000 ) ) ;
#601 = DIRECTION ( 'NONE',  ( -0.000000000000000000, 1.000000000000000000, 0.000000000000000000 ) ) ;
#602 = AXIS2_PLACEMENT_3D ( 'NONE', #507, #617, #11 ) ;
#603 = LINE ( 'NONE', #267, #41 ) ;
#604 = CARTESIAN_POINT ( 'NONE',  ( 5.499999999999999112, 5.499999999999997335, 8.500000000000000000 ) ) ;
#605 = AXIS2_PLACEMENT_3D ( 'NONE', #490, #108, #277 ) ;
#606 = EDGE_CURVE ( 'NONE', #122, #359, #613, .T. ) ;
#607 = ORIENTED_EDGE ( 'NONE', *, *, #242, .F. ) ;
#608 = COLOUR_RGB ( '',0.1137254901960784298, 0.1137254901960784298, 0.1137254901960784298 ) ;
#609 = DIRECTION ( 'NONE',  ( 0.000000000000000000, 0.000000000000000000, -1.000000000000000000 ) ) ;
#610 = LINE ( 'NONE', #344, #536 ) ;
#611 = DIRECTION ( 'NONE',  ( 1.000000000000000000, 0.000000000000000000, 0.000000000000000000 ) ) ;
#612 = CARTESIAN_POINT ( 'NONE',  ( 32.00000000000000000, 2.999999999999999556, 0.000000000000000000 ) ) ;
#613 = CIRCLE ( 'NONE', #712, 5.000000000000000888 ) ;
#614 = ORIENTED_EDGE ( 'NONE', *, *, #453, .T. ) ;
#615 = EDGE_CURVE ( 'NONE', #401, #579, #396, .T. ) ;
#616 = ORIENTED_EDGE ( 'NONE', *, *, #152, .F. ) ;
#617 = DIRECTION ( 'NONE',  ( 1.000000000000000000, 0.000000000000000000, 0.000000000000000000 ) ) ;
#618 = DIRECTION ( 'NONE',  ( -1.000000000000000000, -0.000000000000000000, -0.000000000000000000 ) ) ;
#619 = DIRECTION ( 'NONE',  ( 0.000000000000000000, 0.000000000000000000, -1.000000000000000000 ) ) ;
#620 = ORIENTED_EDGE ( 'NONE', *, *, #294, .T. ) ;
#621 = CIRCLE ( 'NONE', #126, 3.000000000000000000 ) ;
#622 = VERTEX_POINT ( 'NONE', #375 ) ;
#623 = DIRECTION ( 'NONE',  ( 1.000000000000000000, 0.000000000000000000, 0.000000000000000000 ) ) ;
#624 = CIRCLE ( 'NONE', #699, 3.000000000000000000 ) ;
#625 = CYLINDRICAL_SURFACE ( 'NONE', #203, 3.000000000000000000 ) ;
#626 = AXIS2_PLACEMENT_3D ( 'NONE', #551, #388, #218 ) ;
#627 = ORIENTED_EDGE ( 'NONE', *, *, #355, .F. ) ;
#628 = CARTESIAN_POINT ( 'NONE',  ( 17.50000000000002132, 12.49999999999999289, 6.000000000000000000 ) ) ;
#629 = ORIENTED_EDGE ( 'NONE', *, *, #597, .T. ) ;
#630 = EDGE_CURVE ( 'NONE', #394, #415, #306, .T. ) ;
#631 = ORIENTED_EDGE ( 'NONE', *, *, #326, .T. ) ;
#632 = ORIENTED_EDGE ( 'NONE', *, *, #574, .F. ) ;
#633 = DIRECTION ( 'NONE',  ( -0.000000000000000000, -0.000000000000000000, 1.000000000000000000 ) ) ;
#634 = CARTESIAN_POINT ( 'NONE',  ( 0.000000000000000000, 0.000000000000000000, 6.500000000000000000 ) ) ;
#635 = MECHANICAL_DESIGN_GEOMETRIC_PRESENTATION_REPRESENTATION (  '', ( #533 ), #471 ) ;
#636 = ORIENTED_EDGE ( 'NONE', *, *, #713, .F. ) ;
#637 = DIRECTION ( 'NONE',  ( 0.000000000000000000, -1.000000000000000000, 0.000000000000000000 ) ) ;
#638 = PRODUCT_DEFINITION_SHAPE ( 'NONE', 'NONE',  #332 ) ;
#639 = DIRECTION ( 'NONE',  ( 1.000000000000000000, 0.000000000000000000, 0.000000000000000000 ) ) ;
#640 = AXIS2_PLACEMENT_3D ( 'NONE', #296, #619, #188 ) ;
#641 = VERTEX_POINT ( 'NONE', #323 ) ;
#642 = CIRCLE ( 'NONE', #328, 3.000000000000000000 ) ;
#643 = CYLINDRICAL_SURFACE ( 'NONE', #596, 3.000000000000000000 ) ;
#644 = EDGE_CURVE ( 'NONE', #359, #21, #685, .T. ) ;
#645 = DIRECTION ( 'NONE',  ( -0.000000000000000000, -0.000000000000000000, 1.000000000000000000 ) ) ;
#646 = CARTESIAN_POINT ( 'NONE',  ( 35.00000000000000000, 22.00000000000000355, 6.500000000000000000 ) ) ;
#647 = LINE ( 'NONE', #195, #327 ) ;
#648 = LINE ( 'NONE', #593, #421 ) ;
#649 = EDGE_CURVE ( 'NONE', #394, #343, #603, .T. ) ;
#650 =( NAMED_UNIT ( * ) PLANE_ANGLE_UNIT ( ) SI_UNIT ( $, .RADIAN. ) );
#651 = TOROIDAL_SURFACE ( 'NONE', #258, 6.658312395177700793, 3.000000000000000000 ) ;
#652 = CARTESIAN_POINT ( 'NONE',  ( 30.26393202250021019, 0.000000000000000000, 8.500000000000000000 ) ) ;
#653 = AXIS2_PLACEMENT_3D ( 'NONE', #497, #391, #166 ) ;
#654 = VECTOR ( 'NONE', #483, 1000.000000000000000 ) ;
#655 =( LENGTH_UNIT ( ) NAMED_UNIT ( * ) SI_UNIT ( .MILLI., .METRE. ) );
#656 = FACE_OUTER_BOUND ( 'NONE', #575, .T. ) ;
#657 = FILL_AREA_STYLE ('',( #433 ) ) ;
#658 = ADVANCED_FACE ( 'NONE', ( #546, #491 ), #49, .T. ) ;
#659 = AXIS2_PLACEMENT_3D ( 'NONE', #63, #116, #279 ) ;
#660 = CARTESIAN_POINT ( 'NONE',  ( 0.000000000000000000, 22.00000000000000000, 6.500000000000000000 ) ) ;
#661 = PRODUCT_RELATED_PRODUCT_CATEGORY ( 'part', '', ( #206 ) ) ;
#662 = DIRECTION ( 'NONE',  ( -1.000000000000000000, 0.000000000000000000, 0.000000000000000000 ) ) ;
#663 = TOROIDAL_SURFACE ( 'NONE', #386, 6.658312395177700793, 3.000000000000000000 ) ;
#664 = AXIS2_PLACEMENT_3D ( 'NONE', #477, #637, #144 ) ;
#665 = PLANE ( 'NONE',  #367 ) ;
#666 = SHAPE_DEFINITION_REPRESENTATION ( #638, #281 ) ;
#667 =( NAMED_UNIT ( * ) PLANE_ANGLE_UNIT ( ) SI_UNIT ( $, .RADIAN. ) );
#668 = ORIENTED_EDGE ( 'NONE', *, *, #69, .T. ) ;
#669 = EDGE_CURVE ( 'NONE', #358, #394, #425, .T. ) ;
#670 = ORIENTED_EDGE ( 'NONE', *, *, #713, .T. ) ;
#671 = DIRECTION ( 'NONE',  ( 0.000000000000000000, -1.000000000000000000, 0.000000000000000000 ) ) ;
#672 = ORIENTED_EDGE ( 'NONE', *, *, #8, .T. ) ;
#673 = AXIS2_PLACEMENT_3D ( 'NONE', #442, #334, #115 ) ;
#674 = DIRECTION ( 'NONE',  ( 0.000000000000000000, 1.000000000000000000, 0.000000000000000000 ) ) ;
#675 = EDGE_LOOP ( 'NONE', ( #404, #251, #26, #308 ) ) ;
#676 = EDGE_LOOP ( 'NONE', ( #233, #473, #632, #245, #139, #248, #13, #668 ) ) ;
#677 = ORIENTED_EDGE ( 'NONE', *, *, #377, .F. ) ;
#678 = CARTESIAN_POINT ( 'NONE',  ( 35.00000000000000000, 22.00000000000000355, 0.000000000000000000 ) ) ;
#679 = EDGE_CURVE ( 'NONE', #622, #562, #261, .T. ) ;
#680 = DIRECTION ( 'NONE',  ( -1.000000000000000000, 0.000000000000000000, 0.000000000000000000 ) ) ;
#681 = VERTEX_POINT ( 'NONE', #57 ) ;
#682 = CARTESIAN_POINT ( 'NONE',  ( -0.000000000000000000, 2.499999999999996891, 6.500000000000000000 ) ) ;
#683 = EDGE_CURVE ( 'NONE', #122, #356, #571, .T. ) ;
#684 = ORIENTED_EDGE ( 'NONE', *, *, #242, .T. ) ;
#685 = CIRCLE ( 'NONE', #463, 3.000000000000000000 ) ;
#686 = ORIENTED_EDGE ( 'NONE', *, *, #414, .T. ) ;
#687 = ORIENTED_EDGE ( 'NONE', *, *, #597, .F. ) ;
#688 = DIRECTION ( 'NONE',  ( 0.000000000000000000, 0.000000000000000000, -1.000000000000000000 ) ) ;
#689 = CARTESIAN_POINT ( 'NONE',  ( 17.50000000000002132, 12.49999999999999289, 8.500000000000000000 ) ) ;
#690 = EDGE_LOOP ( 'NONE', ( #30, #170, #686, #276 ) ) ;
#691 = DIRECTION ( 'NONE',  ( -0.000000000000000000, -0.000000000000000000, 1.000000000000000000 ) ) ;
#692 = DIRECTION ( 'NONE',  ( 0.000000000000000000, 0.000000000000000000, 1.000000000000000000 ) ) ;
#693 = AXIS2_PLACEMENT_3D ( 'NONE', #176, #78, #512 ) ;
#694 = EDGE_CURVE ( 'NONE', #193, #288, #485, .T. ) ;
#695 = AXIS2_PLACEMENT_3D ( 'NONE', #99, #357, #204 ) ;
#696 = ORIENTED_EDGE ( 'NONE', *, *, #519, .F. ) ;
#697 = CARTESIAN_POINT ( 'NONE',  ( 29.50000000000000355, 4.736067977499786252, 5.500000000000000000 ) ) ;
#698 = DIRECTION ( 'NONE',  ( 0.000000000000000000, -1.000000000000000000, -0.000000000000000000 ) ) ;
#699 = AXIS2_PLACEMENT_3D ( 'NONE', #159, #45, #609 ) ;
#700 = AXIS2_PLACEMENT_3D ( 'NONE', #250, #465, #260 ) ;
#701 = CARTESIAN_POINT ( 'NONE',  ( 4.736067977499788029, 5.499999999999997335, 5.500000000000000000 ) ) ;
#702 = AXIS2_PLACEMENT_3D ( 'NONE', #369, #140, #588 ) ;
#703 = DIRECTION ( 'NONE',  ( 1.000000000000000000, 0.000000000000000000, 0.000000000000000000 ) ) ;
#704 = CARTESIAN_POINT ( 'NONE',  ( 0.000000000000000000, 2.999999999999999556, 6.500000000000000000 ) ) ;
#705 = EDGE_CURVE ( 'NONE', #529, #179, #429, .T. ) ;
#706 = CARTESIAN_POINT ( 'NONE',  ( 5.499999999999999112, 5.499999999999997335, 6.500000000000000000 ) ) ;
#707 = DIRECTION ( 'NONE',  ( 0.000000000000000000, 0.000000000000000000, -1.000000000000000000 ) ) ;
#708 = CARTESIAN_POINT ( 'NONE',  ( 2.999999999999999556, 22.00000000000000000, 0.000000000000000000 ) ) ;
#709 = VECTOR ( 'NONE', #313, 1000.000000000000000 ) ;
#710 = DIRECTION ( 'NONE',  ( 0.000000000000000000, 0.000000000000000000, -1.000000000000000000 ) ) ;
#711 = CARTESIAN_POINT ( 'NONE',  ( 2.999999999999999556, 0.000000000000000000, 0.000000000000000000 ) ) ;
#712 = AXIS2_PLACEMENT_3D ( 'NONE', #628, #135, #541 ) ;
#713 = EDGE_CURVE ( 'NONE', #440, #401, #379, .T. ) ;
#714 = DIRECTION ( 'NONE',  ( -0.000000000000000000, 0.000000000000000000, 1.000000000000000000 ) ) ;
ENDSEC;
END-ISO-10303-21;
